<?xml version="1.0" encoding="UTF-8" standalone="no"?>
<!DOCTYPE svg PUBLIC "-//W3C//DTD SVG 1.1//EN" "http://www.w3.org/Graphics/SVG/1.1/DTD/svg11.dtd">
<svg width="100%" height="100%" viewBox="0 0 177 180" version="1.1" xmlns="http://www.w3.org/2000/svg" xmlns:xlink="http://www.w3.org/1999/xlink" xml:space="preserve" xmlns:serif="http://www.serif.com/" style="fill-rule:evenodd;clip-rule:evenodd;stroke-linejoin:round;stroke-miterlimit:2;">
    <g transform="matrix(1,0,0,1,-1038.55,-26.0389)">
        <path d="M1215.05,108.1C1214.77,103.322 1212.59,98.849 1209,95.68C1205.77,92.834 1201.5,91.463 1197.22,91.9C1191.24,92.652 1186.09,96.546 1183.74,102.1L1178.45,102.58L1173.23,101.07C1172.81,100.936 1172.48,100.603 1172.35,100.18C1170.84,95.528 1168.67,91.116 1165.91,87.08L1167.76,81.95L1173.59,75.44C1176.94,75.312 1180.08,73.761 1182.21,71.18C1186.19,66.324 1186.03,59.219 1181.83,54.55C1179.59,52.08 1176.39,50.684 1173.06,50.72C1169.73,50.77 1166.57,52.224 1164.37,54.72C1162.19,57.159 1161.05,60.361 1161.2,63.63L1155.37,70.15L1150.48,72.49C1143.23,68.106 1134.95,65.721 1126.48,65.58L1123.28,60.32L1122.16,54.54C1126.65,50.736 1128.69,44.753 1127.46,39C1125.55,30.268 1116.87,24.598 1108.11,26.36C1103.71,27.194 1099.84,29.807 1097.42,33.58C1095.15,37.089 1094.35,41.357 1095.2,45.45C1096.33,50.895 1100.2,55.387 1105.41,57.32L1106.66,63.71L1105.66,69.94C1101.13,72.03 1096.94,74.806 1093.25,78.17L1089.59,77.49L1085.45,74.27C1084.89,71.029 1083.05,68.146 1080.35,66.27C1075.36,62.797 1068.45,63.767 1064.61,68.48C1062.74,70.744 1061.72,73.59 1061.72,76.526C1061.72,80.371 1063.47,84.013 1066.48,86.41C1069.16,88.502 1072.62,89.331 1075.96,88.68L1079.43,91.38L1080.98,94.67C1081.05,94.816 1081.05,94.984 1080.98,95.13C1078.01,101.782 1076.49,108.987 1076.51,116.27C1076.51,117.63 1076.51,119.02 1076.67,120.39C1076.7,120.59 1076.61,120.789 1076.45,120.91L1070.59,125.22L1063.91,127.39C1059.83,124.104 1054.34,123.132 1049.38,124.82L1049.08,124.93L1049,124.93C1047.61,125.464 1046.89,127.031 1047.4,128.43C1047.75,129.501 1048.76,130.23 1049.89,130.23C1050.2,130.23 1050.5,130.176 1050.79,130.07L1050.92,130.07L1051.04,130.02C1054.69,128.776 1058.75,129.717 1061.48,132.44C1061.96,132.92 1062.62,133.189 1063.3,133.19C1063.57,133.191 1063.84,133.147 1064.1,133.06L1072.58,130.31C1072.85,130.22 1073.1,130.092 1073.33,129.93L1079.53,125.36C1081.21,124.115 1082.15,122.089 1082,120C1081.9,118.77 1081.86,117.54 1081.86,116.32C1081.85,109.822 1083.21,103.395 1085.86,97.46C1086.59,95.821 1086.57,93.942 1085.8,92.32L1083.97,88.44C1083.79,88.047 1083.52,87.704 1083.18,87.44L1078.18,83.56C1077.5,83.026 1076.59,82.868 1075.77,83.14C1073.7,83.821 1071.42,83.423 1069.71,82.08C1068.23,80.917 1067.28,79.196 1067.1,77.32C1066.89,75.433 1067.46,73.541 1068.67,72.08C1070.83,69.492 1074.65,68.957 1077.44,70.85C1079.14,72.04 1080.22,73.937 1080.38,76.01C1080.41,76.788 1080.78,77.515 1081.38,78.01L1086.91,82.32C1087.24,82.577 1087.63,82.752 1088.04,82.83L1093.61,83.83C1094.43,83.98 1095.27,83.723 1095.87,83.14C1099.7,79.459 1104.16,76.507 1109.05,74.43C1109.9,74.054 1110.51,73.264 1110.65,72.34L1111.95,64.14C1112.01,63.81 1112.01,63.47 1111.95,63.14L1110.3,54.67C1110.11,53.656 1109.36,52.835 1108.36,52.56C1104.35,51.565 1101.24,48.361 1100.36,44.32C1099.81,41.667 1100.33,38.902 1101.81,36.63C1103.45,34.072 1106.09,32.308 1109.08,31.76C1114.99,30.505 1120.91,34.271 1122.27,40.16C1123.1,44.356 1121.29,48.658 1117.71,51C1116.79,51.627 1116.33,52.748 1116.55,53.84L1118.11,61.84C1118.17,62.162 1118.29,62.47 1118.46,62.75L1122.29,69.05C1122.98,70.275 1124.28,71.04 1125.69,71.05C1133.68,71.052 1141.51,73.302 1148.29,77.54C1149.42,78.25 1150.84,78.329 1152.04,77.75L1158.04,74.89C1158.35,74.733 1158.63,74.519 1158.87,74.26L1165.87,66.45C1166.42,65.829 1166.67,64.993 1166.55,64.17C1166.23,62.101 1166.85,59.993 1168.24,58.43C1169.47,57.037 1171.23,56.232 1173.09,56.22C1174.95,56.217 1176.73,56.998 1177.98,58.37C1180.32,60.968 1180.4,64.924 1178.18,67.62C1176.83,69.269 1174.75,70.153 1172.63,69.98C1171.82,69.923 1171.03,70.245 1170.49,70.85L1163.49,78.66C1163.26,78.928 1163.08,79.236 1162.96,79.57L1160.68,85.88C1160.21,87.176 1160.41,88.623 1161.2,89.75C1163.84,93.488 1165.89,97.601 1167.31,101.95C1167.97,104.072 1169.65,105.731 1171.78,106.37L1177.47,108.01C1177.79,108.106 1178.13,108.137 1178.47,108.1L1185.85,107.43C1186.9,107.329 1187.8,106.607 1188.12,105.6C1189.46,101.216 1193.24,97.995 1197.78,97.37C1200.63,97.087 1203.48,98.004 1205.63,99.9C1208.13,102.109 1209.64,105.223 1209.84,108.55C1210.01,110.825 1209.61,113.108 1208.68,115.19C1208.06,116.544 1208.64,118.166 1209.97,118.83C1210.32,118.992 1210.7,119.076 1211.08,119.076C1212.12,119.076 1213.07,118.456 1213.49,117.5C1214.59,115.033 1215.16,112.362 1215.17,109.66L1215.17,108.13" style="fill:rgb(207,206,206);"/>
        <path d="M1201.72,121.65C1200.98,121.899 1200.22,122.067 1199.44,122.15C1194.74,122.55 1190.3,119.834 1188.51,115.47C1188.06,114.442 1187,113.81 1185.88,113.9L1178.95,114.54C1178.63,114.566 1178.32,114.655 1178.03,114.8L1172.8,117.41C1170.79,118.428 1169.41,120.39 1169.14,122.63C1168.68,126.019 1167.84,129.346 1166.65,132.55C1165.94,134.44 1166.08,136.55 1167.03,138.33L1168.9,141.77C1169.1,142.144 1169.38,142.466 1169.73,142.71L1174.92,146.3C1175.63,146.795 1176.54,146.904 1177.35,146.59C1179.37,145.785 1181.67,146.048 1183.46,147.29C1185.01,148.368 1186.04,150.036 1186.32,151.9C1186.63,153.774 1186.16,155.696 1185.03,157.22C1183.02,159.926 1179.24,160.679 1176.34,158.95C1174.57,157.857 1173.39,156.016 1173.13,153.95C1173.03,153.185 1172.61,152.497 1171.98,152.06L1166.23,148.06C1165.89,147.818 1165.49,147.664 1165.08,147.61L1161.46,147.16C1159.42,146.908 1157.38,147.614 1155.93,149.07C1153.05,151.906 1149.8,154.332 1146.26,156.28C1144.18,157.466 1142.84,159.631 1142.71,162.02L1142.25,169.59C1142.23,169.869 1142.26,170.15 1142.33,170.42L1144.6,179.74C1144.81,180.692 1145.52,181.46 1146.45,181.74C1149.57,182.667 1151.97,185.201 1152.72,188.37C1153.32,190.783 1152.94,193.338 1151.66,195.47C1150.08,198.174 1147.17,199.842 1144.04,199.842C1140.13,199.842 1136.66,197.233 1135.57,193.47C1134.5,190.147 1135.36,186.49 1137.81,184C1138.48,183.308 1138.75,182.316 1138.52,181.38L1136.23,172C1136.17,171.724 1136.06,171.461 1135.91,171.22L1132.39,165.37C1130.99,163.009 1128.44,161.56 1125.7,161.57C1122.84,161.574 1119.98,161.286 1117.18,160.71C1114.54,160.166 1111.79,161.061 1109.98,163.06L1105.31,168.14C1105.12,168.351 1104.97,168.586 1104.85,168.84L1099.63,180.02C1099.28,180.78 1099.28,181.66 1099.63,182.42C1100.52,184.319 1100.52,186.521 1099.63,188.42C1098.86,190.119 1097.4,191.418 1095.63,192C1093.87,192.579 1091.94,192.368 1090.34,191.42C1087.44,189.636 1086.22,186.003 1087.45,182.83C1088.23,180.774 1089.98,179.23 1092.12,178.71C1092.91,178.518 1093.57,177.976 1093.91,177.24L1099.16,165.98C1099.28,165.724 1099.36,165.451 1099.4,165.17L1100.4,157.62C1100.72,155.295 1099.84,152.96 1098.06,151.43C1094.07,148.103 1090.69,144.115 1088.06,139.64C1086.91,137.673 1084.81,136.443 1082.53,136.4L1075.23,136.33C1074.95,136.328 1074.67,136.371 1074.41,136.46L1066.41,139.06C1065.4,139.399 1064.68,140.301 1064.57,141.36C1064.14,145.506 1061.31,149.033 1057.36,150.36C1056.36,150.671 1055.32,150.829 1054.28,150.829C1049.72,150.829 1045.68,147.823 1044.36,143.46C1043.66,141.251 1043.68,138.876 1044.42,136.68C1044.91,135.276 1044.17,133.718 1042.78,133.2C1042.5,133.104 1042.21,133.056 1041.92,133.056C1040.78,133.056 1039.76,133.806 1039.42,134.9C1038.87,136.544 1038.57,138.265 1038.55,140L1038.55,140.37C1038.57,141.996 1038.83,143.609 1039.32,145.16C1041.34,151.722 1047.41,156.256 1054.27,156.33C1055.86,156.33 1057.43,156.077 1058.94,155.58C1064.31,153.788 1068.35,149.271 1069.53,143.73L1075.59,141.73L1082.47,141.79C1082.88,141.811 1083.26,142.036 1083.47,142.39C1086.41,147.398 1090.18,151.867 1094.63,155.6C1094.97,155.888 1095.13,156.332 1095.06,156.77L1094.06,163.91L1089.5,173.69C1086.24,174.905 1083.65,177.453 1082.39,180.69C1080.11,186.391 1082.33,192.969 1087.59,196.13C1090.46,197.81 1093.91,198.175 1097.07,197.13C1100.25,196.074 1102.86,193.744 1104.26,190.7C1105.66,187.703 1105.84,184.272 1104.74,181.15L1109.27,171.47L1113.64,166.69C1114.23,166.048 1115.12,165.766 1115.97,165.95C1119.12,166.605 1122.33,166.94 1125.55,166.95C1126.43,166.943 1127.26,167.404 1127.71,168.16L1131.02,173.65L1132.86,181.19C1129.77,185.104 1128.83,190.311 1130.35,195.06C1132.2,201.008 1137.71,205.111 1143.94,205.18C1144.95,205.177 1145.96,205.063 1146.94,204.84C1150.72,203.953 1153.98,201.551 1155.94,198.2C1157.97,194.804 1158.57,190.739 1157.62,186.9C1156.54,182.42 1153.39,178.708 1149.15,176.9L1147.33,169.43L1147.76,162.29C1147.78,161.771 1148.07,161.299 1148.52,161.04C1152.48,158.852 1156.12,156.134 1159.35,152.96C1159.67,152.632 1160.12,152.47 1160.58,152.52L1163.58,152.89L1167.89,155.89C1168.63,159.08 1170.62,161.844 1173.41,163.56C1178.6,166.732 1185.44,165.364 1189.01,160.44C1191.04,157.707 1191.87,154.267 1191.32,150.91C1190.8,147.574 1188.94,144.59 1186.18,142.65C1183.39,140.711 1179.88,140.082 1176.59,140.93L1172.99,138.43L1171.43,135.56C1171.25,135.207 1171.22,134.793 1171.36,134.42C1172.7,130.823 1173.64,127.086 1174.15,123.28C1174.22,122.853 1174.49,122.483 1174.87,122.28L1179.67,119.89L1184.38,119.46C1187.45,125.076 1193.64,128.3 1200,127.6C1201.16,127.48 1202.31,127.228 1203.41,126.85C1204.81,126.352 1205.56,124.809 1205.1,123.4C1204.77,122.287 1203.74,121.519 1202.58,121.519C1202.3,121.519 1202.02,121.563 1201.76,121.65" style="fill:rgb(207,206,206);"/>
        <path d="M1134.21,79C1131.42,78.332 1128.56,77.997 1125.69,78C1105.24,78 1088.6,95.19 1088.6,116.31C1088.6,137.43 1105.24,154.62 1125.69,154.62C1146.14,154.62 1162.79,137.43 1162.79,116.31C1162.88,103.298 1156.37,91.089 1145.51,83.92C1145.09,83.646 1144.59,83.5 1144.09,83.5C1143.17,83.5 1142.32,83.983 1141.85,84.77C1141.07,86.039 1141.44,87.717 1142.67,88.55C1151.98,94.694 1157.56,105.157 1157.49,116.31C1157.49,134.42 1143.23,149.15 1125.69,149.15C1108.15,149.15 1093.9,134.42 1093.9,116.31C1093.9,98.2 1108.16,83.48 1125.69,83.48C1128.15,83.478 1130.6,83.77 1132.99,84.35C1133.19,84.395 1133.39,84.418 1133.59,84.418C1134.82,84.418 1135.9,83.556 1136.18,82.35C1136.52,80.901 1135.62,79.427 1134.18,79.06" style="fill:rgb(207,206,206);"/>
        <path d="M1067.73,34.13C1067.81,34.127 1067.9,34.126 1067.98,34.126C1072.04,34.126 1075.38,37.466 1075.38,41.526C1075.38,45.585 1072.04,48.926 1067.98,48.926C1063.92,48.926 1060.58,45.585 1060.58,41.526C1060.58,41.524 1060.58,41.522 1060.58,41.52C1060.53,37.536 1063.75,34.206 1067.73,34.13M1067.73,54.39C1067.87,54.395 1068.02,54.397 1068.16,54.397C1075.23,54.397 1081.04,48.583 1081.04,41.517C1081.04,34.451 1075.23,28.637 1068.16,28.637C1061.09,28.637 1055.28,34.451 1055.28,41.517C1055.28,41.518 1055.28,41.519 1055.28,41.52C1055.17,48.461 1060.79,54.265 1067.73,54.39Z" style="fill:rgb(207,206,206);"/>
        <path d="M1065.05,179C1064.99,179.002 1064.94,179.004 1064.88,179.004C1062.69,179.004 1060.88,177.198 1060.88,175.004C1060.88,172.809 1062.69,171.004 1064.88,171.004C1067.07,171.004 1068.88,172.807 1068.88,175C1068.88,175.034 1068.88,175.067 1068.88,175.101C1068.88,177.214 1067.16,178.963 1065.05,179M1065.05,165.61C1064.95,165.607 1064.85,165.605 1064.75,165.605C1059.58,165.605 1055.32,169.862 1055.32,175.035C1055.32,180.208 1059.58,184.465 1064.75,184.465C1069.92,184.465 1074.18,180.211 1074.18,175.04C1074.25,169.957 1070.13,165.712 1065.05,165.62L1065.05,165.61Z" style="fill:rgb(207,206,206);"/>
        <path d="M1184,193.16C1183.92,193.162 1183.85,193.164 1183.77,193.164C1179.86,193.164 1176.65,189.95 1176.65,186.044C1176.65,182.138 1179.86,178.924 1183.77,178.924C1187.67,178.924 1190.89,182.135 1190.89,186.04C1190.89,186.08 1190.89,186.121 1190.89,186.161C1190.89,189.96 1187.8,193.101 1184,193.16M1184,173.45C1183.87,173.446 1183.74,173.444 1183.61,173.444C1176.7,173.444 1171.01,179.132 1171.01,186.044C1171.01,192.956 1176.7,198.644 1183.61,198.644C1190.52,198.644 1196.21,192.956 1196.21,186.044C1196.21,186.029 1196.21,186.015 1196.21,186C1196.29,179.214 1190.79,173.559 1184,173.45Z" style="fill:rgb(207,206,206);"/>
        <path d="M1115.12,113C1115.05,113.002 1114.99,113.003 1114.92,113.003C1111.38,113.003 1108.47,110.091 1108.47,106.553C1108.47,103.015 1111.38,100.103 1114.92,100.103C1118.46,100.103 1121.37,103.013 1121.37,106.55C1121.37,106.584 1121.37,106.617 1121.37,106.651C1121.37,110.097 1118.57,112.946 1115.12,113M1126.67,106.55C1126.47,100.351 1121.32,95.36 1115.12,95.36C1108.77,95.36 1103.56,100.578 1103.56,106.92C1103.56,113.262 1108.77,118.48 1115.12,118.48C1115.12,118.48 1115.12,118.48 1115.12,118.48C1121.49,118.373 1126.67,113.103 1126.67,106.732C1126.67,106.658 1126.67,106.584 1126.67,106.51L1126.67,106.55Z" style="fill:rgb(207,206,206);"/>
        <path d="M1122.26,131.53C1122.3,131.529 1122.34,131.528 1122.38,131.528C1124.31,131.528 1125.9,133.117 1125.9,135.048C1125.9,136.979 1124.31,138.568 1122.38,138.568C1120.45,138.568 1118.86,136.98 1118.86,135.05C1118.83,133.154 1120.36,131.568 1122.26,131.53M1122.26,144.04C1122.36,144.043 1122.46,144.045 1122.56,144.045C1127.5,144.045 1131.56,139.982 1131.56,135.045C1131.56,130.108 1127.5,126.045 1122.56,126.045C1117.62,126.045 1113.56,130.105 1113.56,135.04C1113.51,139.878 1117.42,143.913 1122.26,144L1122.26,144.04Z" style="fill:rgb(207,206,206);"/>
        <path d="M1141.28,113.81C1141.31,113.809 1141.33,113.809 1141.36,113.809C1142.74,113.809 1143.88,114.946 1143.88,116.329C1143.88,117.711 1142.74,118.849 1141.36,118.849C1139.98,118.849 1138.84,117.711 1138.84,116.329C1138.84,116.326 1138.84,116.323 1138.84,116.32C1138.84,116.307 1138.84,116.293 1138.84,116.28C1138.84,114.936 1139.94,113.826 1141.28,113.81M1133.54,116.32C1133.68,120.466 1137.13,123.8 1141.28,123.8C1145.52,123.8 1149.02,120.306 1149.02,116.06C1149.02,111.816 1145.52,108.322 1141.28,108.32C1137.01,108.39 1133.54,111.92 1133.54,116.189C1133.54,116.233 1133.54,116.276 1133.54,116.32Z" style="fill:rgb(207,206,206);"/>
    </g>
</svg>
