<?xml version="1.0" encoding="UTF-8" standalone="no"?>
<!DOCTYPE svg PUBLIC "-//W3C//DTD SVG 1.1//EN" "http://www.w3.org/Graphics/SVG/1.1/DTD/svg11.dtd">
<svg width="100%" height="100%" viewBox="0 0 140 26" version="1.1" xmlns="http://www.w3.org/2000/svg" xmlns:xlink="http://www.w3.org/1999/xlink" xml:space="preserve" xmlns:serif="http://www.serif.com/" style="fill-rule:evenodd;clip-rule:evenodd;stroke-linejoin:round;stroke-miterlimit:2;">
    <g id="veus" transform="matrix(1,0,0,1,0,1)">
        <g transform="matrix(0.380677,0,0,0.362513,-285.279,-186.574)">
            <path d="M843.6,523.21C842.339,523.206 841.197,523.978 840.73,525.15L830.73,549.88L821,525.35C820.565,524.043 819.316,523.17 817.94,523.21C816.328,523.209 814.988,524.508 814.94,526.12C814.95,526.609 815.066,527.09 815.28,527.53L827.19,555.53C827.675,556.988 829.054,557.974 830.59,557.96L830.93,557.96C832.483,557.989 833.884,557.002 834.38,555.53L846.33,527.35C846.503,526.948 846.602,526.517 846.62,526.08C846.611,524.501 845.309,523.207 843.73,523.207C843.687,523.207 843.643,523.208 843.6,523.21Z" style="fill:rgb(29,29,27);fill-rule:nonzero;"/>
        </g>
        <g transform="matrix(0.380677,0,0,0.362513,-285.279,-186.574)">
            <path d="M875.91,552.12L858.85,552.12L858.85,543L873.48,543C874.932,543.006 876.134,541.822 876.15,540.37C876.156,538.895 874.955,537.672 873.48,537.65L858.85,537.65L858.85,528.85L875.67,528.85C877.135,528.85 878.34,527.645 878.34,526.18L878.34,526.17C878.324,524.708 877.122,523.511 875.66,523.5L855.89,523.5C854.244,523.5 852.89,524.854 852.89,526.5L852.89,554.5C852.89,556.146 854.244,557.5 855.89,557.5L875.89,557.5C877.355,557.5 878.56,556.295 878.56,554.83C878.56,553.365 877.355,552.16 875.89,552.16L875.91,552.12Z" style="fill:rgb(29,29,27);fill-rule:nonzero;"/>
        </g>
        <g transform="matrix(0.380677,0,0,0.362513,-285.279,-186.574)">
            <path d="M910.45,523.21C908.804,523.21 907.45,524.564 907.45,526.21L907.45,543C907.45,549.27 904.2,552.43 898.9,552.43C893.6,552.43 890.3,549.07 890.3,542.76L890.3,526.17C890.3,524.524 888.946,523.17 887.3,523.17C885.654,523.17 884.3,524.524 884.3,526.17L884.3,543C884.3,552.86 889.93,558 898.77,558C907.61,558 913.4,552.9 913.4,542.75L913.4,526.15C913.4,524.537 912.073,523.21 910.46,523.21L910.45,523.21Z" style="fill:rgb(29,29,27);fill-rule:nonzero;"/>
        </g>
        <g transform="matrix(0.380677,0,0,0.362513,-285.279,-186.574)">
            <path d="M934.22,537.74C927.66,536.18 926.1,535.01 926.1,532.39L926.1,532.29C926.1,530.06 928.1,528.29 931.64,528.29C934.444,528.356 937.167,529.254 939.46,530.87C939.929,531.158 940.47,531.307 941.02,531.3L941.06,531.3C942.58,531.3 943.83,530.05 943.83,528.53C943.851,527.56 943.35,526.651 942.52,526.15C939.335,524.021 935.571,522.921 931.74,523C924.98,523 920.13,527 920.13,532.86L920.13,532.96C920.13,539.22 924.21,541.36 931.45,543.11C937.76,544.57 939.12,545.88 939.12,548.31L939.12,548.4C939.12,550.93 936.79,552.68 933.12,552.68C929.633,552.68 926.257,551.439 923.6,549.18C923.109,548.81 922.51,548.609 921.895,548.609C920.342,548.609 919.064,549.887 919.064,551.44C919.064,552.328 919.481,553.165 920.19,553.7C923.875,556.493 928.376,558.004 933,558C940.14,558 945.15,554.21 945.15,547.84L945.15,547.75C945.1,542.06 941.41,539.48 934.22,537.74Z" style="fill:rgb(29,29,27);fill-rule:nonzero;"/>
        </g>
    </g>
    <g transform="matrix(0.380677,0,0,0.376803,-285.279,-193.3)">
        <g id="simbolo">
            <path d="M804.18,540.48C804.131,555.472 791.782,567.78 776.79,567.78C761.764,567.78 749.4,555.416 749.4,540.39C749.4,525.364 761.764,513 776.79,513C791.821,513.016 804.18,525.389 804.18,540.42L804.18,540.48ZM803.98,536.94C803.836,535.784 803.619,534.639 803.33,533.51L793.92,533.51C791.104,533.515 788.79,535.834 788.79,538.65L788.79,542.09C788.79,543.028 788.018,543.8 787.08,543.8C786.142,543.8 785.37,543.028 785.37,542.09L785.37,528.47C785.373,528.394 785.375,528.319 785.375,528.243C785.375,525.424 783.055,523.103 780.235,523.103C777.415,523.103 775.095,525.424 775.095,528.243C775.095,528.319 775.097,528.394 775.1,528.47L775.1,552.39C775.103,552.434 775.105,552.477 775.105,552.521C775.105,553.465 774.329,554.241 773.385,554.241C772.441,554.241 771.665,553.465 771.665,552.521C771.665,552.477 771.667,552.434 771.67,552.39L771.67,538.67C771.673,538.594 771.675,538.519 771.675,538.443C771.675,535.624 769.355,533.303 766.535,533.303C763.715,533.303 761.395,535.624 761.395,538.443C761.395,538.519 761.397,538.594 761.4,538.67L761.4,542.09C761.4,543.03 760.63,543.805 759.69,543.81L749.6,543.81C749.734,544.965 749.941,546.111 750.22,547.24L759.71,547.24C762.52,547.235 764.83,544.92 764.83,542.11L764.83,538.68C764.83,537.742 765.602,536.97 766.54,536.97C767.478,536.97 768.25,537.742 768.25,538.68L768.25,552.39C768.247,552.466 768.245,552.541 768.245,552.617C768.245,555.436 770.565,557.757 773.385,557.757C776.205,557.757 778.525,555.436 778.525,552.617C778.525,552.541 778.523,552.466 778.52,552.39L778.52,528.47C778.52,527.532 779.292,526.76 780.23,526.76C781.168,526.76 781.94,527.532 781.94,528.47L781.94,542.09C781.937,542.166 781.935,542.241 781.935,542.317C781.935,545.136 784.255,547.457 787.075,547.457C789.895,547.457 792.215,545.136 792.215,542.317C792.215,542.241 792.213,542.166 792.21,542.09L792.21,538.67C792.21,537.73 792.98,536.955 793.92,536.95L804,536.95L803.98,536.94Z" style="fill:rgb(29,29,27);fill-rule:nonzero;"/>
        </g>
    </g>
    <g id="saude" transform="matrix(1,0,0,1,0,1)">
        <g transform="matrix(18.3676,0,0,17.4913,74.9019,15.4911)">
            <path d="M0.341,0.01C0.243,0.01 0.154,-0.023 0.075,-0.088C0.068,-0.093 0.065,-0.1 0.065,-0.108C0.065,-0.115 0.068,-0.121 0.073,-0.126C0.078,-0.131 0.084,-0.134 0.091,-0.134C0.097,-0.134 0.103,-0.132 0.108,-0.128C0.175,-0.067 0.254,-0.037 0.344,-0.037C0.396,-0.037 0.439,-0.05 0.472,-0.077C0.505,-0.103 0.521,-0.136 0.521,-0.176L0.521,-0.178C0.521,-0.217 0.507,-0.247 0.48,-0.27C0.452,-0.293 0.4,-0.312 0.323,-0.327C0.239,-0.344 0.179,-0.367 0.142,-0.398C0.105,-0.429 0.087,-0.471 0.087,-0.524L0.087,-0.526C0.087,-0.578 0.108,-0.622 0.151,-0.657C0.194,-0.692 0.247,-0.71 0.312,-0.71C0.397,-0.71 0.471,-0.686 0.535,-0.638C0.542,-0.632 0.546,-0.625 0.546,-0.617C0.546,-0.61 0.543,-0.604 0.538,-0.599C0.533,-0.594 0.527,-0.591 0.52,-0.591C0.513,-0.591 0.508,-0.593 0.503,-0.597C0.446,-0.641 0.381,-0.663 0.31,-0.663C0.259,-0.663 0.218,-0.65 0.187,-0.625C0.155,-0.6 0.139,-0.568 0.139,-0.531L0.139,-0.529C0.139,-0.49 0.153,-0.458 0.182,-0.435C0.21,-0.412 0.264,-0.392 0.343,-0.376C0.424,-0.359 0.482,-0.336 0.519,-0.306C0.555,-0.275 0.573,-0.234 0.573,-0.183L0.573,-0.181C0.573,-0.125 0.551,-0.079 0.508,-0.044C0.465,-0.008 0.409,0.01 0.341,0.01Z" style="fill:rgb(29,29,27);fill-rule:nonzero;"/>
        </g>
        <g transform="matrix(18.3676,0,0,17.4913,86.3831,15.4911)">
            <path d="M0.056,-0.018C0.056,-0.023 0.057,-0.029 0.06,-0.034L0.359,-0.682C0.367,-0.699 0.379,-0.707 0.394,-0.707L0.396,-0.707C0.411,-0.707 0.423,-0.699 0.431,-0.682L0.729,-0.036C0.732,-0.031 0.733,-0.025 0.733,-0.02C0.733,-0.013 0.731,-0.008 0.726,-0.003C0.721,0.002 0.715,0.004 0.708,0.004C0.697,0.004 0.688,-0.003 0.682,-0.016L0.6,-0.196L0.187,-0.196L0.105,-0.015C0.1,-0.002 0.091,0.004 0.08,0.004C0.073,0.004 0.068,0.002 0.063,-0.003C0.058,-0.007 0.056,-0.012 0.056,-0.018ZM0.209,-0.243L0.578,-0.243L0.394,-0.648L0.209,-0.243Z" style="fill:rgb(29,29,27);fill-rule:nonzero;"/>
        </g>
        <g transform="matrix(0.380677,0,0,0.362513,100.434,15.4911)">
            <g>
                <g transform="matrix(48.25,0,0,48.25,0,0)">
                    <path d="M0.38,0.011C0.294,0.011 0.225,-0.015 0.172,-0.068C0.119,-0.121 0.093,-0.195 0.093,-0.291L0.093,-0.678C0.093,-0.685 0.095,-0.691 0.101,-0.696C0.106,-0.701 0.112,-0.704 0.119,-0.704C0.126,-0.704 0.133,-0.701 0.138,-0.696C0.142,-0.691 0.145,-0.685 0.145,-0.678L0.145,-0.296C0.145,-0.214 0.166,-0.15 0.208,-0.105C0.25,-0.059 0.308,-0.036 0.382,-0.036C0.455,-0.036 0.512,-0.058 0.553,-0.102C0.594,-0.145 0.615,-0.208 0.615,-0.291L0.615,-0.678C0.615,-0.685 0.618,-0.691 0.623,-0.696C0.628,-0.701 0.634,-0.704 0.641,-0.704C0.648,-0.704 0.655,-0.701 0.66,-0.696C0.665,-0.691 0.667,-0.685 0.667,-0.678L0.667,-0.297C0.667,-0.199 0.641,-0.123 0.589,-0.07C0.537,-0.016 0.467,0.011 0.38,0.011ZM0.379,-0.762C0.37,-0.762 0.366,-0.765 0.366,-0.771C0.366,-0.774 0.367,-0.778 0.37,-0.782L0.432,-0.875C0.44,-0.887 0.449,-0.893 0.46,-0.893C0.469,-0.893 0.479,-0.89 0.488,-0.886C0.497,-0.881 0.502,-0.875 0.502,-0.87C0.502,-0.865 0.498,-0.859 0.491,-0.852L0.411,-0.775C0.402,-0.766 0.391,-0.762 0.379,-0.762Z" style="fill:rgb(29,29,27);fill-rule:nonzero;"/>
                </g>
                <g transform="matrix(48.25,0,0,48.25,36.67,0)">
                    <path d="M0.104,-0.026L0.104,-0.674C0.104,-0.681 0.107,-0.687 0.112,-0.692C0.117,-0.697 0.123,-0.7 0.13,-0.7L0.337,-0.7C0.446,-0.7 0.535,-0.667 0.605,-0.601C0.674,-0.534 0.709,-0.451 0.709,-0.352L0.709,-0.35C0.709,-0.25 0.674,-0.167 0.605,-0.1C0.535,-0.033 0.446,0 0.337,0L0.13,0C0.123,0 0.117,-0.003 0.112,-0.008C0.107,-0.013 0.104,-0.019 0.104,-0.026ZM0.156,-0.048L0.337,-0.048C0.432,-0.048 0.509,-0.077 0.568,-0.134C0.626,-0.191 0.655,-0.263 0.655,-0.348L0.655,-0.35C0.655,-0.435 0.626,-0.507 0.568,-0.565C0.509,-0.623 0.432,-0.652 0.337,-0.652L0.156,-0.652L0.156,-0.048Z" style="fill:rgb(29,29,27);fill-rule:nonzero;"/>
                </g>
                <g transform="matrix(48.25,0,0,48.25,74.4015,0)">
                    <path d="M0.13,0C0.123,0 0.117,-0.003 0.112,-0.008C0.107,-0.013 0.104,-0.019 0.104,-0.026L0.104,-0.674C0.104,-0.681 0.107,-0.687 0.112,-0.692C0.117,-0.697 0.123,-0.7 0.13,-0.7L0.582,-0.7C0.589,-0.7 0.594,-0.698 0.599,-0.693C0.604,-0.688 0.606,-0.683 0.606,-0.676C0.606,-0.669 0.604,-0.664 0.599,-0.659C0.594,-0.654 0.589,-0.652 0.582,-0.652L0.156,-0.652L0.156,-0.377L0.537,-0.377C0.544,-0.377 0.549,-0.375 0.554,-0.37C0.559,-0.365 0.561,-0.36 0.561,-0.353C0.561,-0.346 0.559,-0.341 0.554,-0.336C0.549,-0.331 0.544,-0.329 0.537,-0.329L0.156,-0.329L0.156,-0.048L0.587,-0.048C0.594,-0.048 0.599,-0.046 0.604,-0.041C0.609,-0.036 0.611,-0.031 0.611,-0.024C0.611,-0.017 0.609,-0.012 0.604,-0.007C0.599,-0.002 0.594,0 0.587,0L0.13,0Z" style="fill:rgb(29,29,27);fill-rule:nonzero;"/>
                </g>
            </g>
        </g>
    </g>
    <g id="legenda" transform="matrix(1,0,0,1,-1,0)">
        <g transform="matrix(0.380677,0,0,0.376803,25.4166,25.9203)">
            <g>
                <g transform="matrix(17.626,0,0,17.626,0,0)">
                    <path d="M0.247,-0.071L0.247,-0.558L0.099,-0.558C0.08,-0.558 0.063,-0.565 0.049,-0.579C0.035,-0.593 0.028,-0.61 0.028,-0.629C0.028,-0.648 0.035,-0.665 0.049,-0.679C0.063,-0.693 0.08,-0.7 0.099,-0.7L0.549,-0.7C0.568,-0.7 0.585,-0.693 0.599,-0.679C0.613,-0.665 0.62,-0.648 0.62,-0.629C0.62,-0.61 0.613,-0.593 0.599,-0.579C0.585,-0.565 0.568,-0.558 0.549,-0.558L0.401,-0.558L0.401,-0.071C0.401,-0.05 0.394,-0.032 0.379,-0.017C0.364,-0.002 0.345,0.006 0.324,0.006C0.303,0.006 0.284,-0.002 0.27,-0.017C0.255,-0.032 0.247,-0.05 0.247,-0.071Z" style="fill:rgb(29,29,27);fill-rule:nonzero;"/>
                </g>
                <g transform="matrix(17.626,0,0,17.626,11.4216,0)">
                    <path d="M0.161,0C0.14,0 0.122,-0.008 0.107,-0.023C0.092,-0.038 0.084,-0.056 0.084,-0.077L0.084,-0.623C0.084,-0.644 0.092,-0.663 0.107,-0.678C0.122,-0.693 0.14,-0.7 0.161,-0.7L0.549,-0.7C0.568,-0.7 0.585,-0.693 0.598,-0.68C0.611,-0.667 0.618,-0.65 0.618,-0.631C0.618,-0.612 0.611,-0.596 0.598,-0.583C0.585,-0.57 0.568,-0.563 0.549,-0.563L0.237,-0.563L0.237,-0.421L0.504,-0.421C0.523,-0.421 0.539,-0.414 0.553,-0.401C0.566,-0.387 0.573,-0.371 0.573,-0.352C0.573,-0.333 0.566,-0.317 0.553,-0.304C0.54,-0.291 0.523,-0.284 0.504,-0.284L0.237,-0.284L0.237,-0.137L0.554,-0.137C0.573,-0.137 0.589,-0.13 0.603,-0.117C0.616,-0.103 0.623,-0.087 0.623,-0.068C0.623,-0.049 0.616,-0.033 0.603,-0.02C0.59,-0.007 0.573,0 0.554,0L0.161,0Z" style="fill:rgb(29,29,27);fill-rule:nonzero;"/>
                </g>
            </g>
        </g>
        <g transform="matrix(6.70981,0,0,6.64154,34.2597,25.9203)">
            <path d="M0.333,0.01C0.236,0.01 0.148,-0.018 0.07,-0.074C0.051,-0.087 0.041,-0.107 0.041,-0.132C0.041,-0.152 0.048,-0.169 0.062,-0.183C0.076,-0.196 0.093,-0.203 0.113,-0.203C0.129,-0.203 0.144,-0.198 0.157,-0.189C0.214,-0.147 0.274,-0.126 0.336,-0.126C0.367,-0.126 0.392,-0.132 0.41,-0.144C0.428,-0.155 0.437,-0.171 0.437,-0.192L0.437,-0.194C0.437,-0.214 0.428,-0.23 0.409,-0.243C0.39,-0.255 0.353,-0.268 0.296,-0.283C0.256,-0.293 0.224,-0.303 0.199,-0.313C0.174,-0.322 0.151,-0.335 0.129,-0.351C0.106,-0.367 0.09,-0.387 0.08,-0.411C0.069,-0.434 0.064,-0.463 0.064,-0.497L0.064,-0.499C0.064,-0.562 0.087,-0.613 0.133,-0.652C0.178,-0.691 0.237,-0.71 0.309,-0.71C0.392,-0.71 0.466,-0.689 0.531,-0.648C0.554,-0.635 0.565,-0.614 0.565,-0.587C0.565,-0.567 0.558,-0.55 0.544,-0.537C0.53,-0.523 0.513,-0.516 0.493,-0.516C0.48,-0.516 0.467,-0.52 0.454,-0.527C0.401,-0.558 0.352,-0.574 0.307,-0.574C0.278,-0.574 0.256,-0.568 0.241,-0.557C0.225,-0.546 0.217,-0.531 0.217,-0.513L0.217,-0.511C0.217,-0.488 0.227,-0.471 0.246,-0.46C0.265,-0.449 0.306,-0.435 0.368,-0.419C0.444,-0.399 0.5,-0.374 0.536,-0.343C0.572,-0.312 0.59,-0.267 0.59,-0.209L0.59,-0.207C0.59,-0.139 0.567,-0.086 0.52,-0.048C0.472,-0.009 0.41,0.01 0.333,0.01Z" style="fill:rgb(29,29,27);fill-rule:nonzero;"/>
        </g>
        <g transform="matrix(0.380677,0,0,0.376803,38.4547,25.9203)">
            <g>
                <g transform="matrix(17.626,0,0,17.626,0,0)">
                    <path d="M0.247,-0.071L0.247,-0.558L0.099,-0.558C0.08,-0.558 0.063,-0.565 0.049,-0.579C0.035,-0.593 0.028,-0.61 0.028,-0.629C0.028,-0.648 0.035,-0.665 0.049,-0.679C0.063,-0.693 0.08,-0.7 0.099,-0.7L0.549,-0.7C0.568,-0.7 0.585,-0.693 0.599,-0.679C0.613,-0.665 0.62,-0.648 0.62,-0.629C0.62,-0.61 0.613,-0.593 0.599,-0.579C0.585,-0.565 0.568,-0.558 0.549,-0.558L0.401,-0.558L0.401,-0.071C0.401,-0.05 0.394,-0.032 0.379,-0.017C0.364,-0.002 0.345,0.006 0.324,0.006C0.303,0.006 0.284,-0.002 0.27,-0.017C0.255,-0.032 0.247,-0.05 0.247,-0.071Z" style="fill:rgb(29,29,27);fill-rule:nonzero;"/>
                </g>
                <g transform="matrix(17.626,0,0,17.626,11.4216,0)">
                    <path d="M0.161,0C0.14,0 0.122,-0.008 0.107,-0.023C0.092,-0.038 0.084,-0.056 0.084,-0.077L0.084,-0.623C0.084,-0.644 0.092,-0.663 0.107,-0.678C0.122,-0.693 0.14,-0.7 0.161,-0.7L0.549,-0.7C0.568,-0.7 0.585,-0.693 0.598,-0.68C0.611,-0.667 0.618,-0.65 0.618,-0.631C0.618,-0.612 0.611,-0.596 0.598,-0.583C0.585,-0.57 0.568,-0.563 0.549,-0.563L0.237,-0.563L0.237,-0.421L0.504,-0.421C0.523,-0.421 0.539,-0.414 0.553,-0.401C0.566,-0.387 0.573,-0.371 0.573,-0.352C0.573,-0.333 0.566,-0.317 0.553,-0.304C0.54,-0.291 0.523,-0.284 0.504,-0.284L0.237,-0.284L0.237,-0.137L0.554,-0.137C0.573,-0.137 0.589,-0.13 0.603,-0.117C0.616,-0.103 0.623,-0.087 0.623,-0.068C0.623,-0.049 0.616,-0.033 0.603,-0.02C0.59,-0.007 0.573,0 0.554,0L0.161,0Z" style="fill:rgb(29,29,27);fill-rule:nonzero;"/>
                </g>
                <g transform="matrix(17.626,0,0,17.626,28.5189,0)">
                    <path d="M0.084,-0.077L0.084,-0.629C0.084,-0.65 0.092,-0.669 0.107,-0.684C0.122,-0.699 0.14,-0.706 0.161,-0.706C0.182,-0.706 0.201,-0.699 0.216,-0.684C0.231,-0.669 0.238,-0.65 0.238,-0.629L0.238,-0.14L0.523,-0.14C0.542,-0.14 0.559,-0.133 0.573,-0.12C0.586,-0.106 0.593,-0.089 0.593,-0.07C0.593,-0.051 0.586,-0.034 0.573,-0.021C0.559,-0.007 0.542,0 0.523,0L0.161,0C0.14,0 0.122,-0.008 0.107,-0.023C0.092,-0.038 0.084,-0.056 0.084,-0.077Z" style="fill:rgb(29,29,27);fill-rule:nonzero;"/>
                </g>
                <g transform="matrix(17.626,0,0,17.626,39.4294,0)">
                    <path d="M0.036,-0.066C0.036,-0.075 0.039,-0.086 0.045,-0.099L0.289,-0.65C0.307,-0.691 0.337,-0.711 0.379,-0.711L0.388,-0.711C0.429,-0.711 0.459,-0.691 0.477,-0.65L0.721,-0.099C0.726,-0.087 0.729,-0.077 0.729,-0.068C0.729,-0.047 0.722,-0.03 0.708,-0.016C0.694,-0.001 0.677,0.006 0.656,0.006C0.622,0.006 0.597,-0.012 0.582,-0.047L0.535,-0.157L0.227,-0.157L0.178,-0.042C0.164,-0.01 0.14,0.006 0.107,0.006C0.087,0.006 0.07,-0.001 0.057,-0.015C0.043,-0.029 0.036,-0.046 0.036,-0.066ZM0.284,-0.293L0.478,-0.293L0.381,-0.524L0.284,-0.293Z" style="fill:rgb(29,29,27);fill-rule:nonzero;"/>
                </g>
                <g transform="matrix(17.626,0,0,17.626,52.9309,0)">
                    <path d="M0.084,-0.077L0.084,-0.623C0.084,-0.644 0.092,-0.663 0.107,-0.678C0.122,-0.693 0.14,-0.7 0.161,-0.7L0.409,-0.7C0.49,-0.7 0.551,-0.679 0.592,-0.638C0.624,-0.606 0.64,-0.566 0.64,-0.519L0.64,-0.517C0.64,-0.451 0.609,-0.401 0.548,-0.366C0.591,-0.349 0.624,-0.328 0.646,-0.301C0.668,-0.274 0.679,-0.239 0.679,-0.194L0.679,-0.192C0.679,-0.129 0.656,-0.082 0.609,-0.049C0.562,-0.016 0.498,0 0.417,0L0.161,0C0.14,0 0.122,-0.008 0.107,-0.023C0.092,-0.038 0.084,-0.056 0.084,-0.077ZM0.234,-0.417L0.376,-0.417C0.45,-0.417 0.487,-0.442 0.487,-0.491L0.487,-0.493C0.487,-0.516 0.478,-0.534 0.461,-0.547C0.444,-0.559 0.419,-0.565 0.386,-0.565L0.234,-0.565L0.234,-0.417ZM0.234,-0.135L0.417,-0.135C0.49,-0.135 0.526,-0.16 0.526,-0.211L0.526,-0.213C0.526,-0.264 0.488,-0.289 0.412,-0.289L0.234,-0.289L0.234,-0.135Z" style="fill:rgb(29,29,27);fill-rule:nonzero;"/>
                </g>
                <g transform="matrix(17.626,0,0,17.626,65.6569,0)">
                    <path d="M0.69,-0.093C0.619,-0.023 0.531,0.012 0.424,0.012C0.317,0.012 0.229,-0.023 0.159,-0.093C0.088,-0.162 0.053,-0.247 0.053,-0.348L0.053,-0.35C0.053,-0.451 0.089,-0.536 0.16,-0.607C0.231,-0.677 0.319,-0.712 0.426,-0.712C0.533,-0.712 0.621,-0.677 0.692,-0.608C0.762,-0.538 0.797,-0.453 0.797,-0.352L0.797,-0.35C0.797,-0.249 0.761,-0.164 0.69,-0.093ZM0.274,-0.194C0.314,-0.151 0.365,-0.13 0.426,-0.13C0.487,-0.13 0.538,-0.151 0.577,-0.193C0.616,-0.235 0.636,-0.287 0.636,-0.348L0.636,-0.35C0.636,-0.411 0.616,-0.463 0.576,-0.506C0.536,-0.549 0.485,-0.57 0.424,-0.57C0.363,-0.57 0.312,-0.549 0.273,-0.507C0.234,-0.465 0.214,-0.413 0.214,-0.352L0.214,-0.35C0.214,-0.289 0.234,-0.237 0.274,-0.194Z" style="fill:rgb(29,29,27);fill-rule:nonzero;"/>
                </g>
                <g transform="matrix(17.626,0,0,17.626,80.639,0)">
                    <path d="M0.084,-0.071L0.084,-0.623C0.084,-0.644 0.092,-0.663 0.107,-0.678C0.122,-0.693 0.14,-0.7 0.161,-0.7L0.404,-0.7C0.493,-0.7 0.561,-0.676 0.608,-0.629C0.648,-0.589 0.668,-0.536 0.668,-0.469L0.668,-0.467C0.668,-0.364 0.621,-0.293 0.528,-0.254L0.635,-0.124C0.652,-0.103 0.66,-0.083 0.66,-0.065C0.66,-0.044 0.653,-0.027 0.638,-0.014C0.623,-0.001 0.606,0.006 0.587,0.006C0.557,0.006 0.532,-0.007 0.511,-0.034L0.361,-0.224L0.238,-0.224L0.238,-0.071C0.238,-0.05 0.231,-0.032 0.216,-0.017C0.201,-0.002 0.182,0.006 0.161,0.006C0.14,0.006 0.122,-0.002 0.107,-0.017C0.092,-0.032 0.084,-0.05 0.084,-0.071ZM0.238,-0.36L0.394,-0.36C0.431,-0.36 0.46,-0.369 0.481,-0.387C0.501,-0.405 0.512,-0.429 0.512,-0.459L0.512,-0.461C0.512,-0.494 0.501,-0.519 0.48,-0.536C0.459,-0.553 0.429,-0.561 0.391,-0.561L0.238,-0.561L0.238,-0.36Z" style="fill:rgb(29,29,27);fill-rule:nonzero;"/>
                </g>
            </g>
        </g>
        <g transform="matrix(6.70981,0,0,6.64154,74.0024,25.9203)">
            <path d="M0.036,-0.066C0.036,-0.075 0.039,-0.086 0.045,-0.099L0.289,-0.65C0.307,-0.691 0.337,-0.711 0.379,-0.711L0.388,-0.711C0.429,-0.711 0.459,-0.691 0.477,-0.65L0.721,-0.099C0.726,-0.087 0.729,-0.077 0.729,-0.068C0.729,-0.047 0.722,-0.03 0.708,-0.016C0.694,-0.001 0.677,0.006 0.656,0.006C0.622,0.006 0.597,-0.012 0.582,-0.047L0.535,-0.157L0.227,-0.157L0.178,-0.042C0.164,-0.01 0.14,0.006 0.107,0.006C0.087,0.006 0.07,-0.001 0.057,-0.015C0.043,-0.029 0.036,-0.046 0.036,-0.066ZM0.284,-0.293L0.478,-0.293L0.381,-0.524L0.284,-0.293Z" style="fill:rgb(29,29,27);fill-rule:nonzero;"/>
        </g>
        <g transform="matrix(6.70981,0,0,6.64154,78.639,25.9203)">
            <path d="M0.247,-0.071L0.247,-0.558L0.099,-0.558C0.08,-0.558 0.063,-0.565 0.049,-0.579C0.035,-0.593 0.028,-0.61 0.028,-0.629C0.028,-0.648 0.035,-0.665 0.049,-0.679C0.063,-0.693 0.08,-0.7 0.099,-0.7L0.549,-0.7C0.568,-0.7 0.585,-0.693 0.599,-0.679C0.613,-0.665 0.62,-0.648 0.62,-0.629C0.62,-0.61 0.613,-0.593 0.599,-0.579C0.585,-0.565 0.568,-0.558 0.549,-0.558L0.401,-0.558L0.401,-0.071C0.401,-0.05 0.394,-0.032 0.379,-0.017C0.364,-0.002 0.345,0.006 0.324,0.006C0.303,0.006 0.284,-0.002 0.27,-0.017C0.255,-0.032 0.247,-0.05 0.247,-0.071Z" style="fill:rgb(29,29,27);fill-rule:nonzero;"/>
        </g>
        <g transform="matrix(0.380677,0,0,0.376803,82.7846,25.9203)">
            <g>
                <g transform="matrix(17.626,0,0,17.626,0,0)">
                    <path d="M0.69,-0.093C0.619,-0.023 0.531,0.012 0.424,0.012C0.317,0.012 0.229,-0.023 0.159,-0.093C0.088,-0.162 0.053,-0.247 0.053,-0.348L0.053,-0.35C0.053,-0.451 0.089,-0.536 0.16,-0.607C0.231,-0.677 0.319,-0.712 0.426,-0.712C0.533,-0.712 0.621,-0.677 0.692,-0.608C0.762,-0.538 0.797,-0.453 0.797,-0.352L0.797,-0.35C0.797,-0.249 0.761,-0.164 0.69,-0.093ZM0.274,-0.194C0.314,-0.151 0.365,-0.13 0.426,-0.13C0.487,-0.13 0.538,-0.151 0.577,-0.193C0.616,-0.235 0.636,-0.287 0.636,-0.348L0.636,-0.35C0.636,-0.411 0.616,-0.463 0.576,-0.506C0.536,-0.549 0.485,-0.57 0.424,-0.57C0.363,-0.57 0.312,-0.549 0.273,-0.507C0.234,-0.465 0.214,-0.413 0.214,-0.352L0.214,-0.35C0.214,-0.289 0.234,-0.237 0.274,-0.194Z" style="fill:rgb(29,29,27);fill-rule:nonzero;"/>
                </g>
                <g transform="matrix(17.626,0,0,17.626,14.9821,0)">
                    <path d="M0.084,-0.071L0.084,-0.623C0.084,-0.644 0.092,-0.663 0.107,-0.678C0.122,-0.693 0.14,-0.7 0.161,-0.7L0.404,-0.7C0.493,-0.7 0.561,-0.676 0.608,-0.629C0.648,-0.589 0.668,-0.536 0.668,-0.469L0.668,-0.467C0.668,-0.364 0.621,-0.293 0.528,-0.254L0.635,-0.124C0.652,-0.103 0.66,-0.083 0.66,-0.065C0.66,-0.044 0.653,-0.027 0.638,-0.014C0.623,-0.001 0.606,0.006 0.587,0.006C0.557,0.006 0.532,-0.007 0.511,-0.034L0.361,-0.224L0.238,-0.224L0.238,-0.071C0.238,-0.05 0.231,-0.032 0.216,-0.017C0.201,-0.002 0.182,0.006 0.161,0.006C0.14,0.006 0.122,-0.002 0.107,-0.017C0.092,-0.032 0.084,-0.05 0.084,-0.071ZM0.238,-0.36L0.394,-0.36C0.431,-0.36 0.46,-0.369 0.481,-0.387C0.501,-0.405 0.512,-0.429 0.512,-0.459L0.512,-0.461C0.512,-0.494 0.501,-0.519 0.48,-0.536C0.459,-0.553 0.429,-0.561 0.391,-0.561L0.238,-0.561L0.238,-0.36Z" style="fill:rgb(29,29,27);fill-rule:nonzero;"/>
                </g>
                <g transform="matrix(17.626,0,0,17.626,27.7257,0)">
                    <path d="M0.091,-0.071L0.091,-0.629C0.091,-0.65 0.098,-0.669 0.114,-0.684C0.129,-0.699 0.147,-0.706 0.168,-0.706C0.189,-0.706 0.208,-0.699 0.223,-0.684C0.238,-0.669 0.245,-0.65 0.245,-0.629L0.245,-0.071C0.245,-0.05 0.238,-0.032 0.223,-0.017C0.208,-0.002 0.189,0.006 0.168,0.006C0.147,0.006 0.129,-0.002 0.114,-0.017C0.098,-0.032 0.091,-0.05 0.091,-0.071Z" style="fill:rgb(29,29,27);fill-rule:nonzero;"/>
                </g>
                <g transform="matrix(17.626,0,0,17.626,33.648,0)">
                    <path d="M0.036,-0.066C0.036,-0.075 0.039,-0.086 0.045,-0.099L0.289,-0.65C0.307,-0.691 0.337,-0.711 0.379,-0.711L0.388,-0.711C0.429,-0.711 0.459,-0.691 0.477,-0.65L0.721,-0.099C0.726,-0.087 0.729,-0.077 0.729,-0.068C0.729,-0.047 0.722,-0.03 0.708,-0.016C0.694,-0.001 0.677,0.006 0.656,0.006C0.622,0.006 0.597,-0.012 0.582,-0.047L0.535,-0.157L0.227,-0.157L0.178,-0.042C0.164,-0.01 0.14,0.006 0.107,0.006C0.087,0.006 0.07,-0.001 0.057,-0.015C0.043,-0.029 0.036,-0.046 0.036,-0.066ZM0.284,-0.293L0.478,-0.293L0.381,-0.524L0.284,-0.293Z" style="fill:rgb(29,29,27);fill-rule:nonzero;"/>
                </g>
                <g transform="matrix(17.626,0,0,17.626,47.1496,0)">
                    <path d="M0.084,-0.077L0.084,-0.629C0.084,-0.65 0.092,-0.669 0.107,-0.684C0.122,-0.699 0.14,-0.706 0.161,-0.706C0.182,-0.706 0.201,-0.699 0.216,-0.684C0.231,-0.669 0.238,-0.65 0.238,-0.629L0.238,-0.14L0.523,-0.14C0.542,-0.14 0.559,-0.133 0.573,-0.12C0.586,-0.106 0.593,-0.089 0.593,-0.07C0.593,-0.051 0.586,-0.034 0.573,-0.021C0.559,-0.007 0.542,0 0.523,0L0.161,0C0.14,0 0.122,-0.008 0.107,-0.023C0.092,-0.038 0.084,-0.056 0.084,-0.077Z" style="fill:rgb(29,29,27);fill-rule:nonzero;"/>
                </g>
                <g transform="matrix(17.626,0,0,17.626,63.3478,0)">
                    <path d="M0.084,-0.071L0.084,-0.623C0.084,-0.644 0.092,-0.663 0.107,-0.678C0.122,-0.693 0.14,-0.7 0.161,-0.7L0.37,-0.7C0.453,-0.7 0.518,-0.678 0.566,-0.634C0.614,-0.589 0.638,-0.531 0.638,-0.458L0.638,-0.456C0.638,-0.378 0.611,-0.318 0.558,-0.275C0.505,-0.232 0.437,-0.21 0.355,-0.21L0.238,-0.21L0.238,-0.071C0.238,-0.05 0.231,-0.032 0.216,-0.017C0.201,-0.002 0.182,0.006 0.161,0.006C0.14,0.006 0.122,-0.002 0.107,-0.017C0.092,-0.032 0.084,-0.05 0.084,-0.071ZM0.238,-0.347L0.36,-0.347C0.397,-0.347 0.427,-0.357 0.449,-0.377C0.471,-0.397 0.482,-0.422 0.482,-0.453L0.482,-0.455C0.482,-0.489 0.471,-0.515 0.449,-0.534C0.427,-0.552 0.396,-0.561 0.357,-0.561L0.238,-0.561L0.238,-0.347Z" style="fill:rgb(29,29,27);fill-rule:nonzero;"/>
                </g>
                <g transform="matrix(17.626,0,0,17.626,75.122,0)">
                    <path d="M0.69,-0.093C0.619,-0.023 0.531,0.012 0.424,0.012C0.317,0.012 0.229,-0.023 0.159,-0.093C0.088,-0.162 0.053,-0.247 0.053,-0.348L0.053,-0.35C0.053,-0.451 0.089,-0.536 0.16,-0.607C0.231,-0.677 0.319,-0.712 0.426,-0.712C0.533,-0.712 0.621,-0.677 0.692,-0.608C0.762,-0.538 0.797,-0.453 0.797,-0.352L0.797,-0.35C0.797,-0.249 0.761,-0.164 0.69,-0.093ZM0.274,-0.194C0.314,-0.151 0.365,-0.13 0.426,-0.13C0.487,-0.13 0.538,-0.151 0.577,-0.193C0.616,-0.235 0.636,-0.287 0.636,-0.348L0.636,-0.35C0.636,-0.411 0.616,-0.463 0.576,-0.506C0.536,-0.549 0.485,-0.57 0.424,-0.57C0.363,-0.57 0.312,-0.549 0.273,-0.507C0.234,-0.465 0.214,-0.413 0.214,-0.352L0.214,-0.35C0.214,-0.289 0.234,-0.237 0.274,-0.194Z" style="fill:rgb(29,29,27);fill-rule:nonzero;"/>
                </g>
                <g transform="matrix(17.626,0,0,17.626,90.1041,0)">
                    <path d="M0.084,-0.071L0.084,-0.623C0.084,-0.644 0.092,-0.663 0.107,-0.678C0.122,-0.693 0.14,-0.7 0.161,-0.7L0.404,-0.7C0.493,-0.7 0.561,-0.676 0.608,-0.629C0.648,-0.589 0.668,-0.536 0.668,-0.469L0.668,-0.467C0.668,-0.364 0.621,-0.293 0.528,-0.254L0.635,-0.124C0.652,-0.103 0.66,-0.083 0.66,-0.065C0.66,-0.044 0.653,-0.027 0.638,-0.014C0.623,-0.001 0.606,0.006 0.587,0.006C0.557,0.006 0.532,-0.007 0.511,-0.034L0.361,-0.224L0.238,-0.224L0.238,-0.071C0.238,-0.05 0.231,-0.032 0.216,-0.017C0.201,-0.002 0.182,0.006 0.161,0.006C0.14,0.006 0.122,-0.002 0.107,-0.017C0.092,-0.032 0.084,-0.05 0.084,-0.071ZM0.238,-0.36L0.394,-0.36C0.431,-0.36 0.46,-0.369 0.481,-0.387C0.501,-0.405 0.512,-0.429 0.512,-0.459L0.512,-0.461C0.512,-0.494 0.501,-0.519 0.48,-0.536C0.459,-0.553 0.429,-0.561 0.391,-0.561L0.238,-0.561L0.238,-0.36Z" style="fill:rgb(29,29,27);fill-rule:nonzero;"/>
                </g>
            </g>
        </g>
        <g transform="matrix(0.380677,0,0,0.376803,121.937,25.9203)">
            <g>
                <g transform="matrix(17.626,0,0,17.626,0,0)">
                    <path d="M0.247,-0.071L0.247,-0.558L0.099,-0.558C0.08,-0.558 0.063,-0.565 0.049,-0.579C0.035,-0.593 0.028,-0.61 0.028,-0.629C0.028,-0.648 0.035,-0.665 0.049,-0.679C0.063,-0.693 0.08,-0.7 0.099,-0.7L0.549,-0.7C0.568,-0.7 0.585,-0.693 0.599,-0.679C0.613,-0.665 0.62,-0.648 0.62,-0.629C0.62,-0.61 0.613,-0.593 0.599,-0.579C0.585,-0.565 0.568,-0.558 0.549,-0.558L0.401,-0.558L0.401,-0.071C0.401,-0.05 0.394,-0.032 0.379,-0.017C0.364,-0.002 0.345,0.006 0.324,0.006C0.303,0.006 0.284,-0.002 0.27,-0.017C0.255,-0.032 0.247,-0.05 0.247,-0.071Z" style="fill:rgb(29,29,27);fill-rule:nonzero;"/>
                </g>
                <g transform="matrix(17.626,0,0,17.626,9.941,0)">
                    <path d="M0.036,-0.066C0.036,-0.075 0.039,-0.086 0.045,-0.099L0.289,-0.65C0.307,-0.691 0.337,-0.711 0.379,-0.711L0.388,-0.711C0.429,-0.711 0.459,-0.691 0.477,-0.65L0.721,-0.099C0.726,-0.087 0.729,-0.077 0.729,-0.068C0.729,-0.047 0.722,-0.03 0.708,-0.016C0.694,-0.001 0.677,0.006 0.656,0.006C0.622,0.006 0.597,-0.012 0.582,-0.047L0.535,-0.157L0.227,-0.157L0.178,-0.042C0.164,-0.01 0.14,0.006 0.107,0.006C0.087,0.006 0.07,-0.001 0.057,-0.015C0.043,-0.029 0.036,-0.046 0.036,-0.066ZM0.284,-0.293L0.478,-0.293L0.381,-0.524L0.284,-0.293ZM0.378,-0.759C0.367,-0.759 0.358,-0.761 0.351,-0.766C0.343,-0.771 0.34,-0.777 0.34,-0.785C0.34,-0.792 0.343,-0.801 0.35,-0.812L0.405,-0.898C0.419,-0.921 0.438,-0.932 0.462,-0.932C0.481,-0.932 0.5,-0.927 0.519,-0.918C0.538,-0.908 0.547,-0.897 0.547,-0.886C0.547,-0.874 0.54,-0.862 0.527,-0.85L0.465,-0.792C0.442,-0.77 0.413,-0.759 0.378,-0.759Z" style="fill:rgb(29,29,27);fill-rule:nonzero;"/>
                </g>
            </g>
        </g>
        <g transform="matrix(0.380677,0,0,0.376803,130.419,25.9203)">
            <g>
                <g transform="matrix(17.626,0,0,17.626,0,0)">
                    <path d="M0.247,-0.071L0.247,-0.558L0.099,-0.558C0.08,-0.558 0.063,-0.565 0.049,-0.579C0.035,-0.593 0.028,-0.61 0.028,-0.629C0.028,-0.648 0.035,-0.665 0.049,-0.679C0.063,-0.693 0.08,-0.7 0.099,-0.7L0.549,-0.7C0.568,-0.7 0.585,-0.693 0.599,-0.679C0.613,-0.665 0.62,-0.648 0.62,-0.629C0.62,-0.61 0.613,-0.593 0.599,-0.579C0.585,-0.565 0.568,-0.558 0.549,-0.558L0.401,-0.558L0.401,-0.071C0.401,-0.05 0.394,-0.032 0.379,-0.017C0.364,-0.002 0.345,0.006 0.324,0.006C0.303,0.006 0.284,-0.002 0.27,-0.017C0.255,-0.032 0.247,-0.05 0.247,-0.071Z" style="fill:rgb(29,29,27);fill-rule:nonzero;"/>
                </g>
                <g transform="matrix(17.626,0,0,17.626,11.4216,0)">
                    <path d="M0.091,-0.071L0.091,-0.629C0.091,-0.65 0.098,-0.669 0.114,-0.684C0.129,-0.699 0.147,-0.706 0.168,-0.706C0.189,-0.706 0.208,-0.699 0.223,-0.684C0.238,-0.669 0.245,-0.65 0.245,-0.629L0.245,-0.071C0.245,-0.05 0.238,-0.032 0.223,-0.017C0.208,-0.002 0.189,0.006 0.168,0.006C0.147,0.006 0.129,-0.002 0.114,-0.017C0.098,-0.032 0.091,-0.05 0.091,-0.071Z" style="fill:rgb(29,29,27);fill-rule:nonzero;"/>
                </g>
                <g transform="matrix(17.626,0,0,17.626,17.344,0)">
                    <path d="M0.084,-0.077L0.084,-0.629C0.084,-0.65 0.092,-0.669 0.107,-0.684C0.122,-0.699 0.14,-0.706 0.161,-0.706C0.182,-0.706 0.201,-0.699 0.216,-0.684C0.231,-0.669 0.238,-0.65 0.238,-0.629L0.238,-0.14L0.523,-0.14C0.542,-0.14 0.559,-0.133 0.573,-0.12C0.586,-0.106 0.593,-0.089 0.593,-0.07C0.593,-0.051 0.586,-0.034 0.573,-0.021C0.559,-0.007 0.542,0 0.523,0L0.161,0C0.14,0 0.122,-0.008 0.107,-0.023C0.092,-0.038 0.084,-0.056 0.084,-0.077Z" style="fill:rgb(29,29,27);fill-rule:nonzero;"/>
                </g>
            </g>
        </g>
    </g>
</svg>
