<?xml version="1.0" encoding="UTF-8" standalone="no"?>
<!DOCTYPE svg PUBLIC "-//W3C//DTD SVG 1.1//EN" "http://www.w3.org/Graphics/SVG/1.1/DTD/svg11.dtd">
<svg width="100%" height="100%" viewBox="0 0 55 55" version="1.1" xmlns="http://www.w3.org/2000/svg" xmlns:xlink="http://www.w3.org/1999/xlink" xml:space="preserve" xmlns:serif="http://www.serif.com/" style="fill-rule:evenodd;clip-rule:evenodd;stroke-linejoin:round;stroke-miterlimit:2;">
    <g id="simbolo" transform="matrix(1,0,0,1,-749.4,-513)">
        <path d="M804.18,540.48C804.131,555.472 791.782,567.78 776.79,567.78C761.764,567.78 749.4,555.416 749.4,540.39C749.4,525.364 761.764,513 776.79,513C791.821,513.016 804.18,525.389 804.18,540.42C804.18,540.44 804.18,540.46 804.18,540.48ZM803.98,536.94C803.836,535.784 803.619,534.639 803.33,533.51L793.92,533.51C791.104,533.515 788.79,535.834 788.79,538.65C788.79,538.653 788.79,538.657 788.79,538.66L788.79,542.09C788.79,543.028 788.018,543.8 787.08,543.8C786.142,543.8 785.37,543.028 785.37,542.09L785.37,528.47C785.373,528.394 785.375,528.319 785.375,528.243C785.375,525.424 783.055,523.103 780.235,523.103C777.415,523.103 775.095,525.424 775.095,528.243C775.095,528.319 775.097,528.394 775.1,528.47L775.1,552.39C775.103,552.434 775.105,552.477 775.105,552.521C775.105,553.465 774.329,554.241 773.385,554.241C772.441,554.241 771.665,553.465 771.665,552.521C771.665,552.477 771.667,552.434 771.67,552.39L771.67,538.67C771.673,538.594 771.675,538.519 771.675,538.443C771.675,535.624 769.355,533.303 766.535,533.303C763.715,533.303 761.395,535.624 761.395,538.443C761.395,538.519 761.397,538.594 761.4,538.67L761.4,542.09C761.4,543.03 760.63,543.805 759.69,543.81L749.6,543.81C749.734,544.965 749.941,546.111 750.22,547.24L759.71,547.24C762.52,547.235 764.83,544.92 764.83,542.11C764.83,542.107 764.83,542.103 764.83,542.1L764.83,538.68C764.83,537.742 765.602,536.97 766.54,536.97C767.478,536.97 768.25,537.742 768.25,538.68L768.25,552.39C768.247,552.466 768.245,552.541 768.245,552.617C768.245,555.436 770.565,557.757 773.385,557.757C776.205,557.757 778.525,555.436 778.525,552.617C778.525,552.541 778.523,552.466 778.52,552.39L778.52,528.47C778.52,527.532 779.292,526.76 780.23,526.76C781.168,526.76 781.94,527.532 781.94,528.47L781.94,542.09C781.937,542.166 781.935,542.241 781.935,542.317C781.935,545.136 784.255,547.457 787.075,547.457C789.895,547.457 792.215,545.136 792.215,542.317C792.215,542.241 792.213,542.166 792.21,542.09L792.21,538.67C792.21,537.73 792.98,536.955 793.92,536.95L804,536.95L803.98,536.94Z" style="fill:rgb(29,29,27);fill-rule:nonzero;"/>
    </g>
</svg>
