<?xml version="1.0" encoding="utf-8"?>
<!-- Generator: Adobe Illustrator 23.0.1, SVG Export Plug-In . SVG Version: 6.00 Build 0)  -->
<svg version="1.1" id="Layer_1" xmlns="http://www.w3.org/2000/svg" xmlns:xlink="http://www.w3.org/1999/xlink" x="0px" y="0px"
	 viewBox="0 0 400 400" style="enable-background:new 0 0 400 400;" xml:space="preserve">
<style type="text/css">
	.st0{fill:#FFDD00;}
	.st1{fill:#FFFFFF;}
</style>
<g>
	<path class="st0" d="M217.3,37.9l13.9,4.1c0,0,20.3-1.3,22.3,0c2,1.3,70.3,6,70.3,6L333,57c0,0,12.4,2.9,22,18.1
		c9.6,15.2,13.4,25.3,13.4,25.3l8.1,24.3c0,0,0,41,0,44.8s-11.2,46.9-11.2,46.9l-21,14.7l-19,4L314,216.5l4-23l11.8-10.9l4.7-15.5
		l-4.7-16l-11.8-6.7l-7.2,3.3c0,0-6,6.1-6,8.6c0,2.6,1.3,15.9,1.3,15.9l-9.2,5l-8.6-23.4l-14.9-31.2l-9.3-7.9H235l-44.8-2.6
		l-21.4-12.5l-11.7-26.3v-19l12.3-11.8l8.1-9.2"/>
	<path class="st1" d="M201.4,27c5.1,1.8,10.2,3.4,15.3,5.1c0.8,0.2,1.6,0.7,2.1,1.2c4.8,4.9,10.7,4.8,17,4.7
		c22.4-0.1,44.7-0.1,67.1,0.1c12.4,0.1,24.1,3.6,34.9,9.3c3.9,2,4.9,4.6,3.3,7.7c-1.6,3-4.3,3.7-8.2,1.8c-11.1-5.8-23-8.3-35.5-8.3
		c-24.1,0.1-48.1,0.1-72-0.1c-2.5,0-5.4-1.2-7.4-2.7c-10.2-8.2-21.4-10.7-33.5-5.8c-12.5,4.9-19.7,14.6-21.5,27.8
		c-2.6,19.1,8.6,35.3,26.6,39c3.2,0.6,6.3,0.7,9.6,0.7c17.3,0.1,34.6,0,51.8,0c17.3,0,28.8,8.4,34.3,24.8c4.1,12.4,8.2,24.6,12.4,37
		c0.4,1.2,1.5,2.1,2.3,3.2c0.5-1.3,1.4-2.6,1.5-3.9c0.2-4.6,0-9.2,0.1-13.9c0.1-10,7.2-16,17.2-14.4c11.7,1.9,20,10.3,21.3,22
		c0.8,7.2,1.2,14.7-3.4,20.9c-2.5,3.4-5.8,6.2-9.3,8.5c-4.3,2.9-6.8,6.4-6.7,11.7c0.1,4.8,0,9.5,0.1,14.2c0.2,9,8.2,14.2,16.3,10.5
		c21.3-9.7,32.9-26.3,33.7-49.6c0.7-20.2,0.5-40.5,0.1-60.7c-0.4-16-6-30.2-16-42.7c-0.7-0.9-1.5-1.8-2.2-2.7
		c-2.1-2.7-2-5.5,0.4-7.6c2.5-2.2,5.3-2,7.8,0.7c10.2,11.4,16.8,24.5,19.4,39.6c0.9,5.5,1.4,11.1,1.4,16.6c0.1,18.2,0.4,36.4,0,54.6
		c-0.6,28.6-14.1,49.2-40.1,61.3c-2.6,1.2-5.4,1.8-8.3,2.7c0,0.9,0,2,0,3c0,15.8-0.1,31.5,0.1,47.2c0,1.6,0.8,3.7,2,4.9
		c21.4,22,32.7,48,32.7,78.8c0,3.2,0,6.4,0,9.6c-0.1,4.3-1.9,6.5-5.3,6.5s-5.4-2.2-5.4-6.4c0-11.7,0-23.4-3-34.9
		c-4.6-16.9-13.1-31.6-24.9-44.4c-1.8-1.9-3-2.1-5.4-1.1c-16,6.9-32.5,9-48.9,2.3c-5.4-2.2-8.2-1.3-11.9,2.7
		c-12,12.7-23.5,25.7-32.2,40.9c-6.2,10.7-10.9,21.7-9.7,34.6c0.1,1.9-1.2,4.4-2.7,5.5c-1.2,0.8-4.2,0.7-5.5-0.4
		c-1.4-1.1-2.2-3.5-2.3-5.5c-0.4-8.8-0.4-17.5-0.2-26.3c0.1-13.9-5.1-25.3-16.2-33.4c-8.4-6.1-17.4-11.1-26.4-16.7
		c-8.9,24.8-24.6,36.9-45.7,36.4c-16.6-0.4-37.4-11.1-43.4-36.4c-13.5,8.1-27.7,13.8-36.8,26.6c-0.5,0.7-0.9,1.4-1.4,2
		c-1.9,2.2-4.2,2.6-6.7,0.9c-2.5-1.6-3.7-4-2.1-6.7c2.1-3.4,4.7-6.5,7.1-9.9c-0.5-0.4-1.2-0.7-1.9-1.1
		c-12.1-5.7-18.6-15.3-19.1-28.7c-0.1-2.3-0.2-4.7-0.5-7c0-46.6,0-93.3,0-139.9c0.2-3,0.6-6.1,0.6-9.2c0.1-10.9,1.6-21.5,5.1-31.8
		c12.1-36.2,36-60.8,72.9-71.8c6.3-1.9,13-2.6,19.4-3.7c4.6,0,9,0,13.5,0c0.9,0.2,1.8,0.6,2.7,0.6c11,0.9,21.5,3.6,31.4,8.1
		c3.2,1.4,5.4,1.5,8.2-0.8c5.6-4.6,12.6-6.2,19.5-7.8C194.7,27,198,27,201.4,27z M203.4,118.3c0,14.5,0.1,28.3-0.1,42.2
		c0,2.3-0.7,4.9-1.9,7c-3.4,6.4-6.9,12.6-10.6,18.9c-1.3,2.2-1.1,3.6,1.2,5c2.9,1.9,5.8,3.6,8.4,6c1.4,1.3,2.7,3.4,2.9,5.3
		c0.5,3.7,0.2,7.6,0.1,11.3c-0.2,4.3-2.3,6.1-6.7,5.8c-1.2-0.1-2.3-0.2-3.5,0c-0.7,0.1-1.4,0.8-1.8,1.4c-0.1,0.2,0.6,1.2,1.1,1.6
		c5.3,4.4,5.3,6.2,0.1,10.7c-1.8,1.5-1.3,2.7,0.7,3.4c0.8,0.2,1.9,0.1,2.8,0c4.6-0.6,6,0.5,7.5,4.9c1.3,3.6,2.6,7.5,4.4,10.7
		c3.9,6.7,9.7,10.4,17.9,10.2c5.1-0.1,10.2,0,15.3,0c6.7,0,12.1-2.5,16.8-7.1c3.9-4,7.4-4.8,11.4-2.9c4,1.8,5.6,4.9,5.4,10.2
		c-0.4,9.3-0.6,18.7-1.1,28c-0.1,2.8,0.7,4.2,3.4,5.3c15.1,6,29.7,4.2,44-2.3c0.8-0.4,1.5-2.2,1.5-3.4c0.1-16.5,0.1-32.9,0-49.4
		c0-1.3-1.1-3-2.1-3.9c-6.8-4.8-10.4-11.1-10.4-19.5c0-4.2,0.1-8.5,0-12.7c-0.4-9.9,3.6-17.4,12.4-22.2c5-2.7,7.2-6.9,7.2-12.5
		c0-2.3,0-4.8-0.4-7.1c-0.9-6.1-5.1-10.5-11.2-11.8c-4.3-0.9-5.7,0.1-5.7,4.6c0,4.9,0,9.7,0,14.6c-0.1,7.1-3.9,11.7-10.7,12.8
		c-6.2,1.1-11.4-2.3-13.7-9.1c-4.3-12.7-8.5-25.6-12.7-38.3c-3.9-11.7-11.4-17.3-23.8-17.3c-14.7,0-29.3,0-44,0
		C206.2,118.3,205,118.3,203.4,118.3z M193.7,208c-1.3-2-2-3.6-3.3-4.8c-1.6-1.5-3.6-2.6-5.5-4c-5.7-4.2-7.2-10.6-4-16.9
		c1.3-2.5,2.6-5.1,4.2-7.4c6.3-8.5,8.9-18,7.7-28.6c-0.5-4-0.1-8.1-0.1-12c0-5.3,0-10.6,0-15.8c-5-2-9-1.1-13.3,1.4
		c-17.4,10-36.4,14.1-56.2,15.8c-19.6,1.5-39,0-58.4-2.9c-6.7-1.1-11.1,2.7-11.1,9.5c-0.1,23.5-0.2,46.8,0.1,70.3
		c0.2,15.2,7.4,26.7,20.9,33.7c11,5.7,22.2,11.1,33.4,16.5c8.2,4,17,5.6,25.6,2.7c16.5-5.7,31.6-14.1,46-23.9
		c1.1-0.7,1.5-2.7,1.6-4.1c0.6-6,0.4-11.9,0.4-17.9C181.5,213.1,186.6,209.6,193.7,208z M160.4,45.8c-1.3-0.6-2.3-1.2-3.4-1.5
		c-36.7-14.5-77.7-4-103.3,26c-20.1,23.4-25.6,51-24.5,80.7c0,0.1,0.4,0.2,0,0c4.8-1.1,9.2-2,14-3c0-2-0.1-4.3,0-6.7
		c0.6-12.4,10.4-20.9,22.7-19c19,2.8,38.1,4.7,57.2,2.9c15.9-1.4,31.3-4.8,45.8-11.6c1.2-0.6,2.3-1.3,3.7-2
		C151.2,96.7,145.5,68.6,160.4,45.8z M28.8,193.5c0,0.9,0,2.1,0,3.4c0,12.8,0,25.8,0,38.7c0.1,18.1,0.1,36.2,0.4,54.3
		c0.1,12,8.8,21,20.3,21.3c1.2,0,2.6-0.4,3.6-0.9c6.1-3.4,12.3-6.7,18.1-10.5c6-3.9,11.8-7.8,17.2-12.4c4.7-3.9,7-9.5,7.9-15.5
		c0.4-2.1-0.4-3.2-2.2-4.1c-6.9-3.3-13.8-6.9-20.7-10.2c-20.6-9.7-30.6-25.9-30.2-48.6c0-4.2,0-8.4,0-12.1
		C38,195.6,33.6,194.6,28.8,193.5z M139.9,275.1c-11.3,3.3-22.1,2.8-32.7-1.1c-4.9,14.1-7.4,18.4-15.8,25c-2.1,1.6-2.6,3.3-2.2,5.7
		c2.9,16.7,17.6,29,34.7,28.6c16.2-0.4,30.1-11.9,33-27.8c0.4-1.6,0-4.3-1.2-5.3C147.9,293.7,141.8,285.9,139.9,275.1z M217.3,283.5
		c-0.1,0-0.2,0-0.4,0c0-3,0.1-6.2-0.1-9.2c-0.1-0.9-1.1-2.5-1.9-2.7c-9.8-3.6-15.5-11.1-19.5-20.3c-1.9-4.4-4.7-4.9-8.5-1.9
		c-3.4,2.7-7,5.1-10.9,7.4c-6.4,3.6-13.2,7-19.7,10.4c-7.4,3.9-7.8,4.8-4.1,12.3c1.8,3.4,4.1,6.7,6.9,9.3c3,3,6.8,5.6,10.4,7.9
		c7.6,4.7,15.4,9.1,23.2,13.5c1.1,0.6,2.5,0.8,3.7,0.8c9.2-0.1,17.5-6.4,19.6-15.5C217.2,291.6,217,287.5,217.3,283.5z M206.2,320.3
		c7.5,7,11.9,15.6,14.2,26.2c11.3-19.6,25.6-35.8,41.2-50.9c0.8-0.8,1.3-2.2,1.3-3.4c0.4-7.8,0.6-15.6,0.8-23.5c0-1.2,0-2.5,0-4.7
		c-10.7,10.5-23.5,9-36.2,9c0,5-0.1,9.6,0,14.2C228.3,303,221.1,313.9,206.2,320.3z M42.8,185c0-8.6,0-17,0-25.5
		c-7.5-0.8-11,2.2-11.1,9.3c0,2.2,0,4.4,0,6.8C31.8,182.8,35.2,185.8,42.8,185z"/>
	<path class="st1" d="M334.2,375c0,3.4,0.1,6.9,0,10.3c-0.1,3.2-2.1,5.1-5,5.3c-3,0.1-5.5-1.9-5.5-5.3c-0.1-6,0-11.8-0.1-17.7
		c-0.2-12.8-9.8-23.8-22.1-25.3c-13.5-1.6-25.8,6.3-28.6,19.3c-1.3,6-0.7,12.3-1.1,18.3c-0.1,1.8,0,3.5,0,5.4
		c-0.1,3.2-2.1,5.3-5,5.3c-2.9,0-5.4-1.5-5.4-4.6c0.2-9.3-0.5-18.9,1.5-27.9c3.9-17.7,21.5-28.6,40.1-26.4
		c17.2,2.1,30.8,17.4,31.3,35C334.2,369.6,334.2,372.3,334.2,375L334.2,375z"/>
	<path class="st1" d="M35.6,372.5c0,4.1,0.1,8.3,0,12.4c-0.1,3.7-2.2,5.7-5.5,5.6c-3.2-0.1-5.1-2.2-5.1-6c0-8.2,0.1-16.2,0.4-24.4
		c0.1-3.6,2.6-6,5.7-5.8c3,0.1,4.9,2.3,4.9,6.2c0,4,0,8.1,0,12C35.8,372.5,35.7,372.5,35.6,372.5z"/>
	<path class="st0" d="M160.4,45.8c-14.8,22.8-9.2,50.9,12.3,65.7c-1.4,0.7-2.6,1.4-3.7,2c-14.5,6.8-29.9,10.2-45.8,11.6
		c-19.3,1.8-38.3-0.2-57.2-2.9c-12.3-1.8-22.1,6.7-22.7,19c-0.1,2.3,0,4.7,0,6.7c-4.8,1.1-9.2,2-14,3c0.4,0.2,0,0.1,0,0
		c-1.2-29.7,4.4-57.3,24.5-80.7c25.7-30,66.7-40.4,103.3-26C158.1,44.7,159.1,45.2,160.4,45.8z"/>
	<path class="st0" d="M28.8,193.5c4.8,1.1,9.3,2.1,14.4,3.3c0,3.7,0,7.9,0,12.1c-0.4,22.7,9.8,38.9,30.2,48.6
		c6.9,3.3,13.8,6.9,20.7,10.2c1.9,0.9,2.6,2,2.2,4.1c-0.9,6.1-3.3,11.6-7.9,15.5c-5.4,4.6-11.2,8.5-17.2,12.4
		c-5.8,3.7-12,7.1-18.1,10.5c-1.1,0.6-2.5,0.9-3.6,0.9c-11.4-0.2-20.1-9.1-20.3-21.3c-0.2-18.1-0.4-36.2-0.4-54.3
		c-0.1-12.8,0-25.8,0-38.7C28.8,195.6,28.8,194.3,28.8,193.5z"/>
	<path class="st0" d="M217.3,283.5c-0.4,4-0.2,8.1-1.1,11.9c-2.1,9.1-10.3,15.4-19.6,15.5c-1.3,0-2.7-0.2-3.7-0.8
		c-7.8-4.4-15.6-8.9-23.2-13.5c-3.7-2.3-7.4-4.9-10.4-7.9c-2.7-2.7-5.1-6-6.9-9.3c-3.9-7.5-3.4-8.4,4.1-12.3
		c6.5-3.5,13.3-6.8,19.7-10.4c3.7-2.1,7.4-4.7,10.9-7.4c3.9-3,6.7-2.6,8.5,1.9c4,9.2,9.7,16.7,19.5,20.3c0.8,0.4,1.8,1.8,1.9,2.7
		c0.2,3,0.1,6.2,0.1,9.2C217.2,283.5,217.3,283.5,217.3,283.5z"/>
	<path class="st1" d="M238.3,140.7c11-0.1,20.3,8.5,21.3,19.4c0.4,3.9-1.4,6.4-4.6,6.9c-3.4,0.5-5.6-1.5-6.1-5.7
		c-0.7-5.8-4.9-9.8-10.2-9.9c-5.5-0.1-9.6,3.7-10.5,9.9c-0.6,4.2-2.8,6.2-6.2,5.7c-2.8-0.4-4.4-2.5-4.4-5.8
		C217.4,150.3,227.1,140.8,238.3,140.7z"/>
	<path class="st1" d="M156.6,156.4c11.1,0,20.4,8.9,20.9,20c0.2,3.7-1.5,6-4.8,6.2c-3.3,0.2-5.3-1.5-5.8-5.3
		c-1.1-6.5-5-10.4-10.5-10.3c-5.6,0.1-9.6,4.1-10.4,10.5c-0.5,3.4-2.5,5.3-5.6,5c-3.3-0.2-5.1-2.5-5-6.1
		C135.8,165.5,145.3,156.3,156.6,156.4z"/>
	<path class="st1" d="M90.1,156.4c10.6,0,19.9,8.4,20.9,18.9c0.5,4.3-1.3,7-4.8,7.4c-3.4,0.4-5.4-1.6-5.8-6c-0.7-5.7-5-9.7-10.4-9.7
		s-9.5,3.9-10.4,9.7c-0.2,1.5-0.7,3.7-1.9,4.3c-1.6,0.9-4.2,1.4-5.8,0.8c-1.4-0.6-2.8-2.9-2.9-4.7C68.5,166.2,78.7,156.3,90.1,156.4
		z"/>
	<path class="st1" d="M123.5,235.1c-8.5-0.1-16.1-3-22.4-9c-2.7-2.6-3-5.4-0.9-7.8c2.2-2.6,5.1-2.6,8.1-0.1c9.8,8.2,20.6,8.2,30.5,0
		c2.9-2.5,6-2.3,8.1,0.1c2.1,2.5,1.8,5.3-1.1,7.8C139.6,232,132.2,235,123.5,235.1z"/>
</g>
</svg>
