<?xml version="1.0" encoding="utf-8"?>
<!-- Generator: Adobe Illustrator 23.0.1, SVG Export Plug-In . SVG Version: 6.00 Build 0)  -->
<svg version="1.1" id="Layer_1" xmlns="http://www.w3.org/2000/svg" xmlns:xlink="http://www.w3.org/1999/xlink" x="0px" y="0px"
	 viewBox="0 0 512 512" style="enable-background:new 0 0 512 512;" xml:space="preserve">
<style type="text/css">
	.st0{fill:#FFDD00;}
	.st1{fill:#FFFFFF;}
</style>
<g id="Breastfeeding">
	<g id="Outline">
		<path class="st0" d="M-508.9,22.8c4.4,0,8-3.6,8-8s-3.6-8-8-8s-8,3.6-8,8c0,0.9,0.2,1.8,0.5,2.7
			C-515.4,20.6-512.3,22.8-508.9,22.8z"/>
		<path class="st0" d="M-589.1,224c4.4,0,8-3.6,8-8v-88c0-36.8,18.1-71.2,48.3-92.2c3.6-2.5,4.5-7.5,2-11.1s-7.5-4.5-11.1-2
			c-16.7,11.6-30.5,27-40.1,44.9c-4.9,9.1-8.6,18.7-11.2,28.8c-2.6,10.3-3.9,21-3.9,31.6v88C-597.1,220.4-593.6,224-589.1,224z"/>
		<path class="st0" d="M-477.2,16.3c2.6-0.2,5.4-0.3,8-0.3c61.8,0,112,50.1,112,112l0,0v88c0,4.4,3.6,8,8,8s8-3.6,8-8v-88
			C-341.1,57.4-398.4,0.1-469,0c-0.1,0-0.1,0-0.2,0c-3,0-6.1,0.1-9.1,0.3c-4.4,0.3-7.7,4.1-7.4,8.5
			C-485.4,13.3-481.6,16.6-477.2,16.3z"/>
		<circle class="st0" cx="-429.1" cy="168" r="8"/>
		<ellipse transform="matrix(0.9239 -0.3827 0.3827 0.9239 -103.0437 -182.0358)" class="st0" cx="-509.1" cy="168" rx="8" ry="8"/>
		<path class="st0" d="M-320.3,342.3l-44.8-96c0-0.1-0.1-0.1-0.1-0.2c-6.7-13.6-20.6-22.2-35.8-22.1h-28.2c-4.4,0-8-3.6-8-8
			s3.6-8,8-8h8c17.7,0,32-14.3,32-32v-56c0-4.4-3.6-8-8-8c-57.3,0-93.7-21.2-104-28.1V48c0-4.4-3.6-8-8-8s-8,3.6-8,8v37.5
			c-5.2,7.3-17.1,22.1-27.6,27.3c-2.7,1.4-4.4,4.1-4.4,7.2v56c0,17.7,14.3,32,32,32h8c4.4,0,8,3.6,8,8s-3.6,8-8,8h-28.2
			c-0.9,0-1.8,0-2.6,0.1c-1.4-0.2-2.8,0-4.2,0.5c-12.5,2.1-23.3,10.1-29,21.5c-0.1,0.1-0.1,0.2-0.2,0.4l-29.8,68.2
			c-1.2,1.3-1.9,2.9-2,4.6l-23.4,53.5c-0.4,1-0.7,2.1-0.7,3.2v24c0,22.1,17.9,40,40,40h0.4c-4.1,35.1,21,66.9,56.1,71
			c19.4,2.3,38.8-4.5,52.7-18.3l15-15c3.1-3.1,3.1-8.2,0-11.3s-8.2-3.1-11.3,0l-15,15c-18.7,18.7-49.1,18.8-67.9,0
			c-10.9-10.9-15.9-26.2-13.5-41.4h59.4c19.9,0,36-16.1,36-36s-16.1-36-36-36h-0.4l10.9-10.9c5.8-5.9,13.1-10.1,21-12.3
			c0.3-0.1,0.5-0.1,0.8-0.2c4-1,8-1.5,12.1-1.5c12.7,0,25,5,33.9,14.1c10.9,10.9,15.9,26.4,13.4,41.6c-0.7,4.4,2.3,8.5,6.6,9.2
			c4.4,0.7,8.5-2.3,9.2-6.6l0,0c0.2-1.1,0.3-2.2,0.4-3.3c8.4-3.3,15.9-8.4,22.2-14.8c24.6-25.4,24.6-66.6,0-92
			c-23.8-24.8-63.2-25.7-88-1.9c-0.6,0.6-1.3,1.2-1.9,1.9c-10.5,10.8-16.9,24.9-18.2,39.9c-8.6,3.2-16.4,8.2-22.9,14.7l-22.2,22.2
			H-561l19.2-44.8c1.7-4.1-0.3-8.8-4.3-10.4c-4-1.7-8.6,0.2-10.4,4.1l-3.9,9.2l-25.7-10.3l27.4-62.7c2.3-4.5,5.9-8.1,10.3-10.4
			c4.7,37.6,32.4,65.7,33.7,67c3.1,3.1,8.2,3.1,11.3,0s3.1-8.2,0-11.3c-0.3-0.3-25.4-25.8-29.2-58.3h23.5c13.3,0,24-10.7,24-24
			s-10.7-24-24-24h-8c-8.8,0-16-7.2-16-16v-51.4c10.6-6.8,20.3-18.3,25.9-25.6c14,8.9,49,27.1,102.1,28.8v48c0,8.8-7.2,16-16,16h-8
			c-13.3,0-24,10.7-24,24s10.7,24,24,24h28.2c9.1,0,17.4,5.1,21.4,13.2l44.7,95.9c5.1,10.9,3.6,23.8-3.8,33.3l-41.2,52.4
			c-12.8,16.3-35.5,21.1-53.8,11.3l13.4-17.2c2.7-3.5,2.1-8.5-1.4-11.2s-8.5-2.1-11.2,1.4l0,0l-18.7,24c-2.7,3.5-2.1,8.4,1.3,11.2
			c10.4,8.3,23.3,12.9,36.6,12.9c2.3,0,4.6-0.1,6.9-0.4c6.1-0.7,12-2.3,17.5-4.8v42c0,4.4,3.6,8,8,8s8-3.6,8-8v-48
			c0-1.4-0.4-2.7-1-3.9c2.5-2.3,4.9-4.8,7-7.4l41.2-52.4C-314.8,378.1-312.6,358.7-320.3,342.3z M-461.4,302.3
			c17.6-18.5,46.9-19.2,65.4-1.5c0.5,0.5,1,1,1.5,1.5c18.6,19.5,18.6,50.2,0,69.7c-3.3,3.4-7,6.2-11.2,8.5
			c-5.4-33-35.5-56.3-68.8-53.2C-472.6,317.9-468.1,309.2-461.4,302.3z M-566.8,340.8l-11.7,27.2h-10.7c-4.4,0-8,3.6-8,8s3.6,8,8,8
			h16l0,0l0,0h60c11,0,20,9,20,20s-9,20-20,20h-76c-13.2,0-24-10.8-24-24v-22.3l20.6-47.2L-566.8,340.8z"/>
	</g>
</g>
<path class="st1" d="M463.6,230.5c0,3.2,0,6.5,0,9.7c-1.3,8.5-3.7,16.9-3.9,25.4c-0.6,22.3-0.1,44.6-0.2,66.9
	c-0.1,22.4-5.9,43.3-17.5,62.4c-3.8,6.3-8.5,12.1-13,18c-2.5,3.3-6.1,3.6-8.8,1.4c-2.9-2.4-3.1-5.8-0.3-9.2c0.7-0.8,1.4-1.6,2.1-2.5
	c14.1-17.3,23.1-36.9,24.6-59.2c1.2-17.6,0.6-35.3,0.8-53c0-0.1-0.4-0.3-0.5-0.4c-11.5,19.5-27.5,33.4-49.7,39.5
	c-0.9,0.3-1.9,2-2.1,3.1c-0.7,3.7-0.7,7.5-1.6,11.2c-6.8,29.6-32.2,50-62.6,50.1c-33.8,0.1-67.5,0-101.3,0c-6,0-11.9,0.7-16.9,4.5
	c-8.2,6.1-11.6,17.9-8.2,28.5c3.2,10.1,11.5,16.2,22.6,16.2c37.3,0.1,74.6,0.1,111.8-0.1c6,0,12.1-0.9,18.1-2
	c14.4-2.5,27.6-8.1,39.9-16c1.8-1.1,4.6-2.1,6.2-1.4c1.9,0.7,4,3.3,4.1,5.2c0.2,1.9-1.5,4.6-3.2,5.8c-10.4,7.2-21.7,12.6-34,15.7
	c-7.9,2-16.1,3.3-24.1,4.9c-61.1,0-122.2,0-183.2,0c-0.9-0.2-1.8-0.6-2.7-0.7c-53.6-5.5-96.8-43.9-108.5-96.6
	c-1.4-6.4-2.1-13-3.1-19.5c0-52.2,0-104.3,0-156.5c0.2-0.9,0.6-1.8,0.7-2.7c1.2-13.4,5.4-25.8,12.2-37.4
	c6.3-10.7,14.5-19.8,24.6-27.1c3.2-2.3,6.3-1.9,8.6,0.9c2.2,2.8,1.8,6-1,8.6c-0.6,0.5-1.3,1-1.9,1.5c-17.8,14.2-28.7,32.4-30.1,55.2
	c-1.1,18.6-0.5,37.3-0.6,55.9c0,0.2,0.2,0.5,0.4,1c17.1,0,34.3,0,51.9,0c0-1.7,0-3.2,0-4.6c0-10.7,0-21.4,0-32
	c0-3.7,2.3-5.9,5.7-6.1c3.5-0.2,6.1,2.1,6.4,5.9c0.1,1.2,0,2.4,0,3.6c0,30,0,60,0,90c0,1.4,0.1,2.8,0.2,5
	c4.7-6.2,8.8-11.8,13.1-17.2c8.8-10.9,18.5-20.7,30.6-28.1c20.7-12.6,53.8-4.1,60.8,25.9c3.6,15.2,2.4,30.3-0.5,45.4
	c-1.2,6.3-2.8,12.4-4.2,18.8c11.2-0.9,30.6-6.2,35.9-9.9c-1.3-0.3-2.5-0.6-3.6-1c-14.7-4.2-22.1-15.6-19.4-30.3
	c1.1-6.4,2-12.8,3.7-19.1c1.9-7,1.7-13.1-4.3-18.1c-1.2-1-2-2.6-2.9-3.9c-27.5-38.2-41.2-81.6-47.7-127.6
	c-1.1-8.3-1.8-16.6-2.7-25.4c-20.5,1-40.9-1.7-61.2,2c-4.6,0.8-7.5-0.9-8.2-4.8c-0.6-3.7,1.4-6.2,5.9-7.1c3.4-0.7,6.9-1.4,10.4-1.5
	c19.2-0.3,38.4-0.5,57.5-0.6C200.3,97,207,90.3,207,78.6c0-10.1,0.1-20.3,0-30.4c-0.1-3.6,1.1-6.3,4.2-8c1.4,0,2.7,0,4.1,0
	c1.3,2.3,3.7,4.6,3.8,7c0.4,11.3,0.5,22.7,0,34c-0.6,12.6-7.1,21.5-18.9,26.3c-1.1,0.4-2.2,0.9-3.6,1.4c0.6,6.7,1.2,13.2,1.8,19.9
	c3.8,0,7,0.3,10.2,0c13.5-1.4,21.5,6.1,27.5,16.8c1.8,3.1,0.8,5.8-1.9,7.8c-2.8,2-5.6,1.8-7.9-1c-1.8-2.2-3.2-4.7-5.1-6.8
	c-1.5-1.6-3.4-3.7-5.4-3.9c-5-0.5-10.1-0.2-15.1-0.2c-0.4,27.1,28.3,99.6,45.9,115.5c2.2-11.5,4.2-22.9,6.6-34.2
	c2.4-11.4,11.6-17.5,22.8-15.3c11.6,2.3,17.8,11.1,15.8,22.8c-0.2,1.5-0.4,2.9-0.7,4.4c-2.8,17.2-5.6,34.4-8.4,52.1
	c10.6-0.5,21-0.9,31.2-1.4c0.1-0.6,0.2-0.7,0.2-0.8c-0.4-1.2-0.8-2.3-1.1-3.4c-5.4-16.5-5.2-33,1.1-49.2c3.3-8.4,6.6-16.8,10.5-25
	c13.3-28.2,35.7-42.7,66.9-43.6c1.5,0,3.4-0.8,4.5-1.9c10.8-11.2,26.3-12.3,40-6c1.7,0.8,3.5,3.5,3.4,5.3c-0.1,2-2,4-3.5,5.7
	c-1.4,1.5-3.7,2.3-4.9,4c-0.7,1.1-0.7,3.8,0.1,4.6c5.2,4.8,10.7,9.3,16.5,14.3c-0.5-4.7-0.7-9-1.5-13.1
	c-7.5-40.2-39.4-66.7-80.2-66.8c-16.4,0-32.7,0.1-49.1,0c-16.8-0.2-29-12.6-29.2-29.4c-0.1-10.5,0.1-21.1-0.1-31.6
	c-0.1-3.6,1.1-6.2,4.1-8.1c1.4,0,2.7,0,4.1,0c3.2,2,4.2,4.8,4.1,8.5c-0.2,9.9-0.1,19.7-0.1,29.6c0,12.2,6.6,18.8,18.7,18.8
	c16.7,0,33.5,0,50.2,0.1c40.7,0.3,75.8,26.8,87.2,65.5c3.8,12.9,4.1,26.1,3.5,39.3C458.9,211.8,462.3,221,463.6,230.5z M144.8,331.5
	c5.3-6.8,10.3-13.2,15.4-19.7c2.1-2.7,4.7-3.5,7.8-1.8c3,1.6,4,4.6,2.6,8c-0.3,0.7-0.7,1.4-1.1,2.2c-6.7,14.4-10.8,29.4-11.1,45.3
	c-0.4,25,8.9,45.5,28.9,60.8c1.1,0.8,2.3,1.5,3.3,2.2c0-5.7-0.8-11.1,0.1-16.2c3.3-18.4,18.5-30.6,37.8-30.7
	c33.9-0.1,67.8,0,101.7,0c18,0,32.4-7.5,42.9-22c6.2-8.6,9.5-18.3,9.3-28.8c-0.5-0.3-0.6-0.5-0.7-0.5c-1.1-0.1-2.2-0.2-3.2-0.2
	c-23-1.5-41.7-11.2-55.5-29.8c-1.9-2.6-3.7-3.3-6.7-3.1c-10.7,0.6-21.3,1.2-32,1.6c-9,0.3-15-6.8-13.5-15.6
	c0.9-5.5,1.8-10.9,2.7-16.4c1-6.1,1.9-12.2,2.9-18.6c-5.3-0.9-10.2-1.7-15.3-2.5c-3.7,20.5-7.5,40.4-11,60.3
	c-1.5,8.7,1.9,13.5,10.6,15.6c15.3,3.7,30.7,7.3,46.1,11c4.3,1,5.8,3.5,5,7.3c-0.8,3.6-3.5,5.3-7.7,4.4c-6.2-1.3-12.4-2.7-18.5-4.4
	c-3.1-0.9-5.6-0.5-8.4,1.1c-18.5,10-38.5,14.6-59.1,17c-5.1,0.6-7.9-2.5-7.3-7.5c0.2-1.3,0.7-2.6,1-3.9c2.4-10.5,5.3-20.9,7.1-31.5
	c2.1-11.9,2.2-24-1.9-35.6c-5.3-14.8-22.3-22.7-36.7-16.5c-5.8,2.5-11.3,6.4-16.2,10.5c-13,11-22.8,24.8-32.1,39
	c-1.6,2.4-3.1,4.9-4.7,7.6C133.3,323.7,138.7,327.4,144.8,331.5z M388.4,175.4c-0.9,0-1.6,0-2.2,0c-0.8,0-1.6,0-2.4,0.1
	c-21.8,3.2-37.8,14.5-47.3,34.4c-4.1,8.6-7.6,17.6-11.2,26.5c-3.8,9.5-4.8,19.5-3.3,29.5c3.8,26.7,24.8,47.8,50.7,51.3
	c27.4,3.8,53.1-10.4,64.2-35.7c3.3-7.5,6.5-15.1,9.6-22.7c5.3-12.9,6.3-26.2,2.4-39.6c-3-10.4-8.2-19.5-16.2-27
	c-8.5,9.9-16.9,12.8-26.9,9.6C394.9,198.1,389.4,189.9,388.4,175.4z M189.6,442.7c-0.3-0.4-0.4-0.7-0.6-0.8
	c-20.8-12.1-34.2-29.7-40.2-53c-0.2-1-0.9-2.1-1.7-2.6c-8.5-4.7-15.7-10.9-21.5-18.6c-11,6.4-17.5,7.1-30-5.1
	c-7.3-7.1-12.8-15.7-16.4-25.3c-1.8-4.7-3.5-9.8,0.5-14.1c4.2-4.5,9.6-2.8,14.4-0.9c4.6,1.8,9,4.2,13.8,6.6c2.5-4.9,5.6-9,5.5-15.2
	c-0.4-19.4-0.1-38.9-0.1-58.3c0-1.6,0-3.2,0-5c-17.7,0-34.9,0-52.2,0c-0.1,0.8-0.3,1.3-0.3,1.8c0,27.8-1,55.7,0.3,83.5
	c2,42.8,22.9,74.5,60.5,95C142.8,442.2,165.8,444.2,189.6,442.7z M92.2,334.5c-0.3,0.3-0.5,0.6-0.8,0.9c4.3,8.6,9.4,16.7,17.4,22.4
	c1.7,1.2,4.9,2,6.5,1.2c8.3-4.3,14.8-11,21.1-18.3c-4.6-3.1-8.8-6-13.1-8.9c-0.7-0.4-1.4-0.8-2.3-1.4c-1.8,3.2-3.4,6.3-5.1,9.3
	c-2.8,4.9-5.8,5.6-10.6,2.6C101,339.6,96.6,337.1,92.2,334.5z M419.7,163.7c-7.9,0-13.7,3.1-17.1,9c-2.6,4.5-2.1,10.3,1.3,13.9
	c3.9,4.1,9.9,5.3,14.4,2.9c3.4-1.9,4.9-4.7,3.1-7C416.9,176.7,416.2,170.6,419.7,163.7z M263.7,233.4c5.3,0.9,10,1.8,14.9,2.6
	c0.5-3.2,1.1-5.9,1.4-8.7c0.4-4.1-2.6-7.6-6.7-8.3c-4.2-0.6-6.9,1.2-8,5.5C264.7,227.3,264.3,230.1,263.7,233.4z M147.6,346.9
	c-4.2,4.4-8.3,8.7-12.8,13.5c3.7,3.4,7.3,6.8,11.1,10.2C146.5,362.6,147,355,147.6,346.9z"/>
<path class="st0" d="M188.7,431.5L188,431c-0.9-0.6-2-1.2-3-2c-20.6-15.7-30.8-37.3-30.4-64c0.2-15.4,3.9-30.7,11.5-46.9
	c0.2-0.5,0.4-0.9,0.6-1.2c0.2-0.3,0.3-0.6,0.4-0.7l0-0.1c0.7-1.7,0.2-2.4-0.9-3c-0.4-0.2-0.8-0.4-1.1-0.4c-0.6,0-1.2,0.7-1.5,1.1
	c-3.5,4.6-7,9-10.4,13.4c-1.7,2.2-7.5,9.6-7.5,9.6l-3.1-2.1c-2.3-1.6-4.5-3.1-6.7-4.6c-3.5-2.4-7-4.8-10.6-7.2l-3.1-2.2l2-3.2
	l1.3-2.1c1.2-1.9,2.2-3.7,3.4-5.5c10.5-16.1,20.2-29,32.9-39.9c6.2-5.2,11.8-8.8,17.2-11.1c3.8-1.6,7.8-2.4,11.9-2.4
	c13.3,0,25.7,8.7,30.2,21.3c4,11.1,4.6,23.1,2.1,37.7c-1.3,7.5-3.1,14.9-4.8,22c-0.8,3.2-1.6,6.4-2.3,9.7c-0.1,0.6-0.3,1.2-0.5,1.8
	c-0.2,0.6-0.4,1.3-0.5,1.8c-0.1,1.2,0,2.1,0.4,2.5c0.4,0.4,1.2,0.5,1.7,0.5c0.2,0,0.5,0,0.8,0c23.6-2.8,42-8,57.7-16.5
	c2.5-1.4,4.9-2,7.3-2c1.3,0,2.6,0.2,4,0.5c4.9,1.4,9.9,2.5,14.8,3.6c1.2,0.3,2.4,0.5,3.6,0.8c0.4,0.1,0.8,0.1,1.2,0.1
	c0.9,0,1.4-0.1,1.7-1.5c0.3-1.3,0.4-2-2-2.5c-8.5-2-16.9-4.1-25.4-6.1c-6.9-1.6-13.8-3.3-20.7-4.9c-10.9-2.6-15.5-9.4-13.6-20.2
	c3.3-18.8,6.7-37.4,10.4-57l1.3-7.2l3.8,0.6c5.2,0.8,10.1,1.6,15.3,2.5l3.9,0.7l-0.6,3.9c-0.4,2.2-0.7,4.5-1,6.6
	c-0.6,4-1.2,8-1.9,12c-0.5,2.8-2.2,13.7-2.7,16.4c-0.5,3,0.1,5.8,1.9,7.9c1.7,2,4.2,3.1,7.1,3.1c0.1,0,0.3,0,0.4,0
	c11.7-0.3,23.2-1,31.9-1.6c0.4,0,0.7,0,1.1,0c3.8,0,6.6,1.5,9,4.7c12.7,17.3,30.4,26.8,52.6,28.2l0.1,0c1.1,0.1,2,0.2,2.8,0.2
	c1.5,0,2.4,0.7,3,1.2l1.7,1.4l0,1.9c0.2,11.2-3.2,21.7-10.1,31.2c-11.4,15.7-26.9,23.7-46.1,23.7c-11.3,0-22.6,0-33.9,0
	c-11.3,0-22.6,0-33.9,0c-11.3,0-22.6,0-33.9,0c-17.2,0-30.9,11-33.9,27.4c-0.5,3-0.4,6.3-0.2,9.7c0.1,1.8,0.2,3.7,0.2,5.7v7.3
	L188.7,431.5z"/>
<path class="st0" d="M113.7,363.3c-2.4,0-5.2-0.9-7.2-2.3c-9.2-6.4-14.6-15.7-18.7-23.9l-1.3-2.6l2-2c0.1-0.1,0.3-0.2,0.4-0.4
	l2.1-3.1l3.2,2c1.2,0.7,2.4,1.4,3.7,2.1c3.1,1.8,6.4,3.7,9.5,5.7c1.7,1.1,2.6,1.2,2.8,1.2c0.8,0,1.7-1.6,2.1-2.3
	c1.7-3,3.4-6.1,5.1-9.2l2-3.7l3.6,2.2c0.3,0.2,0.6,0.3,0.8,0.5c0.6,0.3,1.2,0.7,1.8,1.2c1.9,1.3,3.8,2.6,5.7,3.9
	c2.4,1.6,4.8,3.2,7.3,5l3.6,2.5l-2.9,3.4c-5.9,6.8-12.9,14.4-22.3,19.2C116.1,363.1,114.9,363.3,113.7,363.3z"/>
<path class="st0" d="M419.7,163.7c-3.5,6.9-2.8,13,1.7,18.9c1.8,2.3,0.3,5.1-3.1,7c-4.5,2.4-10.5,1.2-14.4-2.9
	c-3.4-3.6-3.9-9.4-1.3-13.9C406,166.8,411.8,163.6,419.7,163.7z"/>
<path class="st0" d="M278,240c-1.7-0.3-3.3-0.6-5-0.9c-3.2-0.6-6.5-1.2-10-1.8l-4-0.7l0.7-4c0.2-0.9,0.3-1.7,0.4-2.5
	c0.4-2.3,0.8-4.5,1.3-6.6c1.4-5.5,5.1-8.6,10.2-8.6c0.7,0,1.5,0.1,2.3,0.2c6.3,0.9,10.6,6.4,10,12.6c-0.2,2-0.6,3.9-0.9,6
	c-0.2,1-0.3,2-0.5,3l-0.6,4L278,240z"/>
<path class="st1" d="M327.4,140.8c-9.5,0-18.9,0.1-28.4,0c-4.9-0.1-8.6,1.7-11.2,5.9c-1.2,2-2.5,3.8-4.1,5.5c-2.4,2.6-5.9,3-8.3,0.9
	c-2.6-2.3-3-5-1.3-8c6.2-10.9,14.6-17.2,28.1-16.6c17.9,0.8,35.9,0.2,53.9,0.3c2.2,0,5,0.4,6.3,1.8c1.3,1.5,1.7,4.4,1.3,6.6
	c-0.5,2.9-3.2,3.7-6,3.7C347.7,140.8,337.6,140.8,327.4,140.8L327.4,140.8z"/>
<path class="st1" d="M375.1,279.5c-8.3-0.3-14.1-3.9-17.7-10.9c-1.7-3.3-0.9-6.2,2-8.1c3-1.9,6.6-1.3,8.3,2c2.7,5.4,8.8,5.4,11.6,3
	c2.7-2.4,3.3-5.3,2.1-8.4c-1.2-3.2-4-4.6-7.4-4.4c-0.3,0-0.5,0.1-0.8,0.2c-6.1,1.2-8.9,0-9.8-4.3c-0.8-4,1.9-6.7,7.9-7.7
	c7.9-1.3,14.4,1.3,19.2,7.7c4.6,6.2,5.1,13,1.7,19.9C388.6,275.6,382.5,279.1,375.1,279.5z"/>
</svg>
