<?xml version="1.0" encoding="utf-8"?>
<!-- Generator: Adobe Illustrator 23.0.1, SVG Export Plug-In . SVG Version: 6.00 Build 0)  -->
<svg version="1.1" id="Layer_1" xmlns="http://www.w3.org/2000/svg" xmlns:xlink="http://www.w3.org/1999/xlink" x="0px" y="0px"
	 viewBox="0 0 512 512" style="enable-background:new 0 0 512 512;" xml:space="preserve">
<style type="text/css">
	.st0{fill:#FFFFFF;}
	.st1{fill:#FFDD00;}
</style>
<g>
	<path class="st0" d="M469.3,404.5l-57.1-57.1c-6.3-6.3-15.8,3.2-9.5,9.5c59.1,58.1,56.6,59.1,61.9,59.1c3.7,0,6.7-3,6.7-6.7
		C471.3,407.4,470.6,405.7,469.3,404.5L469.3,404.5z"/>
	<path class="st1" d="M127.1,214.4l-19-19c-5.2-5.3-5.2-13.8,0-19c5.3-5.2,13.8-5.2,19,0c6.3,6.3,15.8-3.2,9.5-9.5L120,150.2
		c-8.6-8.6-2.2-22.9,9.5-23c8.8,0,12.1,7.7,19.5,13.9c6.6,5.4,15-3.9,9-9.9c-8.6-8.6-2.2-22.9,9.5-23c4.5,0,6,0,17.3,11.4
		c6.3,6.3,15.8-3.2,9.5-9.5c-11.9-11.9-16.8-15.4-26.9-15.4c-13.2,0-23.7,9.1-26.4,21.7c-26.8-13.3-52.1,21.9-30.7,43.3l0.2,0.2
		c-19.7,5.3-26.8,30.3-12.1,45l2.5,2.5c-19.2,5-27.2,29.9-12,45l15.2,15.2c6.2,6.2,15.9-3.1,9.5-9.5l-15.2-15.2
		c-12.5-12.5,6.5-31.6,19-19C123.9,230.2,133.4,220.7,127.1,214.4z"/>
	<path class="st0" d="M321.3,427.6c-6.3-6.3-15.8,3.2-9.5,9.5c32.7,31.7,31.7,33.9,36.7,33.9c3.7,0,6.7-3,6.7-6.7
		c0-1.8-0.7-3.5-2-4.7L321.3,427.6z"/>
	<path class="st0" d="M416.2,313c15.2-15.2,7.1-40-12-45l2.5-2.5c14.6-14.6,7.9-39.7-12.1-45l0.2-0.2c21.3-21.3-3.8-56.6-30.7-43.3
		c-2.6-12.6-13.2-21.6-26.4-21.6c-17.8,0-15.9,6.8-95.5,84.7c1.2-13.7,1.5-31.2-3-41.5c-6-13.6-16.4-31.3-38.2-27.7
		c-3.2,0.5-5.6,3.3-5.6,6.6v27.1c-29,64.5-55.9,100.2-48.1,149l-25.7,26.1c-2.6,2.7-2.6,6.9,0.1,9.5c1.3,1.2,2.9,1.9,4.7,1.9
		c5,0,4.3-2.6,33-30.7c5.4-5.4-3-7.8,1.9-41.8C166.1,286,209,215.2,209,206v-22c6.1,0.9,11.9,5.8,18.1,20
		c4.9,11.2,1.8,38.9-0.1,51.1l-12.7,12.7c-6.3,6.3,3.2,15.8,9.5,9.5c111.4-111.4,106-108.5,114.1-108.5c11.7,0,18.1,14.3,9.5,23
		L264.2,275c-6.3,6.3,3.2,15.8,9.5,9.5c100.8-100.5,94.4-96.6,102.2-96.6c11.7,0,18.1,14.4,9.5,23c-47.5,47.6-74.3,74.3-92.7,92.7
		c-2.6,2.6-2.6,6.9,0,9.5c0.8,0.8,1.8,1.4,2.8,1.7c5.1,1.5-0.6,5.6,82.8-77.8c5.3-5.2,13.8-5,19,0.3c5.1,5.3,5.1,13.6-0.1,18.8
		c-24.2,24.2-51.9,51.9-76.1,76.1c-6.3,6.3,3.2,15.8,9.5,9.5c0.1-0.1,60.2-60.2,57-57c12.7-12.7,31.4,6.6,19,19l-80.8,80.8
		c-30.3,30.3-87.3,49.3-90.3,52.3l-24.6,24.6c-2.6,2.6-2.6,6.9,0,9.5c1.3,1.3,3,2,4.7,2c4.9,0,4.7-2.8,28.4-25.6
		c12.1-4.5,64.8-26.8,91.3-53.3L416.2,313z M238.3,434.9c0.2-0.1,0.4-0.1,0.6-0.2C238.8,434.8,238.6,434.8,238.3,434.9z"/>
	<path class="st0" d="M84,418l-41.2,41.8c-2.6,2.7-2.6,6.9,0.1,9.5c1.3,1.2,2.9,1.9,4.7,1.9c5.3,0,4.7-2.9,46-43.8
		c2.6-2.6,2.6-6.9-0.1-9.5C90.9,415.3,86.6,415.4,84,418z"/>
	<path class="st1" d="M252.7,101.5c16.7,0,30.3-13.5,30.3-30.3S269.4,41,252.7,41s-30.3,13.5-30.3,30.3
		C222.4,88,235.9,101.5,252.7,101.5z M252.7,54.4c9.3,0,16.8,7.5,16.8,16.8S262,88,252.7,88s-16.8-7.5-16.8-16.8
		C235.9,62,243.4,54.5,252.7,54.4z"/>
	<path class="st1" d="M71.1,101.5c16.7,0,30.3-13.5,30.3-30.3S87.8,41,71.1,41S40.9,54.5,40.9,71.3C40.9,88,54.4,101.5,71.1,101.5z
		 M71.1,54.4c9.3,0,16.8,7.5,16.8,16.8S80.4,88,71.1,88s-16.8-7.5-16.8-16.8C54.3,62,61.9,54.5,71.1,54.4z"/>
	<path class="st0" d="M141.7,81.3c11.1,0,20.2-9,20.2-20.2s-9-20.2-20.2-20.2c-11.1,0-20.2,9-20.2,20.2
		C121.6,72.3,130.6,81.3,141.7,81.3z M148.4,61.2c0,8.9-13.4,8.9-13.4,0S148.4,52.3,148.4,61.2z"/>
	<path class="st0" d="M61,168.7c11.1,0,20.2-9,20.2-20.2c0-11.1-9-20.2-20.2-20.2s-20.2,9-20.2,20.2C40.9,159.7,49.9,168.7,61,168.7
		z M61,141.8c8.9,0,8.9,13.4,0,13.4S52.2,141.8,61,141.8z"/>
	<path class="st0" d="M440.9,101.5c16.7,0,30.3-13.5,30.3-30.3S457.6,41,440.9,41s-30.3,13.5-30.3,30.3
		C410.7,88,424.2,101.5,440.9,101.5z M440.9,54.4c9.3,0,16.8,7.5,16.8,16.8S450.2,88,440.9,88s-16.8-7.5-16.8-16.8
		C424.1,62,431.6,54.5,440.9,54.4z"/>
	<path class="st1" d="M156.4,192.9c-23.8,10.5-34.6,38.3-24.1,62.1c0.5,1,1,2.1,1.5,3.1c-14.5,15.9-16.3,39.7-4.4,57.7
		c4.9,7.3,16.2,0,11.2-7.4c-9.4-14.1-6.7-33,6.1-44.1c2.6-2.3,3.1-6.1,1.1-9c-10.7-15.2-7-36.2,8.2-46.8c1.7-1.2,3.4-2.2,5.3-3
		c2.9,5.1,6.3,10.3,10.8,10.3c3.7,0,6.7-3,6.7-6.8c0-1.6-0.6-3.2-1.7-4.4c-24.3-27.2,6.5-68,39.2-52.9c3.4,1.6,7.4,0.1,8.9-3.3
		c4.4-9.6-13.1-13.3-23-13.3C172,135.2,149.5,163.4,156.4,192.9L156.4,192.9z"/>
	<path class="st1" d="M261.6,128.9c16.2,2.7,28,16.8,28,33.1c0,8.9,13.4,8.9,13.4,0c0-12.5-4.9-24.4-13.7-33.2
		c8-10.9,18.6-14.2,32.1-13.5c17,2.5,18.6,13.1,25.2,13.1c1.7,0,3.2-0.6,4.5-1.7c8.3-7.4-8.6-18.6-18-22.2
		c18.2-18.7,52.4-8.8,56.9,17.8c-9,1.4-17.4,5.4-24.1,11.4c-2.8,2.5-3,6.7-0.5,9.5c1.3,1.4,3.1,2.2,5,2.2c5.6,0,7.8-7.9,22.1-9.9
		c2.5,2.5,16.6,4.7,22.8,21.6c3.5,9.4,2.6,19.8-2.3,28.5c-4.4,7.7,7.2,14.4,11.6,6.7c13-22.6,5.2-51.4-17.4-64.3
		c-1.1-0.6-2.2-1.2-3.3-1.7c-1.9-45-60.5-61.4-85.6-24.7c-15.6-0.5-30.4,6.7-39.6,19.2C252.6,106.5,252.1,127.3,261.6,128.9
		L261.6,128.9z"/>
	<circle class="st0" cx="108.1" cy="404" r="6.7"/>
	<path class="st1" d="M235.8,135.1c8.9,0,8.9-13.4,0-13.4C227,121.7,226.9,135.1,235.8,135.1z"/>
</g>
</svg>
