<?xml version="1.0" encoding="utf-8"?>
<!-- Generator: Adobe Illustrator 23.0.1, SVG Export Plug-In . SVG Version: 6.00 Build 0)  -->
<svg version="1.1" id="Layer_1" xmlns="http://www.w3.org/2000/svg" xmlns:xlink="http://www.w3.org/1999/xlink" x="0px" y="0px"
	 viewBox="0 0 512 512" style="enable-background:new 0 0 512 512;" xml:space="preserve">
<style type="text/css">
	.st0{fill:none;}
	.st1{fill:#FFFFFF;}
	.st2{fill:#FFDD00;}
</style>
<g>
	<path class="st0" d="M376.9,347.9c11.8,0.2,23.6,1.4,35.2,3.5c-0.4-9.6-2-19.1-4.9-28.3c-14.3,2.8-28,8.3-40.3,16.2
		c-3.1,2.3-7.5,1.6-9.8-1.5c-2.3-3.1-1.7-7.5,1.3-9.8c13.3-8.8,28.1-15,43.7-18.3c-2.9-6.6-6.2-13-10-19.1c-1.1-1.8-1.4-4-0.7-6
		c13-39.8,17.6-80.6,10.2-90.8c-0.7-1.1-2-1.8-3.3-1.7c-12.4,0-37.7,12.9-69.4,35.5c-2.1,1.5-4.8,1.7-7.1,0.6
		c-41.2-19.7-89.2-19.8-130.4-0.1c-2.3,1.1-5,0.9-7.1-0.6c-12.8-9.3-26.1-17.7-40-25.2c-0.2-0.1-0.5-0.2-0.7-0.3
		c-0.1,0-0.1-0.1-0.2-0.1c-8.6-5.3-18.4-8.7-28.5-9.8c-1.4-0.1-2.6,0.6-3.3,1.8c-7.4,10.2-2.9,50.8,10.1,90.6c0.7,2,0.4,4.2-0.7,6
		c-3.9,6.2-7.3,12.7-10.2,19.3c15.6,3.3,30.5,9.5,43.7,18.3c3,2.4,3.6,6.7,1.3,9.8c-2.3,3.1-6.7,3.8-9.8,1.5
		c-12.3-7.9-26-13.4-40.3-16.2c-2.9,9.2-4.5,18.7-4.9,28.3c11.6-2.2,23.4-3.4,35.3-3.5c3.9,0,7.1,3.2,7.1,7.1c0,3.9-3.2,7.1-7.1,7.1
		c-11.7,0.2-23.3,1.4-34.7,3.7c0.9,7.5,3,14.9,6,21.8c6.9-2.8,14.2-4.3,21.6-4.3c31.9,0,56.6,26.6,56.6,49.6c0,4.1-0.8,8.1-2.4,11.8
		c23.9,6.5,48.5,9.7,73.2,9.5c24.7,0.2,49.4-3,73.2-9.5c-1.6-3.7-2.5-7.7-2.4-11.8c0-22.9,24.7-49.6,56.6-49.6
		c7.4,0,14.8,1.5,21.6,4.3c3.1-6.9,5.1-14.3,6-21.8c-11.4-2.3-23.1-3.5-34.7-3.7c-3.9,0-7.1-3.2-7.1-7.1
		C369.8,351.1,372.9,347.9,376.9,347.9z"/>
	<path class="st0" d="M324.1,213.8c11.6-8.1,22.1-14.8,31.6-20.1c-19.9-26.9-57.8-43.9-99.1-43.9c-41.3,0-79.2,17-99.1,43.9
		c9.5,5.4,20,12,31.7,20.1C232,194.5,281.1,194.5,324.1,213.8z"/>
	<path class="st1" d="M444.5,363.3c-5.6-3.6-11.7-6.3-18.1-8.2V355c-0.1-11.6-1.8-23.1-5.1-34.2c6.4-0.8,12.8-1.2,19.3-1.2
		c3.9,0,7.1-3.2,7.1-7.1c0-3.9-3.2-7.1-7.1-7.1c-8.1,0-16.1,0.6-24.1,1.7c-3-7.3-6.5-14.4-10.5-21.1c4.7-15.1,22.9-78.7,7.2-100.4
		c-3.3-4.8-8.9-7.7-14.8-7.6c-10.5,0.8-20.8,3.8-30.1,8.9c-18.1-25.6-50-43.6-86.5-49.4c-0.1-9.6-1.3-19.2-3.6-28.6
		c-1.6-7.9,1.3-15.9,7.6-21c8.8-5.9,23.3,3.3,29,7.5c6.1,4.5,14.2,5.5,21.2,2.4c7-3.1,11.8-9.6,12.6-17.2c0.8-7.6-2.5-15-8.7-19.5
		C301,32.7,272.5,45.7,262,52.6c-21,15-30.9,41.2-25.1,66.3c1.4,5.7,2.2,11.6,2.4,17.5c-39.8,4.2-75.2,22.9-94.6,50.4
		c-9.2-5-19.4-8.1-29.9-8.9c-5.9-0.1-11.4,2.8-14.8,7.6c-15.7,21.6,2.5,85,7.1,100.1c-4.1,6.9-7.7,14-10.7,21.4
		c-8-1.1-16.1-1.7-24.1-1.7c-3.9,0-7.1,3.2-7.1,7.1c0,3.9,3.2,7.1,7.1,7.1c6.4,0,12.9,0.4,19.3,1.2c-3.3,11.1-5.1,22.6-5.1,34.2v0.1
		c-6.4,1.9-12.5,4.6-18.1,8.2c-2.1,1.4-3.3,3.8-3.2,6.4c0.2,2.5,1.7,4.8,3.9,5.9c2.3,1.1,5,0.9,7.1-0.5c3.6-2.3,7.4-4.1,11.4-5.5
		c1.2,8.6,3.7,17,7.3,24.9C82,403,73.6,417.2,72.4,432.9c0,21.8,21.7,35.4,56.6,35.4c15.8,1,31.4-3.2,44.6-11.8
		c26.8,8.1,54.8,12,82.8,11.8c28,0.3,55.9-3.7,82.8-11.8c13.2,8.6,28.9,12.7,44.6,11.8c34.9,0,56.6-13.6,56.6-35.4
		c-1.2-15.6-9.5-29.8-22.6-38.4c3.6-7.9,6.1-16.3,7.3-24.9c4,1.4,7.8,3.2,11.4,5.5c2.1,1.4,4.8,1.6,7.1,0.5c2.3-1.1,3.8-3.4,4-5.9
		C447.8,367.1,446.6,364.7,444.5,363.3z M269.9,64.4c9.9-6.5,31-14.2,61.6,8.2c2,1.5,3.1,4,2.9,6.5c-0.3,2.5-1.9,4.7-4.2,5.7
		c-2.3,1-5,0.7-7-0.8c-17.6-12.9-33.7-15.6-45.3-7.8c-11.2,8.4-16.4,22.5-13.4,36.1c1.9,7.8,3,15.7,3.2,23.7
		c-3.7-0.3-7.4-0.4-11.1-0.4c-1,0-2,0.1-3,0.1c-0.3-6.8-1.2-13.5-2.8-20C246.2,96.2,253.7,76,269.9,64.4z M256.5,149.7
		c41.3,0,79.2,17,99.1,43.9c-9.5,5.4-20,12-31.6,20.1c-42.9-19.3-92-19.3-135-0.1c-11.7-8.1-22.2-14.8-31.7-20.1
		C177.3,166.7,215.2,149.7,256.5,149.7z M376.9,362.1c11.7,0.2,23.3,1.4,34.7,3.7c-0.9,7.5-3,14.9-6,21.8
		c-6.9-2.8-14.2-4.3-21.6-4.3c-31.9,0-56.6,26.6-56.6,49.6c0,4.1,0.8,8.1,2.4,11.8c-23.9,6.5-48.5,9.7-73.2,9.5
		c-24.7,0.2-49.4-3-73.2-9.5c1.6-3.7,2.5-7.7,2.4-11.8c0-22.9-24.7-49.6-56.6-49.6c-7.4,0-14.8,1.5-21.6,4.3
		c-3.1-6.9-5.1-14.3-6-21.8c11.4-2.3,23.1-3.5,34.7-3.7c3.9,0,7.1-3.2,7.1-7.1c0-3.9-3.2-7.1-7.1-7.1c-11.8,0.2-23.6,1.4-35.3,3.5
		c0.4-9.6,2-19.1,4.9-28.3c14.3,2.8,28,8.3,40.3,16.2c3.1,2.3,7.5,1.6,9.8-1.5c2.3-3.1,1.7-7.5-1.3-9.8
		c-13.3-8.8-28.1-15.1-43.7-18.3c2.9-6.7,6.3-13.2,10.2-19.3c1.1-1.8,1.4-4,0.7-6c-13-39.7-17.5-80.3-10.1-90.6
		c0.7-1.2,2-1.8,3.3-1.8c10.1,1.1,19.8,4.5,28.5,9.8c0.1,0,0.1,0.1,0.2,0.1c0.2,0.1,0.5,0.2,0.7,0.3c13.9,7.5,27.2,15.9,40,25.2
		c2.1,1.5,4.8,1.7,7.1,0.6c41.3-19.7,89.2-19.7,130.4,0.1c2.3,1.1,5.1,0.9,7.1-0.6c31.7-22.6,57-35.5,69.4-35.5
		c1.3-0.1,2.6,0.6,3.3,1.7c7.4,10.3,2.9,51-10.2,90.8c-0.7,2-0.4,4.2,0.7,6c3.8,6.1,7.1,12.5,10,19.1c-15.6,3.3-30.4,9.5-43.7,18.3
		c-3,2.4-3.6,6.7-1.3,9.8c2.3,3.1,6.7,3.8,9.8,1.5c12.3-7.9,26-13.4,40.3-16.2c2.9,9.2,4.5,18.7,4.9,28.3
		c-11.6-2.2-23.4-3.4-35.2-3.5c-3.9,0-7.1,3.2-7.1,7.1C369.8,358.9,372.9,362.1,376.9,362.1z"/>
</g>
<path class="st1" d="M214,383.3c-3.9,0-7.1,3.2-7.1,7.1v7.1c-0.1,11.8,7.3,22.4,18.3,26.5c11.1,4.1,23.5,0.9,31.2-8
	c7.7,8.9,20.2,12.1,31.2,8s18.4-14.7,18.3-26.5v-7.1c0-3.9-3.2-7.1-7.1-7.1c-3.9,0-7.1,3.2-7.1,7.1v7.1c0,7.8-6.3,14.2-14.2,14.2
	c-7.8,0-14.2-6.3-14.2-14.2v-22.6c2.5-0.9,4.7-2.4,6.6-4.3l10.6-11.3c4-4.1,5.2-10.2,2.9-15.5c-3-6.3-9.5-10.3-16.5-10h-21.2
	c-7-0.2-13.5,3.7-16.5,10c-2.3,5.3-1.1,11.4,2.9,15.5l10.6,11.3c1.8,1.9,4.1,3.4,6.6,4.3v22.6c0,7.8-6.3,14.2-14.2,14.2
	s-14.2-6.3-14.2-14.2v-7.1C221.1,386.5,217.9,383.3,214,383.3z M242.3,349.4c0.1-0.3,1.1-1.5,3.6-1.5h21.2c2.4,0,3.5,1.2,3.3,1.7
	l-10.6,11.3c-2,1.4-4.7,1.4-6.6,0L242.3,349.4z"/>
<path class="st1" d="M167.1,309.6c12.6-4.9,22.6-5.5,29.8-1.7c5,2.9,8.7,7.6,10.2,13.2c0.9,3.8,4.6,6.1,8.4,5.3
	c3.8-0.8,6.2-4.5,5.4-8.3c-2.4-9.6-8.6-17.7-17.2-22.6c-11-5.9-25.1-5.6-41.8,0.9c-3.6,1.4-5.4,5.5-4,9.2
	C159.3,309.2,163.4,311,167.1,309.6z"/>
<path class="st1" d="M290.4,326.5c1.8,0.4,3.8,0,5.3-1c1.6-1,2.7-2.6,3.1-4.5c1.5-5.5,5.1-10.2,10.1-13.1c7.2-3.9,17.3-3.3,30,1.6
	c3.6,1.4,7.8-0.4,9.2-4c1.4-3.6-0.4-7.8-4-9.2c-16.7-6.5-30.8-6.8-41.8-0.9c-8.6,4.9-14.8,13.1-17.2,22.6c-0.4,1.8,0,3.8,1,5.3
	C287,325,288.6,326.1,290.4,326.5z"/>
<path class="st2" d="M86.6,432.9c0-15.9,19.6-35.4,42.5-35.4s42.5,19.5,42.5,35.4c0,10.3-9.5,16.2-21.9,19.1
	c0.4-1.6,0.6-3.3,0.6-4.9v-14.2c0-3.9-3.2-7.1-7.1-7.1c-3.9,0-7.1,3.2-7.1,7.1V447c0,3.9-3.2,7.1-7.1,7.1c-3.9,0-7.1-3.2-7.1-7.1
	v-14.2c0-3.9-3.2-7.1-7.1-7.1c-3.9,0-7.1,3.2-7.1,7.1V447c0,1.7,0.2,3.3,0.6,4.9C96.1,449.1,86.6,443.2,86.6,432.9z"/>
<path class="st2" d="M426.4,432.9c0,10.3-9.5,16.2-21.9,19.1c0.4-1.6,0.6-3.3,0.6-4.9v-14.2c0-3.9-3.2-7.1-7.1-7.1
	c-3.9,0-7.1,3.2-7.1,7.1V447c0,3.9-3.2,7.1-7.1,7.1c-3.9,0-7.1-3.2-7.1-7.1v-14.2c0-3.9-3.2-7.1-7.1-7.1c-3.9,0-7.1,3.2-7.1,7.1V447
	c0,1.7,0.2,3.3,0.6,4.9c-12.4-2.9-21.9-8.8-21.9-19.1c0-15.9,19.6-35.4,42.5-35.4S426.4,416.9,426.4,432.9z"/>
</svg>
