<?xml version="1.0" encoding="utf-8"?>
<!-- Generator: Adobe Illustrator 23.0.1, SVG Export Plug-In . SVG Version: 6.00 Build 0)  -->
<svg version="1.1" id="Layer_1" xmlns="http://www.w3.org/2000/svg" xmlns:xlink="http://www.w3.org/1999/xlink" x="0px" y="0px"
	 viewBox="0 0 512 512" style="enable-background:new 0 0 512 512;" xml:space="preserve">
<style type="text/css">
	.st0{fill:#FFFFFF;}
	.st1{fill:#FFDD00;}
</style>
<path class="st0" d="M236,400h-16v-48h40c4.4,0,8-3.6,8-8v-32c0-4.4-3.6-8-8-8h-32c-4.2,0-8.3-1.7-11.3-4.7c-3.3-3.3-5-7.8-4.7-12.5
	c1.2-8.6,8.6-15,17.4-14.8H260c4.4,0,8-3.6,8-8v-16h24c2.6,0,5-1.2,6.5-3.4c1.5-2.1,1.9-4.8,1.1-7.2L276,166.7V120
	c0-9.5-3.5-18.7-9.8-25.9c24.6-6.5,41.7-28.7,41.8-54.1V24c0-4.4-3.6-8-8-8H108c-48.6,0-88,39.4-88,88v129.6
	c0,26.7,8.9,52.5,25.3,73.6L76,346.7V400H44c-13.2,0-24,10.8-24,24v64c0,4.4,3.6,8,8,8s8-3.6,8-8v-64c0-4.4,3.6-8,8-8h192
	c39.7,0.1,71.9,32.3,72,72c0,4.4,3.6,8,8,8s8-3.6,8-8C324,439.4,284.6,400,236,400z M204,400H92V248h8c4.4,0,8-3.6,8-8s-3.6-8-8-8
	H84c-4.4,0-8-3.6-8-8v-40c0-2.2,0.9-4.2,2.5-5.7c1.4-1.5,3.4-2.4,5.5-2.3h16c4.4,0,8-3.6,8-8s-3.6-8-8-8h-8v-48c0-8.8,7.2-16,16-16
	h128c13.2,0,24,10.8,24,24v48c0,0.9,0.2,1.7,0.4,2.6l20.5,61.4H260c-4.4,0-8,3.6-8,8v16h-22.6c-17.1-0.3-31.6,12.6-33.3,29.7
	c-1.3,17.6,12,33,29.6,34.2c0.8,0.1,1.5,0.1,2.3,0.1h24v16H148c-4.4,0-8,3.6-8,8s3.6,8,8,8h56V400z"/>
<path class="st1" d="M356,216h16v16h-16V216z"/>
<path class="st1" d="M356,248h16v16h-16V248z"/>
<path class="st1" d="M356,280h16v16h-16V280z"/>
<path class="st1" d="M356,312h16v16h-16V312z"/>
<path class="st1" d="M332,232h16v16h-16V232z"/>
<path class="st1" d="M332,264h16v16h-16V264z"/>
<path class="st1" d="M332,296h16v16h-16V296z"/>
<path class="st1" d="M308,248h16v16h-16V248z"/>
<path class="st1" d="M308,280h16v16h-16V280z"/>
<path class="st1" d="M284,264h16v16h-16V264z"/>
<path class="st1" d="M260,280h16v16h-16V280z"/>
<path class="st1" d="M284,296h16v16h-16V296z"/>
<path class="st1" d="M308,312h16v16h-16V312z"/>
<path class="st1" d="M332,328h16v16h-16V328z"/>
<path class="st1" d="M356,344h16v16h-16V344z"/>
<path class="st0" d="M487.8,418.3c2.8-5.5,4.2-11.6,4.2-17.8V292.3c0-4.2-1.1-8.4-3.2-12L427,173.1c-6.6-11.5-21.3-15.4-32.8-8.8
	c-11.5,6.6-15.4,21.3-8.8,32.8c0,0,0,0,0,0l29.7,51.4c-11.1,2.3-19,12.1-19,23.4v45.6l-1,1.6c-19.8,29.5-19.8,68.1,0,97.6l1,1.6V432
	h-8c-4.4,0-8,3.6-8,8v48c0,4.4,3.6,8,8,8h96c4.4,0,8-3.6,8-8v-48c0-4.4-3.6-8-8-8v-6.1L487.8,418.3z M476,480h-80v-32h80V480z
	 M476,400.5c0,3.7-0.9,7.4-2.6,10.7l-4.6,9.2c-0.6,1.1-0.9,2.3-0.9,3.6v8h-56v-16c0-1.6-0.5-3.1-1.4-4.4l-2.4-3.7
	c-16.2-24.2-16.2-55.7,0-79.8l2.4-3.7c0.9-1.3,1.4-2.8,1.4-4.4v-48c0-4.4,3.6-8,8-8c2,0,4,0.8,5.4,2.2h0.1c0,0.1,0.2,0.2,0.2,0.3
	c1.4,1.5,2.2,3.4,2.2,5.4v48c0,4.4,3.6,8,8,8s8-3.6,8-8v-48c0-5.8-2.2-11.5-6.1-15.8L399.2,189c-1.1-1.8-1.3-3.9-0.8-5.9
	c0.5-2.1,1.9-3.9,3.8-5c3.8-2.1,8.6-0.8,10.9,3L475,288.4c0.7,1.2,1.1,2.5,1,3.9L476,400.5z"/>
<path class="st1" d="M76,320.6l-18.1-23.2C43.8,279.2,36,256.7,36,233.6V104c0.1-39.7,32.3-71.9,72-72h184v8c0,22.1-17.9,40-40,40
	H108c-17.7,0-32,14.3-32,32v49.4c-9.6,3.4-16,12.5-16,22.6v40c0,10.2,6.4,19.2,16,22.6V320.6z"/>
<path class="st0" d="M196.8,171.6c2,4,6.8,5.6,10.7,3.6c0,0,0,0,0,0l32-16c4-2,5.6-6.8,3.6-10.7c-0.8-1.6-2-2.8-3.6-3.6l-32-16
	c-4-2-8.8-0.4-10.7,3.6c-2,4-0.4,8.8,3.6,10.7l0,0l17.7,8.8l-17.7,8.8C196.5,162.8,194.9,167.6,196.8,171.6
	C196.8,171.6,196.8,171.6,196.8,171.6L196.8,171.6z"/>
</svg>
