<?xml version="1.0" encoding="utf-8"?>
<!-- Generator: Adobe Illustrator 23.0.1, SVG Export Plug-In . SVG Version: 6.00 Build 0)  -->
<svg version="1.1" id="Capa_1" xmlns="http://www.w3.org/2000/svg" xmlns:xlink="http://www.w3.org/1999/xlink" x="0px" y="0px"
	 viewBox="0 0 480 480" style="enable-background:new 0 0 480 480;" xml:space="preserve">
<style type="text/css">
	.st0{fill:#FFFFFF;}
	.st1{fill:#FFDD00;}
</style>
<g>
	<g>
		<path class="st0" d="M400.2,312.5h-17.6v-11.7c0-3.2-2.6-5.9-5.9-5.9H235.8c-3.2,0-5.9,2.6-5.9,5.9v72c0,28.3,23,51.2,51.2,51.2
			h50.2c24.6,0,45.7-17.5,50.3-41.6c14.1-2.4,24.4-14.6,24.4-28.9v-35.2C406.1,315.1,403.5,312.5,400.2,312.5z M370.9,372.8
			c0,21.8-17.7,39.5-39.5,39.5h-50.2c-21.8,0-39.5-17.7-39.5-39.5v-42.7h93.9v-11.7h-93.9v-11.7h129.2V372.8z M394.4,353.5
			c0,7.4-4.7,14.1-11.7,16.5v-45.9h11.7V353.5z"/>
	</g>
</g>
<g>
	<g>
		<path class="st0" d="M359.1,212.6h-76.3c-6.5,0-11.7-5.3-11.7-11.7c0-6.5,5.3-11.7,11.7-11.7h41.1c19.4,0,35.2-15.8,35.2-35.2
			h-11.7c0,13-10.5,23.5-23.5,23.5h-41.1c-13,0-23.5,10.5-23.5,23.5c0,13,10.5,23.5,23.5,23.5h76.3c6.5,0,11.7,5.3,11.7,11.7
			s-5.3,11.7-11.7,11.7h-76.3c-19.4,0-35.2,15.8-35.2,35.2h11.7c0-13,10.5-23.5,23.5-23.5h76.3c13,0,23.5-10.5,23.5-23.5
			S372.1,212.6,359.1,212.6z"/>
	</g>
</g>
<g>
	<g>
		<rect x="347.4" y="318.3" class="st0" width="11.7" height="11.7"/>
	</g>
</g>
<rect x="36.6" y="297.3" class="st1" width="148.7" height="106.2"/>
<rect x="393.5" y="161.7" transform="matrix(0.6501 -0.7599 0.7599 0.6501 12.9698 360.5223)" class="st0" width="9" height="9"/>
<rect x="379.8" y="150" transform="matrix(0.6501 -0.7599 0.7599 0.6501 17.0574 346.098)" class="st0" width="9" height="9"/>
<path class="st0" d="M148.1,196.4v-10.6h5.3c5.9,0,10.6-4.8,10.6-10.6v-21.2c0-5.9-4.8-10.6-10.6-10.6h-10.6v-31.9
	c0-8.8-7.1-15.9-15.9-15.9H95c-8.8,0-15.9,7.1-15.9,15.9v31.9H68.5c-5.9,0-10.6,4.8-10.6,10.6v21.2c0,5.9,4.8,10.6,10.6,10.6h5.3
	v10.6c0,26-10.1,50.4-28.5,68.8c-9,9-14,21-14,33.8v99.2c0,14.6,11.9,26.6,26.6,26.6h106.2c14.6,0,26.6-11.9,26.6-26.6V299
	c0-12.8-5-24.8-14-33.8C158.3,246.8,148.1,222.4,148.1,196.4z M89.7,111.4c0-2.9,2.4-5.3,5.3-5.3h31.9c2.9,0,5.3,2.4,5.3,5.3v31.9
	H89.7V111.4z M68.5,153.9h85l0,21.2h-85V153.9z M180,398.2c0,8.8-7.1,15.9-15.9,15.9H57.8c-8.8,0-15.9-7.1-15.9-15.9V299
	c0-9.9,3.9-19.3,10.9-26.3c20.4-20.4,31.6-47.5,31.6-76.3v-10.6h53.1v10.6c0,28.8,11.2,55.9,31.6,76.3c7,7,10.9,16.4,10.9,26.3
	V398.2z"/>
<rect x="100.3" y="122.1" class="st0" width="21.2" height="10.6"/>
<path class="st0" d="M111,308c-23.4,0-42.5,19.1-42.5,42.5c0,23.4,19.1,42.5,42.5,42.5s42.5-19.1,42.5-42.5
	C153.4,327,134.4,308,111,308z M111,382.3c-17.6,0-31.9-14.3-31.9-31.9c0-17.6,14.3-31.9,31.9-31.9s31.9,14.3,31.9,31.9
	C142.8,368,128.5,382.3,111,382.3z"/>
<g>
	<path class="st1" d="M418.7,35.4c-9-7.7-22.7-6.7-30.4,2.4l-0.5,0.5c-0.9,1-1.7,2.1-2.3,3.3l-10.8,18.8l1.2,1l6.8,5.8l-1,14.8
		l9,7.7l8.4-0.7l6.8,5.8l13.5,0.9L435.2,83c1-0.8,2-1.8,2.8-2.8c7.7-9,6.7-22.7-2.4-30.4L418.7,35.4z"/>
	<path class="st0" d="M361.8,76.9c-3.7-2.8-9-2.3-12.1,1.3c-3.2,3.7-2.8,9.4,1,12.6l-1.9,2.3c-9.6,11.2-8.3,28.2,2.9,37.8
		c11.2,9.6,28.2,8.3,37.8-2.9l1.9-2.3c3.7,3.2,9.4,2.8,12.6-1c3.1-3.6,2.8-8.9-0.6-12.2l16.9-13.6l0.2,0l0-0.2L437,85.4
		c1.2-0.9,2.3-2,3.2-3.1c8.8-10.3,7.6-25.8-2.7-34.6l-17-14.5c-10.3-8.8-25.8-7.6-34.6,2.7l-0.5,0.5c-1,1.2-1.9,2.4-2.6,3.8
		L361.8,76.9z M385,124c-7.5,8.7-20.6,9.8-29.4,2.3c-8.7-7.5-9.8-20.6-2.3-29.4l1.9-2.3l31.7,27.1L385,124z M398.9,108.5l-23-19.7
		l-3.9,4.5l27.1,23.2c1.2,1.1,1.4,2.9,0.3,4.2s-2.9,1.4-4.2,0.3l-40.7-34.8c-1.2-1.1-1.4-2.9-0.3-4.2c1.1-1.2,2.9-1.4,4.2-0.3l9,7.7
		l3.9-4.5l-4.9-4.2l9-15.8l4.1,3.5l-1,14.8l11.1,9.5l8.4-0.7l6.6,5.6l6.8,0.4L398.9,108.5z M390.5,39.7c6.7-7.8,18.4-8.7,26.2-2
		l17,14.5c7.8,6.7,8.7,18.4,2,26.2c-0.7,0.9-1.6,1.7-2.5,2.4l-14.9,12L407.1,92l-7-6l-8.4,0.7l-7-6l1-14.8l-7.2-6.2l9.6-16.7
		c0.6-1,1.2-2,2-2.8L390.5,39.7z"/>
	<rect x="371.3" y="119.7" transform="matrix(0.6501 -0.7599 0.7599 0.6501 37.7419 327.367)" class="st0" width="6" height="6"/>
	<rect x="420.4" y="71.6" transform="matrix(0.6501 -0.7599 0.7599 0.6501 91.4651 347.7658)" class="st0" width="6" height="6"/>
	<rect x="396.8" y="67.1" transform="matrix(0.6501 -0.7599 0.7599 0.6501 86.6365 328.2875)" class="st0" width="6" height="6"/>
	<rect x="403.5" y="45.5" transform="matrix(0.6501 -0.7599 0.7599 0.6501 105.4361 325.8537)" class="st0" width="6" height="6"/>
</g>
</svg>
