<?xml version="1.0" encoding="utf-8"?>
<!-- Generator: Adobe Illustrator 23.0.1, SVG Export Plug-In . SVG Version: 6.00 Build 0)  -->
<svg version="1.1" id="Capa_1" xmlns="http://www.w3.org/2000/svg" xmlns:xlink="http://www.w3.org/1999/xlink" x="0px" y="0px"
	 viewBox="0 0 512 512" style="enable-background:new 0 0 512 512;" xml:space="preserve">
<style type="text/css">
	.st0{fill:#FFFFFF;}
	.st1{fill:#FFDD00;}
</style>
<path id="XMLID_254_" class="st0" d="M334.5,272.2c-1.1-3.8-3.2-7.4-6.2-10.4c-2.7-2.7-5.9-4.7-9.4-5.9c3.1-4.6,3.8-10.3,1.8-15.6
	L308,206.6l1.8-3.5c11.5-23,14.7-49.5,8.9-74.6c-0.1-0.3-0.1-0.5-0.2-0.7c-6.6-23.7-21.3-45.1-41.4-60.3
	c-20.3-15.4-45.5-23.9-70.9-23.9c-20.5,0-39.7,5.4-56.4,14.7c-7.6-15.4-23.5-25.7-41.4-25.7c-25.4,0-46.1,20.7-46.1,46.1
	c0,21.3,14.5,39.2,34.1,44.5c-3.7,11.3-5.7,23.3-5.7,35.7c0,34.4,15.3,66.7,41.4,88.5l-24.4,73.1c-8,3.8-15.6,8.6-22.5,14.5
	c-3.7,3.1-4.1,8.6-1,12.3c3.1,3.7,8.6,4.1,12.3,1c15-12.8,34.1-19.8,53.8-19.8c12.2,0,24.5,2.8,35.6,8
	c47.8,22.7,84.1,62.5,102.4,112.1l9.2,25.1c1.3,3.5,4.6,5.7,8.2,5.7c1,0,2-0.2,3-0.5c4.5-1.7,6.8-6.7,5.2-11.2l-9.2-25.1
	c-4.7-12.7-10.4-24.8-17.3-36.3v-56h41.3v120.4c0,4.8,3.9,8.7,8.7,8.7c4.8,0,8.7-3.9,8.7-8.7V344.3l2.9-4.2
	c13.1-18.7,10.7-43.7-5.8-59.5L334.5,272.2z M79.7,78.7c0-15.8,12.9-28.7,28.7-28.7c11.9,0,22.4,7.4,26.6,18.1
	c-13.2,10.4-24.2,23.6-31.9,38.7C89.8,104.4,79.7,92.7,79.7,78.7z M108.2,158.9c0-54,43.9-97.9,97.9-97.9
	c40.8,0,77.2,24.7,92.1,61.2c-24.7,2.9-47.6,14.8-64.3,33.5l-11.5,13c-2.3-4.4-5.9-8.3-10.5-10.9c-13.1-7.6-29.9-3.1-37.5,10
	l-10.4,18c-3.7,6.3-4.6,13.7-2.7,20.8c1.4,5.2,4.2,9.7,8,13.2c-1.8,9.9-10,17.6-20.2,18.7C123.4,220.1,108.2,190.6,108.2,158.9
	L108.2,158.9z M150.4,311c-7.4,0-14.8,0.8-21.9,2.4l19.1-57.3c21.9-0.6,39.5-18.5,39.5-40.3c0-3.1-1.7-6-4.4-7.6
	c-2.3-1.3-4-3.5-4.7-6.1c-0.7-2.6-0.3-5.3,1-7.6l10.4-18c2.8-4.8,8.9-6.4,13.6-3.7c4.8,2.8,6.4,8.9,3.7,13.6
	c-2.2,3.9-1.2,8.8,2.4,11.4c3.6,2.6,8.7,2.1,11.6-1.3l26.1-29.4c14.4-16.2,34.6-26.2,56.1-28.1c2.9,19-0.1,38.7-8.8,56l-3.5,7
	c-1.1,2.2-1.2,4.7-0.4,7l13.9,36.8l-6.9-1.9c-2.2-0.6-4.6-0.3-6.6,0.8c-2,1.1-3.5,3-4.1,5.3l-3.4,12.1h-1.8c-5.8,0-10.9,3.5-13,9
	c-2,5.5-0.5,11.5,3.9,15.3l0.8,0.7c-1.2,1.1-2.5,2.1-4,3c-4.8,2.7-10.3,3.4-15.6,1.9l-44.3-12.3c-4.6-1.3-9.5,1.4-10.7,6.1
	c-1.3,4.6,1.4,9.5,6.1,10.7l7,1.9l-9.7,26.4c-2.8-1.5-5.6-2.9-8.4-4.2C180.1,314.3,165.2,311,150.4,311L150.4,311z M261,370.7
	c-13-14.3-27.7-26.6-43.8-36.9l11.3-30.6l20.4,5.7c3.4,0.9,6.8,1.4,10.2,1.4c3.7,0,7.4-0.6,11-1.7c-0.1,1.2-0.1,2.3-0.1,3.5v29.5
	v39.6C267.1,377.6,264.1,374.1,261,370.7L261,370.7z M287.4,332.9v-20.7c0-12.6,4.9-24.5,13.8-33.4l4.4-4.5c1.4-1.4,3.2-2.2,5.2-2.2
	h0c2,0,3.8,0.8,5.2,2.1c2.9,2.9,2.9,7.5,0,10.4l-7.3,7.3c-3.4,3.4-3.4,8.9,0,12.3c3.4,3.4,8.9,3.4,12.3,0l7.3-7.3
	c1.1-1.1,2.1-2.3,3-3.6c10.2,9.8,11.7,25.3,3.6,36.8l-1.9,2.7L287.4,332.9L287.4,332.9z"/>
<path id="XMLID_586_" class="st0" d="M58.8,402.6c-4.8,0-8.7,3.9-8.7,8.8v59.4c0,4.8,3.9,8.7,8.7,8.7s8.7-3.9,8.7-8.7v-59.4
	C67.5,406.5,63.6,402.6,58.8,402.6z"/>
<path id="XMLID_587_" class="st1" d="M453.2,268H401c-4.8,0-8.7,3.9-8.7,8.7s3.9,8.7,8.7,8.7h52.3c4.8,0,8.7-3.9,8.7-8.7
	C462,272,458.1,268,453.2,268z"/>
<path id="XMLID_588_" class="st1" d="M385.5,250.1c1.5,0,3-0.4,4.4-1.2l41.7-24.2c4.2-2.4,5.6-7.8,3.2-11.9
	c-2.4-4.2-7.8-5.6-11.9-3.2l-41.7,24.2c-4.2,2.4-5.6,7.8-3.2,11.9C379.6,248.5,382.5,250.1,385.5,250.1z"/>
<path id="XMLID_589_" class="st1" d="M431.6,328.9l-41.7-24.2c-4.2-2.4-9.5-1-11.9,3.2c-2.4,4.2-1,9.5,3.2,11.9l41.7,24.2
	c1.4,0.8,2.9,1.2,4.4,1.2c3,0,5.9-1.6,7.6-4.3C437.2,336.6,435.7,331.3,431.6,328.9z"/>
<path id="XMLID_590_" class="st0" d="M260.1,216.3h4.7c4.8,0,8.7-3.9,8.7-8.7s-3.9-8.7-8.7-8.7h-4.7c-4.8,0-8.7,3.9-8.7,8.7
	S255.2,216.3,260.1,216.3z"/>
<path id="XMLID_591_" class="st0" d="M67.2,364.2c-2.3,0-4.5,0.9-6.2,2.6c-1.6,1.6-2.5,3.9-2.5,6.2s0.9,4.5,2.5,6.2
	c1.6,1.6,3.9,2.6,6.2,2.6s4.5-0.9,6.2-2.6c1.6-1.6,2.6-3.9,2.6-6.2s-0.9-4.5-2.6-6.2C71.7,365.1,69.5,364.2,67.2,364.2z"/>
</svg>
