<?xml version="1.0" encoding="utf-8"?>
<!-- Generator: Adobe Illustrator 23.0.1, SVG Export Plug-In . SVG Version: 6.00 Build 0)  -->
<svg version="1.1" id="Capa_1" xmlns="http://www.w3.org/2000/svg" xmlns:xlink="http://www.w3.org/1999/xlink" x="0px" y="0px"
	 viewBox="0 0 512 512" style="enable-background:new 0 0 512 512;" xml:space="preserve">
<style type="text/css">
	.st0{fill:#FFFFFF;}
	.st1{fill:#FFDD00;}
</style>
<path id="XMLID_1308_" class="st0" d="M460.5,70.8h-22.9C433.4,50.4,415.1,35,393.2,35c-21.8,0-40.1,15.4-44.3,35.8h-48.5
	C296.1,50.4,277.8,35,256,35s-40.1,15.4-44.3,35.8h-48.8C158.6,50.4,140.3,35,118.5,35S78.3,50.4,74.1,70.8H51.5
	c-14.9,0-27.2,12.1-27.2,26.8v332.6c0,14.8,12.1,26.8,27.2,26.8h163.8c5,0,9.1-4,9.1-8.9c0-4.9-4-8.9-9.1-8.9H51.5
	c-4.9,0-9.1-4-9.1-8.9V167.4h427v262.8c0,4.9-4,8.9-9.1,8.9H296.7c-5,0-9.1,4-9.1,8.9c0,4.9,4,8.9,9.1,8.9h163.8
	c14.9,0,27.2-12.1,27.2-26.8V97.6C487.6,82.8,475.4,70.8,460.5,70.8z M393.2,52.9c11.8,0,21.8,7.5,25.6,17.9h-51.2
	C371.4,60.4,381.5,52.9,393.2,52.9z M256,52.9c11.8,0,21.8,7.5,25.6,17.9h-51.2C234.2,60.4,244.2,52.9,256,52.9L256,52.9z
	 M118.5,52.9c11.8,0,21.8,7.5,25.6,17.9H92.9C96.6,60.4,106.7,52.9,118.5,52.9z M42.5,149.5V97.6c0-4.9,4-8.9,9.1-8.9h22.6
	c4.2,20.4,22.5,35.8,44.3,35.8c5,0,9.1-4,9.1-8.9s-4-8.9-9.1-8.9c-11.8,0-21.8-7.5-25.6-17.9h118.8c4.2,20.4,22.5,35.8,44.3,35.8
	c5,0,9.1-4,9.1-8.9s-4-8.9-9.1-8.9c-11.8,0-21.8-7.5-25.6-17.9h118.5c4.2,20.4,22.5,35.8,44.3,35.8c5,0,9.1-4,9.1-8.9
	s-4-8.9-9.1-8.9c-11.8,0-21.8-7.5-25.6-17.9h92.8c4.9,0,9.1,4,9.1,8.9v51.9H42.5z"/>
<g>
	<path id="XMLID_1332_" class="st1" d="M356.5,392.6c5,0,9.1-4,9.1-8.9v-71.5c0-4.9-4-8.9-9.1-8.9H341c-5,0-9.1,4-9.1,8.9
		c0,4.9,4,8.9,9.1,8.9h6.4v62.6C347.4,388.6,351.5,392.6,356.5,392.6z"/>
	<path id="XMLID_1336_" class="st1" d="M413,383.7c0,4.9,4,8.9,9.1,8.9l0,0c4.9,0,9.1-4,9.1-8.9v-12.2h0.4c5,0,9.1-4,9.1-8.9
		c0-4.9-4-8.9-9.1-8.9h-0.3l0.1-36.5c0-0.3,0-0.5,0-0.8c-0.5-6.1-4.2-11-9.4-12.6c-5.2-1.6-10.7,0.4-14.8,5.3
		c-0.3,0.4-0.6,0.8-0.8,1.2l-28,47.9c-1.6,2.8-1.6,6.2,0,8.9c1.6,2.8,4.6,4.5,7.8,4.5h27L413,383.7z M401.7,353.6l11.5-19.6
		l-0.1,19.6H401.7z"/>
</g>
<path id="XMLID_1337_" class="st0" d="M256,439.1c-2.3,0-4.7,1-6.4,2.6c-1.7,1.7-2.6,3.9-2.6,6.3s0.9,4.6,2.6,6.3
	c1.7,1.7,4,2.6,6.4,2.6c2.4,0,4.7-1,6.4-2.6c1.7-1.7,2.6-3.9,2.6-6.3s-0.9-4.6-2.6-6.3C260.7,440.1,258.3,439.1,256,439.1z"/>
<g>
	<path class="st1" d="M308.7,287.8c-0.6-6.9-3.6-13.1-8.9-17.3c-4.9-4-10.9-5.9-17.2-5.3c-8.5,0.8-16,6.3-19.6,14.2l-7.7,0.7
		l-7.6-2.1c-0.6-0.2-1-0.6-1.3-1.3c-2.2-6.5-5.3-12.6-9.3-18.2l2.7-7.2l8.5-9c4.9-0.2,9.3-2.2,12.5-5.9c5.8-6.6,5.6-16.8-0.6-23.2
		c-3.4-3.5-7.9-5.4-12.8-5.4c-4.8,0-9.4,2.1-12.7,5.5c-3.2,3.4-4.9,7.9-4.6,12.4l-8.5,9l-7.1,3.2c-10.6-6.2-22.7-9.5-35-9.7
		l-4.7-7.3l-1.7-8c6.5-5.3,9.6-13.5,7.8-21.5c-2.6-12.2-15.2-20-28.2-17.6c-6.5,1.3-12,4.8-15.6,10c-3.4,4.9-4.5,10.8-3.3,16.5
		c1.7,7.6,7.3,13.8,14.8,16.5l1.8,8.9l-1.4,8.7c-6.5,2.9-12.6,6.7-18,11.4l-5.3-0.9l-6.1-4.5c-0.8-4.6-3.5-8.5-7.5-11.1
		c-7.3-4.8-17.2-3.5-22.9,3.1c-3.2,3.7-4.7,8.3-4.1,13.1c0.6,4.7,3,9,6.8,11.9c3.9,3,9,4.1,13.8,3.1l5,3.8l2.2,4.6
		c0.1,0.2,0.1,0.4,0,0.6c-4.3,9.3-6.5,19.2-6.5,29.4c0,1.9,0.1,3.8,0.3,5.7c0,0.3-0.1,0.5-0.3,0.7l-8.5,6l-9.7,3
		c-6-4.6-13.9-6-21.1-3.6c-0.2,0.1-0.3,0.1-0.5,0.2h-0.1c-2,0.7-3.1,2.9-2.3,4.9c0.7,2,2.9,3,4.9,2.3l0.2-0.1c0.1,0,0.1-0.1,0.2-0.1
		c5.3-1.7,11.1-0.4,15.2,3.4c0.7,0.7,1.7,1.1,2.6,1.1c0.4,0,0.7-0.1,1.1-0.2l12.3-3.8c0.4-0.1,0.7-0.3,1.1-0.5l9.1-6.3
		c2.4-1.7,3.7-4.6,3.5-7.5c-0.1-1.7-0.2-3.4-0.2-5.1c0-9.1,2-18,5.8-26.3c1-2.3,1-4.9-0.1-7.2l-2.7-5.4c-0.3-0.5-0.7-1-1.1-1.3
		l-7.3-5.5c-1-0.7-2.3-1-3.5-0.6c-3,1-6.3,0.4-8.8-1.4c-2.1-1.6-3.5-3.9-3.8-6.6c-0.3-2.7,0.6-5.3,2.3-7.3c3.2-3.7,8.8-4.4,12.8-1.7
		c2.4,1.6,4,4.3,4.3,7.2c0.1,1.1,0.7,2.1,1.5,2.7l8,6c0.5,0.4,1,0.6,1.7,0.7l8.1,1.4c1.2,0.2,2.4-0.2,3.3-1
		c5.6-5.2,12-9.3,19.1-12.2c1.2-0.5,2.1-1.6,2.3-2.9l1.9-11.4c0.1-0.4,0.1-0.9,0-1.3l-2.4-11.8c-0.3-1.4-1.4-2.6-2.8-3
		c-6-1.5-10.5-5.9-11.6-11.4c-0.8-3.7-0.1-7.5,2.1-10.7c2.4-3.6,6.2-6,10.6-6.8c8.9-1.6,17.5,3.6,19.1,11.7
		c1.2,5.8-1.4,11.7-6.6,15.1c-1.3,0.9-2,2.4-1.7,3.9l2.2,11.1c0.1,0.4,0.3,0.9,0.5,1.3l5.6,8.8c1.1,1.7,2.9,2.7,4.9,2.7l0,0
		c11.6,0,23,3.1,32.9,9c1.7,1,3.7,1.1,5.4,0.3l8.7-4c0.5-0.2,0.8-0.5,1.2-0.9l10.2-10.9c0.8-0.9,1.1-2.1,0.9-3.1
		c-0.5-3,0.5-5.8,2.4-8c1.9-2,4.4-3,7.1-3c2.7,0,5.2,1.1,7.1,3c3.5,3.6,3.5,9.2,0.3,12.9c-2.1,2.3-4.9,3.5-8.1,3.3
		c-1.2-0.1-2.3,0.4-3.1,1.3l-10.2,10.9c-0.4,0.4-0.7,0.8-0.7,1.3l-3.3,8.8c-0.7,1.8-0.4,3.8,0.7,5.4c3.8,5.2,6.8,10.9,8.9,17
		c1,3,3.5,5.3,6.5,6.2l8.3,2.3c0.5,0.1,0.9,0.2,1.4,0.1l10.7-0.9c1.5-0.1,2.8-1.2,3.3-2.5c2.2-6.3,7.7-10.8,14.1-11.4
		c4.1-0.4,8.2,0.8,11.4,3.5c3.5,3,5.8,7.2,6.2,12.1c0.3,3.2-0.4,6.3-1.7,9.2c-0.9,1.9-0.1,4.2,1.9,5.1s4.2,0.1,5.1-1.9
		C308.2,296.8,309,292.3,308.7,287.8L308.7,287.8z"/>
	<path class="st1" d="M289.3,306.7c-1.1,0.4-2.2,0.6-3.4,0.7c-6.6,0.6-12.9-3-15.9-9.3c-0.7-1.4-2.2-2.3-3.8-2.1l-10.1,0.9
		c-0.5,0-0.9,0.2-1.3,0.4l-7.7,3.7c-2.9,1.3-4.9,4.1-5.3,7.2c-0.7,4.7-1.9,9.4-3.6,13.9c-1,2.7-0.8,5.5,0.6,8l2.7,4.8
		c0.3,0.5,0.7,1,1.2,1.3l7.6,5c1,0.7,2.3,0.8,3.5,0.4c3-1.1,6.3-0.7,8.9,1c2.2,1.5,3.7,3.8,4.2,6.4c0.5,2.7-0.2,5.3-1.9,7.4
		c-2.9,3.8-8.5,4.8-12.6,2.4c-2.5-1.5-4.3-4-4.7-7c-0.2-1.1-0.7-2.1-1.7-2.6l-8.4-5.5c-0.5-0.4-1.1-0.5-1.7-0.6l-5.2-0.6
		c-3-0.4-5.9,0.6-8,2.7c-4.2,3.9-9,7.3-14.1,10c-3,1.6-4.9,4.6-5.1,8l-0.7,10.5c0,0.4,0,0.8,0.1,1.2l3.3,13c0.4,1.3,1.4,2.4,2.7,2.8
		c4.5,1.3,8,4.7,9.1,9.2c0.8,3.4,0.3,6.9-1.6,9.9c-1.9,3-4.8,5-8.2,5.8c-6.4,1.4-13.2-2.3-15.1-8.5c-1.6-4.6-0.3-9.7,3.3-13.2
		c0.9-1,1.4-2.3,1-3.7l-3.4-13.1c-0.1-0.4-0.3-0.7-0.5-1.1l-5.1-8.1c-2.1-3.3-5.7-5.3-9.7-5.3l0,0c-4.2,0-8.3-0.4-12.4-1.2
		c-3.8-0.7-7.7,0.4-10.5,3.3l-6.8,7.1c-0.3,0.3-0.5,0.6-0.7,1l-7.6,15.6c-0.6,1.1-0.5,2.3,0,3.3c1.3,2.7,1.3,5.7,0,8.4
		c-1.2,2.4-3.3,4.2-5.9,5c-2.6,0.8-5.3,0.5-7.7-0.8c-4.2-2.3-6.1-7.6-4.2-12c1.2-3,3.7-5,6.8-5.7c1.1-0.3,2.1-1,2.6-2.1l7.7-15.6
		c0.2-0.4,0.3-0.7,0.4-1.2l1.5-10.5c0.5-3.2-0.8-6.5-3.4-8.6c-5.8-4.6-10.6-10.2-14.5-16.5c-1.7-2.8-4.8-4.5-8-4.5l-10.6-0.1
		c-0.4,0-0.8,0.1-1.2,0.2l-11.7,3.6c-1.5,0.4-2.5,1.7-2.7,3.2c-0.7,5.9-4.8,10.8-10.5,12.6c-7.8,2.4-16.3-1.9-19-9.6
		c-1-3-1-6.3,0.1-9.5c0.7-2-0.4-4.1-2.4-4.8c-2.1-0.7-4.2,0.4-4.9,2.3c-1.6,4.6-1.7,9.7-0.1,14.3c3.2,9.5,12.1,15.6,21.8,15.6
		c2.2,0,4.6-0.4,6.8-1.1c7.7-2.4,13.6-8.8,15.4-16.5l8.8-2.8l10,0.1c0.7,0,1.2,0.4,1.5,0.8c4.3,7.1,9.8,13.2,16.2,18.4
		c0.5,0.4,0.7,1,0.7,1.6l-1.4,9.9l-6.6,13.6c-4.7,1.6-8.4,5.2-10.4,9.7c-3.4,8-0.1,17.3,7.6,21.5c4.3,2.3,9.1,2.9,13.8,1.4
		c4.6-1.4,8.4-4.6,10.5-8.9c2.1-4.2,2.2-8.9,0.7-13.3l6.5-13.5l6.3-6.6c0.8-0.9,2.1-1.3,3.4-1.1c4.6,0.9,9.2,1.3,13.9,1.3l0,0
		c1.3,0,2.5,0.6,3.2,1.7l4.9,7.7l2.7,10.5c-4.5,5.4-5.9,12.6-3.6,19.3c2.8,8.5,11,14.1,19.8,14.1c1.5,0,2.9-0.2,4.4-0.4
		c5.5-1.3,10.2-4.5,13.2-9.2c3-4.7,3.8-10.4,2.4-15.7c-1.6-6.3-6.3-11.5-12.3-13.9l-2.6-10.4l0.7-9.9c0.1-0.7,0.5-1.4,1.1-1.7
		c5.7-3,11-6.8,15.8-11.3c0.5-0.4,1.1-0.7,1.8-0.6l4.4,0.5l6.3,4.1c1.1,4.5,4,8.3,8,10.6c7.6,4.5,17.4,2.6,22.7-4.4
		c3-3.8,4.2-8.6,3.4-13.3c-0.7-4.6-3.5-8.9-7.5-11.5c-4.1-2.7-9.1-3.6-13.9-2.4l-5.2-3.5l-2.2-4c-0.3-0.4-0.3-1.1-0.1-1.6
		c2-5,3.3-10.2,4-15.5c0.1-0.6,0.5-1.2,1-1.4l7-3.3l6.8-0.6c4.8,7.8,13.3,12.2,22.3,11.3c1.7-0.2,3.4-0.5,4.9-1.1
		c2.1-0.6,3.1-2.8,2.4-4.8C293.5,307.1,291.3,306,289.3,306.7L289.3,306.7z"/>
	<path class="st1" d="M191,247.3c-4-0.9-8.2-1.4-12.4-1.4c-29.8,0-54,24-54,53.4s24.2,53.4,54,53.4s54-24,54-53.4
		c0-18.4-9.4-35.2-25.1-45.1c-1.8-1.2-4.2-0.6-5.3,1.2c-1.1,1.8-0.6,4.1,1.2,5.3c13.5,8.4,21.6,22.9,21.6,38.6
		c0,25.2-20.7,45.7-46.3,45.7s-46.3-20.5-46.3-45.7c0-25.2,20.7-45.7,46.3-45.7c3.5,0,7.2,0.4,10.6,1.3c2.1,0.4,4.1-0.8,4.7-2.9
		C194.4,249.8,193.2,247.8,191,247.3L191,247.3z"/>
	<path class="st1" d="M94.3,213c10,0,18.1-8,18.1-17.9s-8.1-17.9-18.1-17.9s-18.1,8-18.1,17.9S84.3,213,94.3,213z M94.3,184.8
		c5.8,0,10.5,4.6,10.5,10.3s-4.7,10.3-10.5,10.3s-10.5-4.6-10.5-10.3C83.9,189.4,88.6,184.8,94.3,184.8z"/>
	<path class="st1" d="M90.5,367.9c-7.3,0-13.3,5.9-13.3,13.1c0,7.2,6,13.1,13.3,13.1c7.3,0,13.3-5.9,13.3-13.1
		C103.7,373.8,97.8,367.9,90.5,367.9z M90.5,386.5c-3.1,0-5.6-2.5-5.6-5.5c0-3,2.5-5.5,5.6-5.5s5.6,2.5,5.6,5.5
		C96,384,93.5,386.5,90.5,386.5z"/>
	<path class="st1" d="M263.6,378.8c-9.8,0-17.7,7.9-17.7,17.5c0,9.7,7.9,17.5,17.7,17.5c9.8,0,17.7-7.9,17.7-17.5
		C281.3,386.6,273.4,378.8,263.6,378.8z M263.6,406.2c-5.5,0-10-4.5-10-9.9c0-5.5,4.5-9.9,10-9.9c5.5,0,10,4.5,10,9.9
		C273.6,401.7,269.1,406.2,263.6,406.2z"/>
	<path class="st1" d="M180.1,285.6c0-9.1-7.6-16.6-16.8-16.6c-9.2,0-16.8,7.4-16.8,16.6c0,9.2,7.6,16.6,16.8,16.6
		S180.1,294.7,180.1,285.6L180.1,285.6z M163.3,294.5c-5,0-9.1-4-9.1-8.9c0-4.9,4.1-8.9,9.1-8.9c5,0,9.1,4,9.1,8.9
		C172.3,290.5,168.3,294.5,163.3,294.5z"/>
	<path class="st1" d="M173.7,337.8c7,0,12.7-5.6,12.7-12.5s-5.7-12.5-12.7-12.5s-12.7,5.6-12.7,12.5
		C161.1,332.3,166.7,337.8,173.7,337.8z M173.7,320.5c2.7,0,4.9,2.2,4.9,4.9c0,2.7-2.2,4.9-4.9,4.9s-4.9-2.2-4.9-4.9
		C168.7,322.6,170.9,320.5,173.7,320.5z"/>
	<path class="st1" d="M190.1,299.3c0,6.2,5,11.1,11.3,11.1c6.3,0,11.3-5,11.3-11.1c0-6.2-5-11.1-11.3-11.1
		C195.1,288.2,190.1,293.1,190.1,299.3L190.1,299.3z M201.4,295.7c2,0,3.5,1.6,3.5,3.5c0,2-1.6,3.5-3.5,3.5c-2,0-3.5-1.6-3.5-3.5
		C197.8,297.3,199.4,295.7,201.4,295.7z"/>
</g>
</svg>
