<?xml version="1.0" encoding="utf-8"?>
<!-- Generator: Adobe Illustrator 23.0.1, SVG Export Plug-In . SVG Version: 6.00 Build 0)  -->
<svg version="1.1" id="Layer_1" xmlns="http://www.w3.org/2000/svg" xmlns:xlink="http://www.w3.org/1999/xlink" x="0px" y="0px"
	 viewBox="0 0 512 512" style="enable-background:new 0 0 512 512;" xml:space="preserve">
<style type="text/css">
	.st0{fill:#FFFFFF;}
	.st1{fill:#FFDD00;}
</style>
<path class="st0" d="M474.6,176.9c8.2-34.8,7-66.3-3.5-88.7c-8-17.2-20.9-27.7-36.6-29.8c-15.4-29-49.9-29.1-82.1-23.2
	c-9.1,1.7-6.6,15.4,2.5,13.8c71.4-13.1,62.5,22.6,74.8,23c15.6,0.6,24.2,12.3,28.7,22c9,19.3,9.9,48.3,2.5,79.6
	c-8.4,35.7-26.8,72.8-53.3,107.6c-12.1-5.3-21.5-12.7-28.7-22.4c-5.5-7.4-16.8,0.9-11.2,8.3c8.8,11.8,20.6,21,35.2,27.3
	c0.5,31.8-1,32.5,1.4,35.7c71.1,94.8,33.7,149.7,54.6,149.7c3.9,0,7-3.1,7-7c0-51.3-8.2-94.2-49-149.3v-31.5
	C445.6,255.1,465.5,215.2,474.6,176.9L474.6,176.9z"/>
<path class="st0" d="M360.9,226.7c-9.3,0-9.3,14,0,14c46.2,0,44.4-76.2,9-76.2c-22.8,0-30,34.2-16,34.2c3.9,0,7-3.1,7-7
	c0-19.2,21-18,21,7C381.9,207.2,379.9,226.7,360.9,226.7L360.9,226.7z"/>
<path class="st0" d="M374.9,367.9c-27,0-48.9,21.9-49,49v56c0,9.3,14,9.3,14,0v-56c0-19.3,15.7-35,35-35c19.3,0,35,15.7,35,35v56
	c0,9.3,14,9.3,14,0v-56C423.9,389.9,402,368,374.9,367.9z"/>
<path class="st0" d="M379.2,332.8c-19.5,8.2-46.9,17.7-73.9,20.4c18.3-26.2,12.9-5.9,13.7-55.2c0-3.9-3.1-7-7-7h-52.5
	c-9.7,0-17.5-7.8-17.5-17.5V242c0-6.5-6.5-6.9-19.4-15.9c17.5-23.3,19.4-23.2,19.4-27.4v-38.4c4.1,1.6,8.4,2.7,12.8,3.5
	c9.1,1.6,11.5-12.2,2.4-13.8c-34.8-6.1-47.8-40.3-49.9-75.5c19.7,10.3,48.7,1.5,94.4-12c8.9-2.6,5-16-3.9-13.4
	c-38.6,11.3-80.6,25.4-91.3,6.5c-2.9-6.3-12.7-4.7-13.2,2.7c-2.3,31.8,7.1,74.9,34.8,94.5v43.5l-21.3,27.3c-2.4,3.1-1.8,7.4,1.2,9.8
	c0.2,0.2,0.4,0.3,0.6,0.4l19.4,11.9v27.6c0,17.4,14.1,31.5,31.5,31.5H305v25.4c-6.5,7.9-12.4,16.1-17.9,24.7
	c-1.7,1.1-2.8,2.9-3.1,4.9c-20.5,33.7-35.1,73.3-35.1,112.9c0,3.9,3.1,7,7,7c3.9,0,7-3.1,7-7c0-42,17.6-80.1,32.8-105
	c32.3-1.1,65.9-12.5,88.9-22.2C393.2,342.1,387.7,329.2,379.2,332.8L379.2,332.8z"/>
<path class="st0" d="M291.9,126.6c-3.7,6.5-21.9,39.6-21.9,52.4c0,15.5,12.5,28,28,28c15.5,0,28-12.5,28-28
	c0-12.8-18.2-45.9-21.9-52.4c-1.9-3.4-6.2-4.6-9.5-2.7C293.4,124.6,292.5,125.5,291.9,126.6L291.9,126.6z"/>
<path class="st1" d="M298,193c-7.7,0-14-6.3-14-14c0-4.8,6.5-19.7,14-34.2c7.5,14.5,14,29.4,14,34.2C312,186.7,305.7,193,298,193z"
	/>
<path class="st0" d="M158,287.6V95.1c0-11.6-9.4-21-21-21h-56c-11.6,0-21,9.4-21,21v192.5c-55.5,45.9-22.8,136.3,49,136.3
	C180.2,423.9,214.1,333.7,158,287.6z M107.5,409.9c-58.5-1.4-84.6-77-36.3-113.3c5.3-4,1.8-3.8,2.8-124.5h21c9.3,0,9.3-14,0-14h-21
	v-14h35c9.3,0,9.3-14,0-14h-35v-14h21c9.3,0,9.3-14,0-14h-21c0.4-1.9-2.4-14,7-14h56c3.9,0,7,3.1,7,7c1,203.4-2.5,197.5,2.8,201.5
	C196.2,333.7,167.8,411.4,107.5,409.9z"/>
<path class="st1" d="M130,302.7V193c0-3.9-3.1-7-7-7h-28c-3.9,0-7,3.1-7,7v109.7c-47.2,22.4-30.8,93.2,21,93.2
	C160.7,395.9,177.3,325.2,130,302.7L130,302.7z M109,381.9c-39.1,0-48.6-54.9-11.7-68c8.8-3.1,2.9-9,4.7-114h14
	c1.8,107.4-3.9,110.9,4.7,114C157.7,327.1,148.1,381.9,109,381.9z"/>
<path class="st1" d="M39.1,423.9c0,9.3,14,9.3,14,0C53.1,414.7,39.1,414.7,39.1,423.9z"/>
<path class="st1" d="M74.1,430.9c-9.3,0-9.3,14,0,14C83.3,444.9,83.3,430.9,74.1,430.9z"/>
<path class="st1" d="M137,437.9c0,9.3,14,9.3,14,0C151,428.6,137,428.6,137,437.9z"/>
<path class="st1" d="M102.1,444.9c0,9.3,14,9.3,14,0C116,435.6,102.1,435.6,102.1,444.9z"/>
<path class="st1" d="M172,416.9c-9.3,0-9.3,14,0,14C181.3,430.9,181.3,416.9,172,416.9z"/>
<path class="st0" d="M326,53.1c9.3,0,9.3-14,0-14C316.7,39.1,316.7,53.1,326,53.1z"/>
<path class="st0" d="M473.8,276l-6.4-9c-2-2.8-5.9-3.5-8.9-1.7c-3,1.8-3.8,5.5-1.8,8.3c0,0,0,0,0,0.1l6.4,9c2.5,3.4,2.5,7.9,0,11.3
	c-5.4,7.5-5.4,17.2,0,24.6c2.5,3.4,2.5,7.9,0,11.3l-6.4,9c-2,2.7-1.2,6.5,1.7,8.3c2.9,1.9,6.9,1.1,8.9-1.6c0,0,0,0,0-0.1l6.4-9
	c5.4-7.5,5.4-17.2,0-24.6c-2.5-3.4-2.5-7.9,0-11.3C479.1,293.2,479.1,283.5,473.8,276z"/>
<path class="st0" d="M241.8,335.3c2-2.7,1.2-6.5-1.7-8.3c-2.9-1.9-6.9-1.1-8.9,1.6c0,0,0,0,0,0.1l-6.4,9c-5.4,7.5-5.4,17.2,0,24.6
	c2.5,3.4,2.5,7.9,0,11.3c-5.4,7.5-5.4,17.2,0,24.6l6.4,9c2,2.8,5.9,3.5,8.9,1.7s3.8-5.5,1.8-8.3c0,0,0,0,0-0.1l-6.4-9
	c-2.5-3.4-2.5-7.9,0-11.3c5.4-7.5,5.4-17.2,0-24.6c-2.5-3.4-2.5-7.9,0-11.3L241.8,335.3z"/>
</svg>
