<?xml version="1.0" encoding="utf-8"?>
<!-- Generator: Adobe Illustrator 23.0.1, SVG Export Plug-In . SVG Version: 6.00 Build 0)  -->
<svg version="1.1" id="Capa_1" xmlns="http://www.w3.org/2000/svg" xmlns:xlink="http://www.w3.org/1999/xlink" x="0px" y="0px"
	 viewBox="0 0 512 512" style="enable-background:new 0 0 512 512;" xml:space="preserve">
<style type="text/css">
	.st0{fill:#FFFFFF;}
	.st1{fill:#FFDD00;}
</style>
<g>
	<g>
		<path class="st0" d="M416,336V131.6c0-19.6-16-35.6-35.6-35.6c-6.5,0-12.6,1.7-17.8,4.8V96c0-19.6-16-35.6-35.6-35.6
			c-13.1,0-24.7,7.2-30.9,18.2c-1.5-0.2-3-0.5-4.6-0.5c-6.5,0-12.6,1.7-17.8,4.8v-4.8c0-19.6-16-35.6-35.6-35.6
			s-35.6,15.9-35.6,35.6V83c-5.2-3-11.3-4.8-17.8-4.8c-19.6,0-35.6,15.9-35.6,35.6v4.8c-5.2-3-11.3-4.8-17.8-4.8
			c-19.6,0-35.6,15.9-35.6,35.6v204.4c0,22.3,11.9,42.6,30.7,53.6L114,458.3c-0.7,2.7-0.1,5.5,1.6,7.6c1.7,2.2,4.3,3.4,7,3.4h177.8
			c2.7,0,5.3-1.3,7-3.4c1.7-2.2,2.3-5,1.6-7.6l-1.7-6.7h81.9c2.7,0,5.3-1.3,7-3.4c1.7-2.2,2.3-5,1.6-7.6l-12.7-50.9
			C404.1,378.6,416,358.3,416,336z M277.4,404.9l11.7,46.7h-155l11.7-46.7c1.1-4.2-1.1-8.6-5.1-10.3c-16.3-7-26.8-23.1-26.8-40.8
			V149.3c0-9.8,8-17.8,17.8-17.8c9.8,0,17.8,8,17.8,17.8v97.8c0,4.9,4,8.9,8.9,8.9c4.9,0,8.9-4,8.9-8.9v-97.8v-35.6
			c0-9.8,8-17.8,17.8-17.8c9.8,0,17.8,8,17.8,17.8v133.3c0,4.9,4,8.9,8.9,8.9c4.9,0,8.9-4,8.9-8.9V113.8V78.2
			c0-9.8,8-17.8,17.8-17.8c9.8,0,17.8,8,17.8,17.8v35.6v133.3c0,4.9,4,8.9,8.9,8.9c4.9,0,8.9-4,8.9-8.9V113.8
			c0-9.8,8-17.8,17.8-17.8c9.8,0,17.8,8,17.8,17.8v240c0,17.7-10.5,33.7-26.8,40.8C278.5,396.3,276.3,400.7,277.4,404.9z
			 M371.4,376.8c-4,1.7-6.2,6.1-5.1,10.3l11.7,46.7h-75l-6.6-26.4c16.2-9.5,27.2-25.9,30-44.4l48.4-72.7c8.9-13.3,7.1-31.1-4.2-42.3
			c-7.1-7.1-17.1-10.6-27-9.7c-6.1,0.6-11.7,3-16.5,6.5V113.8c0-11.6-5.6-21.8-14.2-28.3c3.3-4.4,8.5-7.3,14.2-7.3
			c9.8,0,17.8,8,17.8,17.8v26.7v8.9v80c0,4.9,4,8.9,8.9,8.9c4.9,0,8.9-4,8.9-8.9v-80c0-9.8,8-17.8,17.8-17.8c9.8,0,17.8,8,17.8,17.8
			V336C398.2,353.7,387.7,369.7,371.4,376.8z M327.1,329.9V273l6.7-10c2.6-3.9,6.8-6.5,11.6-6.9c4.7-0.5,9.3,1.2,12.7,4.5
			c5.3,5.3,6.1,13.7,2,19.9L327.1,329.9z"/>
	</g>
</g>
<circle class="st1" cx="449.3" cy="56.5" r="21.8"/>
</svg>
