<?xml version="1.0" encoding="utf-8"?>
<!-- Generator: Adobe Illustrator 23.0.1, SVG Export Plug-In . SVG Version: 6.00 Build 0)  -->
<svg version="1.1" id="Layer_1" xmlns="http://www.w3.org/2000/svg" xmlns:xlink="http://www.w3.org/1999/xlink" x="0px" y="0px"
	 viewBox="0 0 400 400" style="enable-background:new 0 0 400 400;" xml:space="preserve">
<style type="text/css">
	.st0{fill:#FFFFFF;}
	.st1{fill:#FFDD00;}
</style>
<g>
	<path class="st0" d="M363.6,320.8l-34.7-57.8l3.1-26.6h4.4c7.8,0,14.2-6.4,14.2-14.2v-16.3c0-7.8-6.4-14.2-14.2-14.2H317V173
		c0,0,0-0.1,0-0.2c0-1.2-0.4-2.2-1.1-3.1c0,0,0,0,0,0l-17.2-21.6V130c0-6-4.9-10.9-10.9-10.9h-20c-0.1-0.3-0.3-0.5-0.4-0.8
		c-2.5-4.6-9.3-10.6-20.2-17.7c-2.3-1.5-3.6-4-3.6-6.7V80.8c2.1-1.1,3.6-3.3,3.6-5.8V47.2c0-9.6-7.8-17.4-17.4-17.4h-18.9
		c-9.6,0-17.4,7.8-17.4,17.4V75c0,2.5,1.5,4.7,3.6,5.8V94c0,2.7-1.4,5.2-3.6,6.7c-1.8,1.2-3.8,2.5-5.9,4c0-0.4,0-0.8,0-1.2
		c0-14.7-11.9-26.6-26.6-26.6c-14.7,0-26.6,11.9-26.6,26.6c0,1.9,0.2,3.8,0.6,5.6c0.6,2.8,1.2,5.5,1.7,7.9
		c-6.1-2.1-13.1-1.2-18.4,3.2c-3.9,3.2-6.4,7.8-6.9,12.8c-0.5,5.1,1,10,4.2,13.9c0.8,1,1.8,2,2.9,2.9l14.8,12
		c-8.4,7.4-13.8,18-14.2,29.9H95.2l-1-2c0.2-0.1,0.3-0.2,0.5-0.2c15.9-8.5,29.2-22.4,23.8-32.6s-24.4-7-40.4,1.5
		c-0.2,0.1-0.3,0.2-0.5,0.2L70.9,146c0.2-0.1,0.3-0.2,0.5-0.2c7.9-4.2,14.8-9.5,19.3-14.9c7.4-8.8,6-14.9,4.5-17.7
		c-1.5-2.8-5.8-7.4-17.2-6.2c-7,0.7-15.2,3.5-23.1,7.7c-0.2,0.1-0.3,0.2-0.5,0.2l-5-9.4c-2.8-5.3-4.2-10.9-4.2-16.9
		c0-13.4,7.3-25.6,19.1-31.8c8.5-4.5,18.2-5.5,27.4-2.6c9.2,2.8,16.8,9,21.3,17.5l8.6,16.2c1.3,2.4,4.3,3.4,6.7,2.1
		c2.4-1.3,3.4-4.3,2.1-6.7l-8.6-16.2c-11.9-22.4-39.8-30.9-62.2-19c-15,8-24.4,23.6-24.4,40.6c0,7.5,1.9,14.9,5.4,21.6l43.4,81.5
		H63.6c-7.8,0-14.2,6.4-14.2,14.2v16.3c0,7.8,6.4,14.2,14.2,14.2H68l3.1,26.6l-34.7,57.8c-2,3.3-2.6,7.2-1.6,10.9
		c0.9,3.7,3.3,6.9,6.6,8.8c1.7,1,3.5,1.6,5.4,1.9c0.7,0.1,1.4,0.1,2,0.1c5,0,9.7-2.6,12.3-7l15.5-25.9l1.1,9.6
		c0.3,2.5,2.5,4.4,4.9,4.4c0.2,0,0.4,0,0.6,0c2.7-0.3,4.7-2.8,4.4-5.5L85,295.7l35.6-59.3h158.9l35.6,59.3l-6.3,53.5
		c-0.7,6.3-6.1,11-12.4,11H103.6c-6.3,0-11.6-4.7-12.4-11l-1.3-11.2c-0.3-2.7-2.8-4.7-5.5-4.4c-2.7,0.3-4.7,2.8-4.4,5.5l1.3,11.2
		c1.3,11.3,10.9,19.8,22.3,19.8h192.8c11.4,0,21-8.5,22.3-19.8l4.8-40.6l15.5,25.9c4.1,6.9,13,9,19.7,4.9
		C365.5,336.4,367.7,327.6,363.6,320.8z M82.7,167.2c16.1-8.5,26.1-7,26.9-5.6c0.7,1.4-3.6,10.6-19.7,19.1c-0.2,0.1-0.3,0.2-0.5,0.2
		l-7.2-13.5C82.4,167.3,82.6,167.2,82.7,167.2z M59.5,123.5c6.7-3.6,13.8-6,19.5-6.6c5-0.5,7.1,0.5,7.4,1c0.2,0.4-0.1,2.8-3.3,6.6
		c-3.7,4.3-9.6,8.9-16.4,12.5c-0.2,0.1-0.3,0.2-0.5,0.2L59,123.7C59.2,123.6,59.3,123.5,59.5,123.5z M320.5,248.9l-7.5-12.6h9
		L320.5,248.9z M219.4,191.7v-17.1l15.7-19.8h56.1l10.4,13H279c-2.8,0-5,2.2-5,5c0,2.8,2.2,5,5,5H307v13.8H219.4z M288.7,130v14.9
		h-51V130c0-0.5,0.4-0.9,0.9-0.9h25.7c0,0,0.1,0,0.1,0c0,0,0.1,0,0.1,0h23.2C288.3,129.1,288.7,129.5,288.7,130z M210.8,39.8h18.9
		c4.1,0,7.4,3.3,7.4,7.4v24.2h-33.8V47.2C203.4,43.1,206.7,39.8,210.8,39.8z M198.8,109c5.1-3.3,8.2-8.9,8.2-15.1V81.4h26.6V94
		c0,6.1,3.1,11.8,8.2,15.1c6.9,4.5,11,7.8,13.5,10.1h-16.5c-6,0-10.9,4.9-10.9,10.9v18.2l-17.2,21.6c-0.7,0.9-1.1,2-1.1,3.1v18.8
		h-6.6c-0.4-11.9-5.8-22.5-14.2-29.9c1.7-1.4,3.6-2.9,6-4.8l8.8-7.1c1.1-0.8,2-1.8,2.9-2.8c3.2-3.9,4.7-8.9,4.2-14
		c-0.5-5.1-3-9.6-6.9-12.8c-3.9-3.2-8.9-4.7-13.9-4.2c-0.3,0-0.6,0.1-0.9,0.1C191.5,113.9,194.9,111.5,198.8,109z M181.4,134.9
		c1.4-1.9,2.6-8.3,9.2-8.9c2.4-0.2,4.8,0.5,6.6,2c1.9,1.5,3,3.7,3.3,6.1c0.3,3.1-1,6.1-3.4,8l-8.8,7.1c-3.6,2.9-6.2,5-8.4,6.7
		c-0.9-0.5-1.8-0.9-2.8-1.3L181.4,134.9z M160.9,86.9c9.2,0,16.6,7.5,16.6,16.6c0,1.2-0.1,2.4-0.4,3.5l-1.9,9.2c0,0,0,0.1,0,0.1
		l-7.5,35.5c-2.2-0.4-4.5-0.5-6.8-0.5c-2.3,0-4.6,0.2-6.8,0.5l-0.1-0.3c-1.7-8.2-3.6-17-9.4-44.5c-0.3-1.2-0.4-2.3-0.4-3.5
		C144.3,94.3,151.7,86.9,160.9,86.9z M123.2,140.7c-3.2-3.9-2.6-9.6,1.3-12.7c4.4-3.6,11.1-2.3,13.8,2.9l2.1,4
		c1.9,8.9,2.9,13.9,3.9,18.7l0.2,1c-0.9,0.4-1.9,0.8-2.8,1.3C123.6,141.2,124.2,141.9,123.2,140.7z M160.9,161.2
		c17.1,0,31.1,13.5,32,30.4h-63.9C129.8,174.7,143.8,161.2,160.9,161.2z M78,236.3h9l-7.5,12.6L78,236.3z M52.5,330.4
		c-0.9,1.5-2.6,2.3-4.4,2.1h0c-0.6-0.1-1.1-0.3-1.6-0.6c-1-0.6-1.7-1.6-2-2.7s-0.1-2.3,0.5-3.3l35.6-59.3c0,0,0,0,0,0l19.5-32.5
		c0.1-0.1,0.1-0.2,0.2-0.3l10.9-18.1c0.6-1,1.6-1.7,2.7-2c0.4-0.1,0.7-0.1,1.1-0.1c0.8,0,1.6,0.2,2.3,0.6c2.1,1.3,2.8,4,1.5,6
		l-5.1,8.5c-0.1,0.1-0.1,0.2-0.2,0.3L52.5,330.4z M126.6,226.4l0.6-1.1c2-3.3,2.5-7.2,1.6-10.9c-0.9-3.7-3.3-6.9-6.6-8.8
		s-7.2-2.6-10.9-1.6c-3.7,0.9-6.9,3.3-8.8,6.6L93,226.4H63.6c-2.3,0-4.2-1.9-4.2-4.2v-16.3c0-2.3,1.9-4.2,4.2-4.2h272.9
		c2.3,0,4.2,1.9,4.2,4.2v16.3c0,2.3-1.9,4.2-4.2,4.2H307l-9.5-15.9c-2-3.3-5.1-5.6-8.8-6.6c-3.7-0.9-7.6-0.4-10.9,1.6
		c-3.3,2-5.6,5.1-6.5,8.8c-0.9,3.7-0.4,7.6,1.6,10.9l0.6,1.1H126.6z M351.9,332.5c-0.1,0-2.9,0.4-4.4-2.1
		c-3.7-6.2-62.7-104.4-66.2-110.3c-1.3-2.1-0.6-4.8,1.5-6c2.1-1.3,4.8-0.6,6,1.5c3.7,6.1,27,45,30.6,51c0,0,0,0,0,0l35.6,59.3
		C356.7,328.6,355,332.1,351.9,332.5z"/>
	<path class="st1" d="M148.5,279.9v-16.5c0-7.3-6-13.3-13.3-13.3c-7.3,0-13.3,6-13.3,13.3v16.5c0,7.3,6,13.3,13.3,13.3
		C142.5,293.2,148.5,287.2,148.5,279.9z M131.9,279.9v-16.5c0-1.8,1.5-3.3,3.3-3.3c1.8,0,3.3,1.5,3.3,3.3v16.5
		c0,1.8-1.5,3.3-3.3,3.3C133.4,283.2,131.9,281.7,131.9,279.9z"/>
	<path class="st1" d="M180.9,333.8v-16.5c0-7.3-6-13.3-13.3-13.3c-7.3,0-13.3,6-13.3,13.3v16.5c0,7.3,6,13.3,13.3,13.3
		C174.9,347.1,180.9,341.1,180.9,333.8z M164.3,333.8v-16.5c0-1.8,1.5-3.3,3.3-3.3c1.8,0,3.3,1.5,3.3,3.3v16.5
		c0,1.8-1.5,3.3-3.3,3.3C165.8,337.1,164.3,335.6,164.3,333.8z"/>
	<path class="st1" d="M213.3,279.9v-16.5c0-7.3-6-13.3-13.3-13.3c-7.3,0-13.3,6-13.3,13.3v16.5c0,7.3,6,13.3,13.3,13.3
		C207.3,293.2,213.3,287.2,213.3,279.9z M196.7,279.9v-16.5c0-1.8,1.5-3.3,3.3-3.3c1.8,0,3.3,1.5,3.3,3.3v16.5
		c0,1.8-1.5,3.3-3.3,3.3C198.2,283.2,196.7,281.7,196.7,279.9z"/>
	<path class="st1" d="M245.7,333.8v-16.5c0-7.3-6-13.3-13.3-13.3c-7.3,0-13.3,6-13.3,13.3v16.5c0,7.3,6,13.3,13.3,13.3
		C239.7,347.1,245.7,341.1,245.7,333.8z M229.1,333.8v-16.5c0-1.8,1.5-3.3,3.3-3.3c1.8,0,3.3,1.5,3.3,3.3v16.5
		c0,1.8-1.5,3.3-3.3,3.3C230.6,337.1,229.1,335.6,229.1,333.8z"/>
	<path class="st1" d="M278.1,279.9v-16.5c0-7.3-6-13.3-13.3-13.3c-7.3,0-13.3,6-13.3,13.3v16.5c0,7.3,6,13.3,13.3,13.3
		C272.1,293.2,278.1,287.2,278.1,279.9z M261.5,279.9v-16.5c0-1.8,1.5-3.3,3.3-3.3s3.3,1.5,3.3,3.3v16.5c0,1.8-1.5,3.3-3.3,3.3
		S261.5,281.7,261.5,279.9z"/>
</g>
</svg>
