<?xml version="1.0" encoding="utf-8"?>
<!-- Generator: Adobe Illustrator 23.0.1, SVG Export Plug-In . SVG Version: 6.00 Build 0)  -->
<svg version="1.1" id="Layer_1" xmlns="http://www.w3.org/2000/svg" xmlns:xlink="http://www.w3.org/1999/xlink" x="0px" y="0px"
	 viewBox="0 0 512 512" style="enable-background:new 0 0 512 512;" xml:space="preserve">
<style type="text/css">
	.st0{fill:#FFDD00;}
	.st1{fill:#FFFFFF;}
</style>
<g>
	<path class="st0" d="M305.7,241.8c-5.1,0-9.7,2.7-12.2,7.1h-10.1c-0.7-2.5-1.7-5-3-7.2l7.1-7.1c1.2,0.3,2.4,0.5,3.6,0.5
		c7.9,0.1,14.3-6.3,14.4-14.1c0.1-7.9-6.3-14.3-14.1-14.4c-7.9-0.1-14.3,6.3-14.4,14.1c0,1.3,0.2,2.5,0.5,3.8l-7.1,7.1
		c-2.3-1.3-4.7-2.4-7.2-3v-10.1c6.8-3.9,9.1-12.6,5.2-19.4c-3.9-6.8-12.6-9.1-19.4-5.2s-9.1,12.6-5.2,19.4c1.2,2.2,3,4,5.2,5.2v10.1
		c-2.5,0.7-5,1.7-7.2,3l-7.1-7.1c1.3-4.9-0.1-10.1-3.6-13.7l0,0c-5.5-5.6-14.5-5.6-20.1,0c-5.6,5.5-5.6,14.5,0,20.1
		c2.7,2.7,6.3,4.2,10.1,4.2c1.2,0,2.4-0.2,3.6-0.5l7.1,7.1c-1.3,2.3-2.4,4.7-3,7.2h-10.1c-3.9-6.8-12.6-9.1-19.4-5.2
		s-9.1,12.6-5.2,19.4s12.6,9.1,19.4,5.2c2.2-1.2,4-3,5.2-5.2h10.1c0.7,2.5,1.7,5,3,7.2l-7.1,7.1c-7.6-2-15.4,2.4-17.4,10
		c-2,7.6,2.4,15.4,10,17.4c7.6,2,15.4-2.4,17.4-10c0.6-2.4,0.7-4.9,0-7.4l7.1-7.1c2.2,1.3,4.7,2.4,7.2,3v10.1
		c-6.8,3.9-9.1,12.6-5.2,19.4c3.9,6.8,12.6,9.1,19.4,5.2c6.8-3.9,9.1-12.6,5.2-19.4c-1.2-2.2-3-4-5.2-5.2v-10.1c2.5-0.7,5-1.7,7.2-3
		l7.1,7.1c-1.3,4.9,0.1,10.1,3.6,13.7l0,0c5.5,5.6,14.5,5.6,20.1,0.1c5.6-5.5,5.6-14.5,0.1-20.1c-3.6-3.6-8.9-5-13.8-3.7l-7.1-7.1
		c1.4-2.3,2.4-4.7,3.1-7.2h10.1c3.9,6.8,12.6,9.1,19.4,5.2c6.8-3.9,9.1-12.6,5.2-19.4C315.5,244.5,310.8,241.8,305.7,241.8z
		 M256,270.2c-7.8,0-14.2-6.4-14.2-14.2c0-7.8,6.4-14.2,14.2-14.2s14.2,6.4,14.2,14.2C270.2,263.8,263.8,270.2,256,270.2z"/>
	<path class="st1" d="M454.8,156.6v-21.3h7.1c3.9,0,7.1-3.2,7.1-7.1V50.1c0-3.9-3.2-7.1-7.1-7.1c-3.9,0-7.1,3.2-7.1,7.1v71H327v-71
		c0-3.9-3.2-7.1-7.1-7.1c-3.9,0-7.1,3.2-7.1,7.1v78.1c0,3.9,3.2,7.1,7.1,7.1h7.1v21.3c0,3.9,3.2,7.1,7.1,7.1v23.7
		c0,5.6-2.3,11.1-6.2,15.1l-3.2,3.3c-27.6-37.9-80.6-46.3-118.5-18.7c-2.4,1.8-4.7,3.6-6.9,5.6v-14.8c0-5.6-2.2-11-6.2-15
		c-5.9-5.8-14.4-7.7-22.2-5.1v-1.2c0-5.6-2.2-11-6.2-15c-5.9-5.8-14.4-7.7-22.2-5.1v-8.3c-0.1-11.8-9.8-21.4-21.6-21.3
		c-0.5,0-1.1,0-1.6,0.1c-11.1,1.3-19.5,10.8-19.4,22v0.4c-2.9-1-6-1.4-9-1.1c-11.1,1.3-19.5,10.8-19.4,22v43
		c-2.3-0.8-4.7-1.2-7.1-1.2h-7.1c-7.8,0-14.2,6.4-14.2,14.2v87.6c0,9.4,3.7,18.4,10.4,25.1l4.7,4.7c4,4,6.2,9.4,6.2,15.1v23.7
		c-3.9,0-7.1,3.2-7.1,7.1v21.3h-7.1c-3.9,0-7.1,3.2-7.1,7.1v63.9c0,3.9,3.2,7.1,7.1,7.1s7.1-3.2,7.1-7.1v-56.8H185v56.8
		c0,3.9,3.2,7.1,7.1,7.1s7.1-3.2,7.1-7.1V398c0-3.9-3.2-7.1-7.1-7.1H185v-21.3c0-3.9-3.2-7.1-7.1-7.1v-23.7c0-5.6,2.3-11.1,6.2-15.1
		l4.7-4.7c1.7-1.7,3.1-3.6,4.4-5.6c31.4,34.6,84.9,37.2,119.6,5.9v0.6c0,7.8,6.4,14.2,14.2,14.2h7.1c2.4,0,4.8-0.4,7.1-1.2v43
		c-0.1,11.2,8.2,20.7,19.3,22c3.1,0.3,6.2-0.1,9.1-1.1v0.4c-0.1,11.2,8.2,20.7,19.3,22c0.7,0.1,1.4,0.1,2.1,0.1
		c5.6,0,11-2.2,14.9-6.2c4.1-4,6.3-9.4,6.3-15.1v-8.3c7.7,2.5,16.2,0.6,22.1-5c4.1-4,6.3-9.4,6.3-15.1v-1.2c7.7,2.5,16.2,0.6,22.1-5
		c4.1-4,6.3-9.4,6.3-15.1v-116c0-9.4-3.7-18.4-10.4-25.1l-4.7-4.7c-4-4-6.2-9.4-6.2-15.1v-23.7C451.6,163.7,454.8,160.5,454.8,156.6
		z M341.2,135.3h99.4v14.2h-99.4V135.3z M170.8,390.9H71.4v-14.2h99.4V390.9z M183.8,300.9c-1,3-2.8,5.8-5,8l-4.7,4.7
		c-6.6,6.7-10.4,15.7-10.4,25.1v23.7H78.5v-23.7c0-9.4-3.7-18.4-10.4-25.1l-4.7-4.7c-4-4-6.2-9.4-6.2-15.1v-87.6h7.1
		c3.9,0,7.1,3.2,7.1,7.1v21.3c0,3.9,3.2,7.1,7.1,7.1c11.7,0,21.3,9.6,21.3,21.3c0,3.9,3.2,7.1,7.1,7.1c3.9,0,7.1-3.2,7.1-7.1
		c0-16.9-11.9-31.4-28.4-34.8v-78c-0.1-3.9,2.7-7.3,6.5-7.8c2.1-0.2,4.2,0.6,5.6,2.1c1.3,1.3,2.1,3,2.1,4.9v63.9
		c0,3.9,3.2,7.1,7.1,7.1c3.9,0,7.1-3.2,7.1-7.1V129c-0.1-3.9,2.7-7.3,6.5-7.8c2.1-0.3,4.2,0.5,5.6,2.1c1.3,1.3,2.1,3,2.1,4.9v85.2
		c0,3.9,3.2,7.1,7.1,7.1c3.9,0,7.1-3.2,7.1-7.1v-56.8c0-3.9,3.2-7.1,7.1-7.1c1.9,0,3.8,0.8,5,2.2c1.3,1.3,2.1,3,2.1,4.9v56.8
		c0,3.9,3.2,7.1,7.1,7.1s7.1-3.2,7.1-7.1v-35.5c0-3.9,3.2-7.1,7.1-7.1c1.9,0,3.8,0.8,5,2.2c1.3,1.3,2.1,3,2.1,4.9V209
		C166.5,236.7,166,272.7,183.8,300.9z M256,327c-39.2,0-71-31.8-71-71s31.8-71,71-71s71,31.8,71,71C326.9,295.2,295.2,326.9,256,327
		z M448.6,217.2c4,4,6.2,9.4,6.2,15.1v116c0,1.9-0.8,3.8-2.2,5c-1.3,1.3-3,2.1-4.9,2.1c-3.9,0-7.1-3.2-7.1-7.1v-35.5
		c0-3.9-3.2-7.1-7.1-7.1c-3.9,0-7.1,3.2-7.1,7.1v56.8c0,1.9-0.8,3.8-2.2,5c-1.3,1.3-3,2.1-4.9,2.1c-3.9,0-7.1-3.2-7.1-7.1v-56.8
		c0-3.9-3.2-7.1-7.1-7.1c-3.9,0-7.1,3.2-7.1,7.1V398c0,1.9-0.8,3.7-2.1,5c-1.5,1.5-3.5,2.2-5.6,2c-3.8-0.6-6.6-3.9-6.5-7.8v-84.4
		c0-3.9-3.2-7.1-7.1-7.1c-3.9,0-7.1,3.2-7.1,7.1v63.9c0,1.9-0.8,3.7-2.1,5c-1.5,1.5-3.5,2.2-5.6,2c-3.8-0.6-6.6-3.9-6.5-7.8v-78
		c16.5-3.4,28.4-17.9,28.4-34.8c0-3.9-3.2-7.1-7.1-7.1c-3.9,0-7.1,3.2-7.1,7.1c0,11.7-9.6,21.3-21.3,21.3c-3.9,0-7.1,3.2-7.1,7.1
		v21.3c0,3.9-3.2,7.1-7.1,7.1H327V303c16.8-25.2,18.8-57.6,5.3-84.7c0.4-0.4,0.6-0.7,1-1.1l4.7-4.7c6.6-6.7,10.4-15.7,10.4-25.1
		v-23.7h85.2v23.7c0,9.4,3.7,18.4,10.4,25.1L448.6,217.2z"/>
	<path class="st0" d="M319.9,390.9h-8.1c-0.7-2.5-1.7-5-3-7.2l5.7-5.8c2.7-2.8,2.6-7.3-0.2-10c-2.8-2.7-7.1-2.7-9.9,0l-5.7,5.8
		c-2.3-1.3-4.7-2.4-7.2-3v-8.1c0-3.9-3.2-7.1-7.1-7.1c-3.9,0-7.1,3.2-7.1,7.1v8.1c-2.5,0.7-5,1.7-7.2,3l-5.7-5.8
		c-2.7-2.8-7.2-2.9-10-0.2c-2.8,2.7-2.9,7.2-0.2,10c0.1,0.1,0.1,0.1,0.2,0.2l5.7,5.8c-1.3,2.3-2.4,4.7-3,7.2h-8.1
		c-3.9,0-7.1,3.2-7.1,7.1s3.2,7.1,7.1,7.1h8.1c0.7,2.5,1.7,5,3,7.2l-5.7,5.8c-2.8,2.7-2.9,7.2-0.2,10c2.7,2.8,7.2,2.9,10,0.2
		c0.1-0.1,0.1-0.1,0.2-0.2l5.7-5.8c2.3,1.3,4.7,2.4,7.2,3v8.1c0,3.9,3.2,7.1,7.1,7.1c3.9,0,7.1-3.2,7.1-7.1v-8.1
		c2.5-0.7,5-1.7,7.2-3l5.7,5.8c2.8,2.7,7.3,2.6,10-0.2c2.7-2.8,2.7-7.1,0-9.9l-5.7-5.8c1.3-2.3,2.4-4.7,3-7.2h8.1
		c3.9,0,7.1-3.2,7.1-7.1S323.8,390.9,319.9,390.9z M284.4,412.2c-7.8,0-14.2-6.4-14.2-14.2s6.4-14.2,14.2-14.2s14.2,6.4,14.2,14.2
		S292.2,412.2,284.4,412.2z"/>
	<path class="st0" d="M192.1,106.9h8.1c0.7,2.5,1.7,5,3,7.2l-5.7,5.8c-2.8,2.7-2.9,7.2-0.2,10c2.7,2.8,7.2,2.9,10,0.2
		c0.1-0.1,0.1-0.1,0.2-0.2l5.7-5.8c2.3,1.3,4.7,2.4,7.2,3v8.1c0,3.9,3.2,7.1,7.1,7.1s7.1-3.2,7.1-7.1v-8.1c2.5-0.7,5-1.7,7.2-3
		l5.7,5.8c2.8,2.7,7.3,2.6,10-0.2c2.7-2.8,2.7-7.1,0-9.9l-5.7-5.8c1.3-2.3,2.4-4.7,3-7.2h8.1c3.9,0,7.1-3.2,7.1-7.1
		c0-3.9-3.2-7.1-7.1-7.1H255c-0.7-2.5-1.7-5-3-7.2l5.7-5.8c2.7-2.8,2.6-7.3-0.2-10c-2.8-2.7-7.1-2.7-9.9,0l-5.7,5.8
		c-2.3-1.3-4.7-2.4-7.2-3v-8.1c0-3.9-3.2-7.1-7.1-7.1s-7.1,3.2-7.1,7.1v8.1c-2.5,0.7-5,1.7-7.2,3l-5.7-5.8c-2.8-2.7-7.3-2.6-10,0.2
		c-2.7,2.8-2.7,7.1,0,9.9l5.7,5.8c-1.3,2.3-2.4,4.7-3,7.2h-8.1c-3.9,0-7.1,3.2-7.1,7.1C185,103.7,188.2,106.9,192.1,106.9z
		 M227.6,85.6c7.8,0,14.2,6.4,14.2,14.2s-6.4,14.2-14.2,14.2s-14.2-6.4-14.2-14.2S219.8,85.6,227.6,85.6z"/>
</g>
</svg>
