<?xml version="1.0" encoding="utf-8"?>
<!-- Generator: Adobe Illustrator 23.0.1, SVG Export Plug-In . SVG Version: 6.00 Build 0)  -->
<svg version="1.1" id="Capa_1" xmlns="http://www.w3.org/2000/svg" xmlns:xlink="http://www.w3.org/1999/xlink" x="0px" y="0px"
	 viewBox="0 0 512 512" style="enable-background:new 0 0 512 512;" xml:space="preserve">
<style type="text/css">
	.st0{fill:#FFDD00;}
	.st1{fill:#FFFFFF;}
</style>
<polygon class="st0" points="165,256 356,256 356,281 336.1,311.3 304,340 256,353 200.7,343.4 171,311.3 150.7,273 150.7,256 "/>
<g>
	<path class="st1" d="M208.4,221.7v6.9c0,3.5,2.9,6.4,6.4,6.4s6.4-2.9,6.4-6.4v-6.9c0-3.5-2.9-6.4-6.4-6.4S208.4,218.2,208.4,221.7z
		"/>
	<path class="st1" d="M290.7,221.7v6.9c0,3.5,2.9,6.4,6.4,6.4c3.5,0,6.4-2.9,6.4-6.4v-6.9c0-3.5-2.9-6.4-6.4-6.4
		C293.6,215.3,290.7,218.2,290.7,221.7z"/>
	<path class="st1" d="M227.9,192.7c-0.9-3.4-4.3-5.5-7.8-4.7l-27.4,6.9c-3.4,0.9-5.5,4.3-4.7,7.8c0.7,2.9,3.3,4.9,6.2,4.9
		c0.5,0,1-0.1,1.6-0.2l27.4-6.9C226.7,199.6,228.8,196.2,227.9,192.7z"/>
	<path class="st1" d="M317.7,207.6c2.9,0,5.5-1.9,6.2-4.9c0.9-3.4-1.2-6.9-4.7-7.8l-27.4-6.9c-3.4-0.9-6.9,1.2-7.8,4.7
		c-0.9,3.4,1.2,6.9,4.7,7.8l27.4,6.9C316.7,207.5,317.2,207.6,317.7,207.6z"/>
	<path class="st1" d="M410.1,422.2l-71.2-22.3c-8.8-2.8-14.7-10.8-14.7-20.1v-14.1c0-3.5-2.9-6.4-6.4-6.4c-3.5,0-6.4,2.9-6.4,6.4
		v14.1c0,10.7,4.9,20.4,12.9,26.6c-18,18-42.6,28.3-68.2,28.3c-25.6,0-50.2-10.2-68.2-28.3c8-6.3,12.9-16,12.9-26.6v-36.5
		c16.6,9.8,35.6,15,55.3,15c27.9,0,54.5-10.5,74.8-29.6c18.7-17.6,30.5-41,33.6-66.4h8.2c7.4,0,14.5-3.1,19.6-8.4
		c5.1-5.4,7.8-12.5,7.4-20c-0.5-9.3-5.9-17.3-13.7-21.7V112c0-41.3-33.6-75-75-75h-89.1c-13.7,0-25.8,8.2-31,20.6h-10.1
		c-30,0-54.4,24.4-54.4,54.4v78.2c0,3.5,2.9,6.4,6.4,6.4s6.4-2.9,6.4-6.4V112c0-22.9,18.7-41.6,41.6-41.6h14.7c2.9,0,5.5-2,6.2-4.8
		c2.4-9.3,10.7-15.8,20.2-15.8h89.1c34.3,0,62.2,27.9,62.2,62.2v96.5c-0.5,0-1.1,0-1.6,0h-5.7c-7.8,0-14.2-6.4-14.2-14.2V160
		c0-18.7-15.2-33.8-33.8-33.8c-3.5,0-6.4,2.9-6.4,6.4s2.9,6.4,6.4,6.4c11.6,0,21,9.4,21,21v34.3c0,10.1,5.5,18.8,13.7,23.5v17.7
		c0,7.8-6.4,14.2-14.2,14.2H173.7c-7.8,0-14.2-6.4-14.2-14.2v-17.7c8.2-4.6,13.7-13.4,13.7-23.5V160c0-11.6,9.4-21,21-21h96
		c3.5,0,6.4-2.9,6.4-6.4s-2.9-6.4-6.4-6.4h-96c-18.7,0-33.8,15.2-33.8,33.8v34.3c0,7.8-6.4,14.2-14.2,14.2h-5.7
		c-15,0-27.4,11.2-28.1,25.5c-0.4,7.5,2.2,14.6,7.4,20c5.1,5.3,12.2,8.4,19.6,8.4h8.2c3.1,25.3,14.9,48.7,33.6,66.4
		c2.1,2,4.4,3.9,6.6,5.8v45.3c0,9.2-5.9,17.3-14.7,20.1l-71.2,22.3c-14.2,4.4-23.8,17.4-23.8,32.3v14.1c0,3.5,2.9,6.4,6.4,6.4
		s6.4-2.9,6.4-6.4v-14.1c0-9.2,5.9-17.3,14.7-20.1l41.7-13c12.2,15.9,27.9,29.1,45.6,38.3c19.3,10,41.1,15.3,63,15.3
		c21.8,0,43.5-5.2,62.7-15.2c17.8-9.2,33.6-22.5,45.9-38.4l41.7,13c8.8,2.8,14.7,10.8,14.7,20.1v14.1c0,3.5,2.9,6.4,6.4,6.4
		c3.5,0,6.4-2.9,6.4-6.4v-14.1C433.9,439.6,424.3,426.6,410.1,422.2L410.1,422.2z M365.3,221.3C365.3,221.3,365.3,221.3,365.3,221.3
		z M365.3,235.4v-14.2h6.1c8,0,14.9,6,15.3,13.4c0.2,3.9-1.2,7.7-3.9,10.5c-2.7,2.8-6.3,4.4-10.3,4.4h-11.3
		C363.8,245.5,365.3,240.6,365.3,235.4z M139.4,249.6c-3.9,0-7.6-1.6-10.3-4.4c-2.7-2.8-4.1-6.6-3.9-10.5
		c0.4-7.4,7.3-13.4,15.3-13.4h6.1v14.2c0,5.2,1.5,10,4,14.2L139.4,249.6L139.4,249.6z M160.6,262.4h190.8c-0.7,5-1.8,9.9-3.2,14.6
		H228.6c-3.5,0-6.4,2.9-6.4,6.4c0,3.5,2.9,6.4,6.4,6.4h103.3c-18.2,13.4-46.1,21.5-75.9,21.5c-29.8,0-57.7-8-75.9-21.5h21
		c3.5,0,6.4-2.9,6.4-6.4c0-3.5-2.9-6.4-6.4-6.4h-37.4C162.4,272.3,161.3,267.4,160.6,262.4L160.6,262.4z M175.9,302.6
		c20.4,13.7,49,21.6,80.1,21.6c31.1,0,59.8-7.9,80.1-21.6c-17.4,26-47,43-80.1,43S193.2,328.6,175.9,302.6L175.9,302.6z
		 M312.8,448.4c-17.7,9.1-36.8,13.7-56.8,13.7c-36.9,0-72-16.7-95.4-44.9l15.2-4.8c20.7,22.3,49.8,35.1,80.2,35.1
		c30.5,0,59.5-12.7,80.2-35.1l15.2,4.8C340.8,430.1,327.5,440.8,312.8,448.4L312.8,448.4z"/>
</g>
</svg>
