<?xml version="1.0" encoding="utf-8"?>
<!-- Generator: Adobe Illustrator 23.0.1, SVG Export Plug-In . SVG Version: 6.00 Build 0)  -->
<svg version="1.1" id="Capa_1" xmlns="http://www.w3.org/2000/svg" xmlns:xlink="http://www.w3.org/1999/xlink" x="0px" y="0px"
	 viewBox="0 0 512 512" style="enable-background:new 0 0 512 512;" xml:space="preserve">
<style type="text/css">
	.st0{fill:#FFDD00;}
	.st1{fill:#FFFFFF;}
</style>
<g>
	<path class="st0" d="M103.6,205.9c4.8,0,8.8-3.9,8.8-8.8v-11.4c0-4.8-3.9-8.8-8.8-8.8c-4.8,0-8.8,3.9-8.8,8.8v11.4
		C94.9,201.9,98.8,205.9,103.6,205.9z"/>
	<path class="st0" d="M159.7,205.9c4.8,0,8.8-3.9,8.8-8.8v-11.4c0-4.8-3.9-8.8-8.8-8.8s-8.8,3.9-8.8,8.8v11.4
		C151,201.9,154.9,205.9,159.7,205.9z"/>
	<path class="st0" d="M215.8,205.9c4.8,0,8.8-3.9,8.8-8.8v-11.4c0-4.8-3.9-8.8-8.8-8.8s-8.8,3.9-8.8,8.8v11.4
		C207,201.9,211,205.9,215.8,205.9z"/>
	<path class="st0" d="M271.9,205.9c4.8,0,8.8-3.9,8.8-8.8v-11.4c0-4.8-3.9-8.8-8.8-8.8s-8.8,3.9-8.8,8.8v11.4
		C263.1,201.9,267,205.9,271.9,205.9z"/>
	<path class="st0" d="M103.6,256.3c4.8,0,8.8-3.9,8.8-8.7v-11.3c0-4.8-3.9-8.8-8.8-8.8c-4.8,0-8.8,3.9-8.8,8.8v11.3
		C94.9,252.4,98.8,256.3,103.6,256.3z"/>
	<path class="st0" d="M159.7,256.3c4.8,0,8.8-3.9,8.8-8.7v-11.3c0-4.8-3.9-8.8-8.8-8.8s-8.8,3.9-8.8,8.8v11.3
		C151,252.4,154.9,256.3,159.7,256.3z"/>
	<path class="st0" d="M215.8,256.3c4.8,0,8.8-3.9,8.8-8.7v-11.3c0-4.8-3.9-8.8-8.8-8.8s-8.8,3.9-8.8,8.8v11.3
		C207,252.4,211,256.3,215.8,256.3z"/>
	<path class="st0" d="M271.9,256.3c4.8,0,8.8-3.9,8.8-8.7v-11.3c0-4.8-3.9-8.8-8.8-8.8s-8.8,3.9-8.8,8.8v11.3
		C263.1,252.4,267,256.3,271.9,256.3z"/>
	<path class="st1" d="M471.2,419H465V230.8c0-9.8-8-17.7-17.7-17.7H328.5v-60.8c7-3.9,11.7-11.3,11.7-19.8v-12.7
		c0-12.5-10.2-22.7-22.7-22.7h-68.3V86.3C249.3,56.3,225,32,195,32h-14.6c-29.9,0-54.3,24.3-54.3,54.3v10.8H57.9
		c-12.5,0-22.7,10.2-22.7,22.7v12.7c0,8.5,4.7,16,11.7,19.8V419h-6.2c-4.8,0-8.8,3.9-8.8,8.8v43.5c0,4.8,3.9,8.8,8.8,8.8h159.5
		c4.8,0,8.8-3.9,8.8-8.8s-3.9-8.8-8.8-8.8H49.5v-26h413v26H278.8c-4.8,0-8.8,3.9-8.8,8.8s3.9,8.8,8.8,8.8h192.5
		c4.8,0,8.8-3.9,8.8-8.8v-43.5C480,422.9,476.1,419,471.2,419z M447.3,230.6c0.1,0,0.2,0.1,0.2,0.2V419h-32.3v-38.3h3.6
		c4.8,0,8.8-3.9,8.8-8.8s-3.9-8.8-8.8-8.8h-63.7c-4.8,0-8.8,3.9-8.8,8.8s3.9,8.8,8.8,8.8h3.6V419h-30.2V230.6L447.3,230.6z
		 M397.7,380.7V419h-21.4v-38.3H397.7z M135,155.1h105.6H311v223.8h-77.4v-27.6h14.6c4.8,0,8.8-3.9,8.8-8.8s-3.9-8.8-8.8-8.8H121
		c-4.8,0-8.8,3.9-8.8,8.8s3.9,8.8,8.8,8.8h14.6v27.6H64.5V155.1L135,155.1z M153.1,351.3h22.8V419h-22.8V351.3z M193.4,351.3h22.8
		V419h-22.8V351.3z M233.6,396.4H311V419h-77.4L233.6,396.4z M317.6,114.6c2.8,0,5.2,2.4,5.2,5.2v12.7c0,2.8-2.4,5.2-5.2,5.2h-68.3
		v-23H317.6z M143.7,86.3c0-20.3,16.5-36.8,36.8-36.8H195c20.3,0,36.8,16.5,36.8,36.8v51.3h-88.1L143.7,86.3z M52.7,119.8
		c0-2.8,2.4-5.2,5.2-5.2h68.3v23H57.9c-2.8,0-5.2-2.4-5.2-5.2V119.8z M64.5,396.4h71.1V419H64.5L64.5,396.4z"/>
	<path class="st0" d="M166.9,102.3H179v12.1c0,4.8,3.9,8.8,8.8,8.8c4.8,0,8.8-3.9,8.8-8.8v-12.1h12.1c4.8,0,8.8-3.9,8.8-8.8
		c0-4.8-3.9-8.8-8.8-8.8h-12.1V72.7c0-4.8-3.9-8.8-8.8-8.8c-4.8,0-8.8,3.9-8.8,8.8v12.1h-12.1c-4.8,0-8.8,3.9-8.8,8.8
		C158.1,98.4,162,102.3,166.9,102.3z"/>
	<path class="st0" d="M103.6,306.7c4.8,0,8.8-3.9,8.8-8.8v-11.4c0-4.8-3.9-8.8-8.8-8.8c-4.8,0-8.8,3.9-8.8,8.8V298
		C94.9,302.8,98.8,306.7,103.6,306.7z"/>
	<path class="st0" d="M159.7,306.7c4.8,0,8.8-3.9,8.8-8.8v-11.4c0-4.8-3.9-8.8-8.8-8.8s-8.8,3.9-8.8,8.8V298
		C151,302.8,154.9,306.7,159.7,306.7z"/>
	<path class="st0" d="M215.8,306.7c4.8,0,8.8-3.9,8.8-8.8v-11.4c0-4.8-3.9-8.8-8.8-8.8s-8.8,3.9-8.8,8.8V298
		C207,302.8,211,306.7,215.8,306.7z"/>
	<path class="st0" d="M271.9,306.7c4.8,0,8.8-3.9,8.8-8.8v-11.4c0-4.8-3.9-8.8-8.8-8.8s-8.8,3.9-8.8,8.8V298
		C263.1,302.8,267,306.7,271.9,306.7z"/>
	<path class="st0" d="M360,287.7c4.8,0,8.8-3.9,8.8-8.8v-11.3c0-4.8-3.9-8.8-8.8-8.8c-4.8,0-8.8,3.9-8.8,8.8V279
		C351.2,283.8,355.2,287.7,360,287.7z"/>
	<path class="st0" d="M416.1,287.7c4.8,0,8.8-3.9,8.8-8.8v-11.3c0-4.8-3.9-8.8-8.8-8.8s-8.8,3.9-8.8,8.8V279
		C407.3,283.8,411.2,287.7,416.1,287.7z"/>
	<path class="st0" d="M360,338.2c4.8,0,8.8-3.9,8.8-8.8v-11.4c0-4.8-3.9-8.8-8.8-8.8c-4.8,0-8.8,3.9-8.8,8.8v11.4
		C351.2,334.3,355.2,338.2,360,338.2z"/>
	<path class="st0" d="M416.1,338.2c4.8,0,8.8-3.9,8.8-8.8v-11.4c0-4.8-3.9-8.8-8.8-8.8s-8.8,3.9-8.8,8.8v11.4
		C407.3,334.3,411.2,338.2,416.1,338.2z"/>
	<path class="st1" d="M239.5,462.5c-4.8,0-8.8,3.9-8.8,8.8s3.9,8.8,8.8,8.8h0c4.8,0,8.7-3.9,8.7-8.8S244.3,462.5,239.5,462.5z"/>
</g>
</svg>
