<?xml version="1.0" encoding="utf-8"?>
<!-- Generator: Adobe Illustrator 23.0.1, SVG Export Plug-In . SVG Version: 6.00 Build 0)  -->
<svg version="1.1" id="Layer_1" xmlns="http://www.w3.org/2000/svg" xmlns:xlink="http://www.w3.org/1999/xlink" x="0px" y="0px"
	 viewBox="0 0 512 512" style="enable-background:new 0 0 512 512;" xml:space="preserve">
<style type="text/css">
	.st0{fill:#FFFFFF;}
	.st1{fill:#FFDD00;}
	.st2{fill:none;}
</style>
<g>
	<path class="st0" d="M46.3,447.4c-2.5,0-4.5-2-4.5-4.5v-28.8c0-2.5,2-4.5,4.5-4.5c2.5,0,4.5,2,4.5,4.5v24.3h26.3v-56.2
		c0-2.5,2-4.5,4.5-4.5c2.5,0,4.5,2,4.5,4.5v56.2h102.6v-56.2c0-2.5,2-4.5,4.5-4.5c2.5,0,4.5,2,4.5,4.5v56.2h26.3v-67.8
		c0-23.2-16.4-43.7-38.9-48.7l-1.3-0.3l-14.4,10.5c-9.4,6.8-20.4,10.4-31.9,10.4c-11.5,0-22.5-3.6-31.9-10.4l-15-10.9l1.9,7.9
		c5,21,23.5,35.6,45,35.6c18.6,0,35.4-11.1,42.7-28.3c0.7-1.7,2.3-2.7,4.1-2.7c0.6,0,1.2,0.1,1.7,0.4c2.3,1,3.3,3.6,2.4,5.9
		c-8.7,20.5-28.7,33.7-50.9,33.7c-26.9,0-49.8-19.2-54.4-45.7l-0.7-3.9l-3.6,1.8c-16.9,8.4-27.9,26-27.9,44.9v16.2
		c0,2.5-2,4.5-4.5,4.5c-2.5,0-4.5-2-4.5-4.5v-16.2c0-23.2,13.7-44.4,34.9-53.8l4.7-2.1l-10.1-7.3c-20-14.6-31.1-38-29.6-62.8
		l0.1-2.4l-2.3-0.7c-9.8-2.8-16.7-11.9-16.7-22.2c0-12.3,9.6-22.4,21.9-23.1l2.3-0.1l0.5-2.3c5.9-29.9,26.1-54.8,54.2-66.7
		c0.6-0.2,1.1-0.4,1.7-0.4c1.8,0,3.4,1.1,4.1,2.7c0.5,1.1,0.5,2.3,0,3.4c-0.4,1.1-1.3,2-2.4,2.4c-22.3,9.4-39.3,28.2-46.6,51.3
		l-1,3.1l3.2,0.7c10.1,2.3,20,3.4,29.4,3.4c35.6,0,59.7-16.3,73.6-30l1.5-1.5l-0.9-1.9c-0.7-1.5-1.3-3.2-1.6-4.8l-0.4-2.1l-30.2-3.2
		c-6.6-0.7-12.1-4.7-14.8-10.8c-2.7-6-2-12.8,1.9-18.2l16.2-22.2c3.5-4.8,8.8-7.5,14.7-7.5c0.7,0,1.3,0,2,0.1
		c6.6,0.7,12.1,4.7,14.8,10.8l12.3,27.7l2.2-0.2c0.8-0.1,1.5-0.1,2.3-0.1c10.1,0,18.9,7.2,20.9,17l0.4,2.1l9.8,1
		c2.5,0.3,4.2,2.5,4,4.9c-0.2,2.3-2.2,4-4.4,4c-0.2,0-0.3,0-0.5,0l-9.8-1l-0.9,2c-1.2,2.8-3,5.2-5.3,7.3l-1.6,1.5l12.3,27.8
		c1.4,3.1,4.2,5.1,7.5,5.5c0.3,0,0.6,0.1,1,0.1c3,0,5.7-1.4,7.5-3.8l16.2-22.2c2-2.7,2.4-6.2,1-9.3c-1.4-3.1-4.2-5.1-7.5-5.5
		c-1.2-0.1-2.3-0.7-3-1.6c-0.8-0.9-1.1-2.1-1-3.3c0.2-2.3,2.2-4,4.4-4c0.2,0,0.3,0,0.5,0c6.6,0.7,12.1,4.7,14.8,10.8
		c2.7,6,2,12.8-1.9,18.2l-11.7,16.1l3.1,1.6c7.6,4,12.4,11.9,12.4,20.4c0,10.3-6.9,19.4-16.7,22.2l-2.3,0.7l0.1,2.4
		c1.5,24.8-9.6,48.2-29.6,62.8l-10.1,7.3l4.7,2.1c21.2,9.5,34.9,30.6,34.9,53.8v72.3c0,2.5-2,4.5-4.5,4.5H46.3z M55.3,202.3
		l-4.4,39.6c-2.5,22.5,7.4,44.8,25.7,58.2l34.1,24.7c7.8,5.7,17,8.7,26.6,8.7s18.8-3,26.6-8.7l34.1-24.7
		c18.4-13.3,28.2-35.6,25.7-58.2l-3.4-31.1l-2.7,0c0,0-0.3,0-0.4,0c-0.7,0-1.4,0-2-0.1c-6.6-0.7-12.1-4.7-14.8-10.8l-12.3-27.7
		l-2.2,0.2c-0.8,0.1-1.5,0.1-2.3,0.1c-3.6,0-7.1-0.9-10.3-2.6l-2-1.1l-1.6,1.6c-1.1,1-2.1,2-3.2,3l-2.1,1.9l1.8,2.2
		c3.6,4.4,9.7,10.6,18.4,15.6c2,1.2,2.8,3.6,1.9,5.7c-0.7,1.6-2.3,2.7-4.1,2.7c-0.8,0-1.6-0.2-2.3-0.6c-10-5.7-16.9-12.9-21-17.8
		l-1.8-2.2l-2.3,1.6c-19,13.5-40.8,20.3-64.8,20.3c-10,0-20.6-1.2-31.5-3.7l-3.2-0.7C55.8,198.5,55.3,202.2,55.3,202.3z"/>
</g>
<g>
	<path class="st0" d="M273.9,447.4c-2.5,0-4.5-2-4.5-4.5v-89.2c0-24.1,14.1-46.2,36-56.4l4.6-2.1l-5.7-4.2
		c-19.3-14.1-30.1-37.6-27.9-61.4l0.2-2.4l-2.3-0.7c-9.9-3.3-16.6-12.5-16.6-23c0-12.1,9.1-22.4,21.1-24l2.4-0.3l0.9-9.6l-0.5-0.8
		c-4.1-7.4-16.8-33.1-7.4-54.4c10.7-24.2,43-50,101.3-50c17.2,0,34.5,3.5,49.9,10.1c2.3,1,3.3,3.6,2.4,5.9c-0.7,1.7-2.3,2.7-4.1,2.7
		c-0.6,0-1.2-0.1-1.8-0.4c-14.3-6.1-30.4-9.3-46.4-9.3c-33.8,0-78.4,11.7-93.1,44.7c-2.9,6.5-6,20.9,5.7,43.9l1,1.9l2.1-0.3
		c6.8-1,29.5-5.2,39.2-18.6l1.6-2.2l-2.1-1.8c-1.4-1.2-2.6-2.4-3.8-3.6c-0.8-0.8-1.3-2-1.3-3.2c0-1.2,0.5-2.3,1.3-3.2
		c0.8-0.8,2-1.3,3.2-1.3c1.2,0,2.3,0.5,3.2,1.3c2.6,2.6,5.1,4.7,7.6,6.5c4.9,3.5,12.9,8.1,25.8,8.1c9.2,0,19.8-2.4,31.6-7.1
		c8.6-3.5,17.4-5.2,26.3-5.2c12.8,0,25.7,3.6,38.3,10.7c3.8,2.2,7.6,4.7,11.3,7.5l6.4,4.8l-1.6-7.8c-4.8-23.4-18.4-43-39.4-56.8
		c-1-0.7-1.7-1.7-1.9-2.8c-0.2-1.2,0-2.4,0.6-3.4c0.8-1.3,2.2-2,3.7-2c0.9,0,1.7,0.3,2.4,0.7c29.2,19.2,45.3,48.9,45.3,83.5
		c0,1.9-1.2,3.6-2.9,4.2c-0.5,0.2-1,0.3-1.5,0.3c-1.3,0-2.6-0.6-3.4-1.6c-0.1-0.1-9.1-10.8-23.8-19c-11.1-6.2-22.3-9.4-33.4-9.4
		c-7.7,0-15.5,1.5-23,4.6c-12.8,5.2-24.5,7.8-34.8,7.8c-8.8,0-17-1.9-24.3-5.6l-2.3-1.2l-1.5,2.1c-11.1,15.7-35,20.9-44.8,22.3
		l-2.3,0.3l-5.5,57.2c-2,20.9,7.3,41.5,24.2,53.8l34.7,25.2c7.6,5.5,16.5,8.4,25.9,8.4c9.3,0,18.3-2.9,25.9-8.4l34.7-25.2
		c17-12.3,26.3-33,24.2-53.8l-5.9-60.9c-0.1-1.2,0.2-2.4,1-3.3s1.8-1.5,3-1.6c0.1,0,0.3,0,0.4,0c2.3,0,4.2,1.7,4.5,4l1.1,11.1
		l2.4,0.3c12,1.6,21.1,11.9,21.1,24c0,10.5-6.6,19.7-16.5,23l-2.3,0.7l0.2,2.4c2.1,23.8-8.6,47.4-27.9,61.4l-5.7,4.2l4.6,2.1
		c3,1.4,6,3.1,8.7,4.9c2,1.4,2.6,4.2,1.2,6.2c-0.8,1.2-2.2,2-3.7,2c-0.9,0-1.8-0.3-2.5-0.8c-2.2-1.5-4.4-2.8-6.8-3.9l-3.6-1.7
		l-0.7,3.9c-4.7,28.2-28.8,48.6-57.4,48.6c-13.1,0-26-4.5-36.3-12.7c-0.9-0.7-1.5-1.8-1.7-3c-0.1-1.2,0.2-2.4,0.9-3.3
		c0.9-1.1,2.1-1.7,3.5-1.7c1,0,2,0.3,2.8,1c8.8,7,19.4,10.7,30.7,10.7c22.4,0,42-15.2,47.7-36.9l2.1-8.1l-18.6,13.5
		c-9.1,6.6-19.9,10.2-31.1,10.2c-11.2,0-22-3.5-31.1-10.2l-18.6-13.5l2.1,8.1c1,3.9,2.5,7.6,4.4,11.1c0.6,1,0.7,2.3,0.4,3.4
		c-0.3,1.1-1.1,2.1-2.2,2.7c-0.7,0.4-1.4,0.5-2.1,0.5c-1.6,0-3.2-0.9-3.9-2.3c-3.1-5.7-5.2-11.8-6.3-18.2l-0.7-3.9l-3.6,1.7
		c-18.3,8.8-30.2,27.6-30.2,47.9v43.3h28.4v-31c0-2.5,2-4.5,4.5-4.5c2.5,0,4.5,2,4.5,4.5v72.4h109v-72.4c0-2.5,2-4.5,4.5-4.5
		c2.5,0,4.5,2,4.5,4.5v31h28.4v-43.3c0-10.5-3-20.6-8.8-29.3c-0.7-1-0.9-2.2-0.7-3.4s0.9-2.2,1.9-2.8c0.7-0.5,1.6-0.7,2.5-0.7
		c1.5,0,2.9,0.8,3.7,2c6.7,10.2,10.3,22,10.3,34.2v89.2c0,2.5-2,4.5-4.5,4.5H273.9z"/>
</g>
<path class="st1" d="M275,213.6c-3.1-2.2-5.2-5.9-5.2-10c0-5,3-9.2,7.2-11.1L275,213.6z"/>
<rect x="436.7" y="409" class="st1" width="22.4" height="26.4"/>
<rect x="281.4" y="409" class="st1" width="22.4" height="26.4"/>
<path class="st1" d="M470.6,203.6c0,4.1-2,7.8-5.2,10l-2-21.1C467.7,194.4,470.6,198.6,470.6,203.6z"/>
<g>
	<g>
		<g>
			<g>
				<path class="st0" d="M332.6,232.7c-2.5,0-4.5-2-4.5-4.5v-10.1c0-2.5,2-4.5,4.5-4.5c2.5,0,4.5,2,4.5,4.5v10.1
					C337.1,230.7,335.1,232.7,332.6,232.7z"/>
			</g>
		</g>
	</g>
</g>
<g>
	<g>
		<g>
			<g>
				<path class="st0" d="M393.4,198c-1.2,0-2.3-0.5-3.2-1.3c-0.8-0.8-1.3-2-1.3-3.2s0.5-2.3,1.3-3.2c4.7-4.7,11-7.3,17.7-7.3
					c6.7,0,12.9,2.6,17.7,7.3c0.8,0.8,1.3,2,1.3,3.2c0,1.2-0.5,2.3-1.3,3.2c-0.8,0.8-2,1.3-3.2,1.3s-2.3-0.5-3.2-1.3
					c-3-3-7-4.7-11.3-4.7c-4.3,0-8.3,1.7-11.3,4.7C395.7,197.6,394.6,198,393.4,198z"/>
			</g>
		</g>
	</g>
</g>
<g>
	<g>
		<g>
			<g>
				<path class="st0" d="M347.1,198c-1.2,0-2.3-0.5-3.2-1.3c-3-3-7-4.7-11.3-4.7c-4.3,0-8.3,1.7-11.3,4.7c-0.8,0.8-2,1.3-3.2,1.3
					c-1.2,0-2.3-0.5-3.2-1.3c-0.8-0.8-1.3-2-1.3-3.2c0-1.2,0.5-2.3,1.3-3.2c4.7-4.7,11-7.3,17.7-7.3c6.7,0,12.9,2.6,17.7,7.3
					c0.8,0.8,1.3,2,1.3,3.2s-0.5,2.3-1.3,3.2C349.4,197.6,348.3,198,347.1,198z"/>
			</g>
		</g>
	</g>
</g>
<g>
	<g>
		<g>
			<g>
				<path class="st0" d="M407.8,232.7c-2.5,0-4.5-2-4.5-4.5v-10.1c0-2.5,2-4.5,4.5-4.5c1.2,0,2.3,0.5,3.2,1.3c0.8,0.8,1.3,2,1.3,3.2
					v10.1C412.3,230.7,410.3,232.7,407.8,232.7z"/>
			</g>
		</g>
	</g>
</g>
<g>
	<g>
		<g>
			<g>
				<path class="st0" d="M370.2,284.9c-7.4,0-14.4-2.9-19.6-8.1c-1.7-1.7-1.7-4.6,0-6.3c0.8-0.8,2-1.3,3.2-1.3s2.3,0.5,3.2,1.3
					c3.5,3.5,8.2,5.5,13.3,5.5s9.7-1.9,13.3-5.5c0.8-0.8,2-1.3,3.2-1.3s2.3,0.5,3.2,1.3c0.8,0.8,1.3,2,1.3,3.2
					c0,1.2-0.5,2.3-1.3,3.2C384.6,282,377.6,284.9,370.2,284.9z"/>
			</g>
		</g>
	</g>
</g>
<g>
	<g>
		<g>
			<g>
				<path class="st0" d="M363.9,248.7c-2.5,0-4.5-2-4.5-4.5c0-2.5,2-4.5,4.5-4.5h8.2v-20.9c0-2.5,2-4.5,4.5-4.5c2.5,0,4.5,2,4.5,4.5
					v25.3c0,2.5-2,4.5-4.5,4.5H363.9z"/>
			</g>
		</g>
	</g>
</g>
<g>
	<g>
		<g>
			<g>
				<path class="st0" d="M186.6,244.2c-1.2,0-2.3-0.5-3.2-1.3c-2.8-2.8-6.6-4.4-10.5-4.4s-7.7,1.5-10.5,4.4c-0.8,0.8-2,1.3-3.2,1.3
					c-1.2,0-2.3-0.5-3.2-1.3c-0.8-0.8-1.3-2-1.3-3.2c0-1.2,0.5-2.3,1.3-3.2c4.5-4.5,10.5-7,16.9-7c6.4,0,12.4,2.5,16.9,7
					c0.8,0.8,1.3,2,1.3,3.2c0,1.2-0.5,2.3-1.3,3.2C188.9,243.8,187.8,244.2,186.6,244.2z"/>
			</g>
		</g>
	</g>
</g>
<g>
	<g>
		<g>
			<g>
				<path class="st0" d="M115.4,244.2c-1.2,0-2.3-0.5-3.2-1.3c-2.8-2.8-6.6-4.4-10.5-4.4c-4,0-7.7,1.5-10.5,4.4
					c-0.8,0.8-2,1.3-3.2,1.3c-1.2,0-2.3-0.5-3.2-1.3c-0.8-0.8-1.3-2-1.3-3.2c0-1.2,0.5-2.3,1.3-3.2c4.5-4.5,10.5-7,16.9-7
					c6.4,0,12.4,2.5,16.9,7c0.8,0.8,1.3,2,1.3,3.2c0,1.2-0.5,2.3-1.3,3.2C117.8,243.8,116.6,244.2,115.4,244.2z"/>
			</g>
		</g>
	</g>
</g>
<g>
	<g>
		<g>
			<g>
				<path class="st0" d="M137.3,299.7c-7.1,0-13.7-2.8-18.7-7.7c-0.8-0.8-1.3-2-1.3-3.2s0.5-2.3,1.3-3.2c0.8-0.8,2-1.3,3.2-1.3
					c1.2,0,2.3,0.5,3.2,1.3c3.3,3.3,7.7,5.1,12.4,5.1c4.7,0,9.1-1.8,12.4-5.1c0.8-0.8,2-1.3,3.2-1.3c1.2,0,2.3,0.5,3.2,1.3
					c1.7,1.7,1.7,4.6,0,6.3C151,297,144.4,299.7,137.3,299.7z"/>
			</g>
		</g>
	</g>
</g>
<g>
	<g>
		<g>
			<g>
				<path class="st0" d="M132.3,262.8c-2.5,0-4.5-2-4.5-4.5s2-4.5,4.5-4.5h10.1c2.5,0,4.5,2,4.5,4.5c0,2.5-2,4.5-4.5,4.5H132.3z"/>
			</g>
		</g>
	</g>
</g>
<path class="st1" d="M40.3,228.9c-3.3-1.9-5.5-5.5-5.5-9.6c0-5,3.3-9.2,7.7-10.6L40.3,228.9z"/>
<circle class="st1" cx="183.7" cy="151.2" r="9.4"/>
<path class="st0" d="M161.4,141.3l-28-3c-3.3-0.3-4.7-2.7-5.1-3.7c-0.4-1-1.3-3.6,0.7-6.3l16.2-22.2c1.9-2.7,4.7-2.7,5.8-2.6
	c1.1,0.1,3.8,0.7,5.1,3.7l11.4,25.8C164.9,135.3,162.8,138.1,161.4,141.3z"/>
<path class="st1" d="M234.3,228.9l-2.2-20.2c4.5,1.4,7.7,5.7,7.7,10.6C239.8,223.4,237.6,227,234.3,228.9z"/>
<path class="st2" d="M217.6,213.8c-0.1,0-0.3,0-0.4,0c-0.8,0-1.5,0-2.3-0.1c-7.6-0.8-14.1-5.5-17.2-12.5l-11.4-25.8
	c-0.8,0.1-1.7,0.1-2.6,0.1c-4.2,0-8.2-1.1-11.7-3c-1.1,1-2.1,2.1-3.3,3.1c3.4,4.2,9.3,10.2,17.6,14.9c3.3,1.9,4.7,6,3.2,9.5
	c-1.8,4.1-6.8,5.7-10.6,3.5c-10.3-5.9-17.5-13.3-21.8-18.5c-16.5,11.7-38.4,20.9-66.6,20.9c-9.9,0-20.6-1.2-32.1-3.7
	c0,0.1,0,0.3-0.1,0.4l-4.4,39.7c-2.4,21.5,7,42.7,24.5,55.4l34.1,24.7c14.9,10.8,34.8,10.8,49.7,0l34.1-24.7
	c17.5-12.7,26.9-33.9,24.5-55.4L217.6,213.8z"/>
</svg>
