<?xml version="1.0" encoding="utf-8"?>
<!-- Generator: Adobe Illustrator 23.0.1, SVG Export Plug-In . SVG Version: 6.00 Build 0)  -->
<svg version="1.1" id="Layer_1" xmlns="http://www.w3.org/2000/svg" xmlns:xlink="http://www.w3.org/1999/xlink" x="0px" y="0px"
	 viewBox="0 0 512 512" style="enable-background:new 0 0 512 512;" xml:space="preserve">
<style type="text/css">
	.st0{fill:#FFDD00;}
	.st1{fill:#FFFFFF;}
</style>
<g>
	<path class="st0" d="M392,139.3v112.8c0,17.3-14,31.4-31.4,31.4c0-13,0-45.1,0-74.6c0-32-25.9-57.9-57.9-57.9H179.6
		c-32,0-57.9,25.9-57.9,57.9v74.6c-17.2,0-30.2-13.6-30.2-29.6V136.3c0-18,14.6-32.6,32.6-32.6c14.6-36.4,49.9-60.4,89.1-60.4H296
		C349.1,43.3,392,86.3,392,139.3L392,139.3z"/>
	<path class="st0" d="M339.1,53.5c13,6.6,8.3,26.1-6.4,26c-0.4,0-82.9,0-83.3,0c-36.9,0-70.3,21.1-86.3,53.9
		c-1.8,3.7-5.3,6.3-9.4,7.1c-14.8,3-26,16.2-26,31.9v10.7c-3.9,7.8-6,16.5-6,25.8v53.7c0,13.4-17.3,19-25,7.9
		c-3.3-4.8-5.2-10.6-5.2-16.7V136.3c0-18,14.6-32.6,32.6-32.6c14.6-36.4,49.9-60.4,89.1-60.4H296C311.5,43.3,326.2,47,339.1,53.5
		L339.1,53.5z"/>
	<path class="st1" d="M399.4,165.9v88.1c0,4-3.3,7.3-7.3,7.3s-7.3-3.3-7.3-7.3v-88.1c0-4,3.3-7.3,7.3-7.3S399.4,161.8,399.4,165.9z
		 M368,209V288c0,83.4-82.5,146.6-165.4,120.1c0,11.4,1.9,32.3-16.8,51C175,470,160.6,476,145.3,476c-4.1,0-7.3-3.3-7.3-7.3
		c0-4,3.3-7.3,7.3-7.3c23.6,0,42.7-19.1,42.7-42.8v-16.1c-42.6-19.8-72.5-62.5-73.6-112.2c-17.2-3.3-30.2-18.3-30.2-36.3V136.3
		c0-20.3,15.3-37.2,34.9-39.6C135.7,60,172.4,36,213.2,36H296c4,0,7.3,3.3,7.3,7.3s-3.3,7.3-7.3,7.3h-82.8
		c-36.5,0-68.8,21.9-82.3,55.7c-1.1,2.8-3.8,4.6-6.8,4.6c-13.9,0-25.3,11.3-25.3,25.3v117.6c0,9.8,6.5,18.2,15.5,21.2V209
		c0-36,29.3-65.3,65.3-65.3h123.1C338.7,143.7,368,173,368,209L368,209z M353.3,209c0-27.9-22.7-50.6-50.6-50.6H179.6
		c-27.9,0-50.6,22.7-50.6,50.6v78.3c0,61.8,50.3,112.2,112.2,112.2s112.2-50.3,112.2-112.2L353.3,209L353.3,209z M337,461.3
		c-15,0-28.7-7.7-36.5-20.6c-2.1-3.5-6.6-4.6-10.1-2.5c-3.5,2.1-4.6,6.6-2.5,10.1c10.5,17.3,28.8,27.7,49,27.7
		c4.1,0,7.3-3.3,7.3-7.3C344.4,464.6,341.1,461.3,337,461.3z M218.4,259.2c6.5,0,9.8-7.9,5.2-12.5l-5.4-5.4l5.4-5.4
		c2.9-2.9,2.9-7.5,0-10.4c-2.9-2.9-7.5-2.9-10.4,0l-5.4,5.4l-5.4-5.4c-2.9-2.9-7.5-2.9-10.4,0c-2.9,2.9-2.9,7.5,0,10.4l5.4,5.4
		l-5.4,5.4c-4.6,4.6-1.3,12.5,5.2,12.5c3.8,0,5.1-2,10.5-7.5C213.3,257.2,214.6,259.2,218.4,259.2z M296,225.6
		c-2.9-2.9-7.5-2.9-10.4,0l-5.4,5.4l-5.4-5.4c-2.9-2.9-7.5-2.9-10.4,0c-2.9,2.9-2.9,7.5,0,10.4l5.4,5.4l-5.4,5.4
		c-4.6,4.6-1.3,12.5,5.2,12.5c3.8,0,5.1-2,10.5-7.5l5.4,5.4c2.9,2.9,7.5,2.9,10.4,0c2.9-2.9,2.9-7.5,0-10.4l-5.4-5.4l5.4-5.4
		C298.9,233.1,298.9,228.5,296,225.6z M244.1,298.2c-20.9,0-33,14.7-35.2,17.6c-2.4,3.2-1.8,7.8,1.5,10.3c3.2,2.4,7.8,1.8,10.3-1.5
		c0.9-1.2,9.2-11.7,23.5-11.7c1.5,0,14.9,0.3,23.5,11.7c2.4,3.2,7,3.9,10.3,1.5c3.2-2.4,3.9-7,1.5-10.3
		C266.7,299,247.7,298.2,244.1,298.2L244.1,298.2z M315.9,55.9c-14.4,14.4-23,33.6-24.1,53.9c-0.2,4,2.9,7.5,6.9,7.7
		c4,0.2,7.5-2.9,7.7-6.9c0.9-16.7,8-32.5,19.8-44.3c31.9-31.9,86.9-10.7,86.9,28.9c0,19.2-13.8,38.1-34.1,38.1
		c-14.5,0-29-10.4-29-25.8c0-10.8,7.7-21.7,19.2-21.7c4.6,0,9,1.8,12.3,5.1c2.9,2.9,7.5,2.9,10.4,0c2.9-2.9,2.9-7.5,0-10.4
		c-6.1-6.1-14.1-9.4-22.7-9.4c-19.9,0-33.9,17.7-33.9,36.4c0,23.6,21,40.5,43.7,40.5c28.5,0,48.8-25.5,48.8-52.8
		C427.8,42.6,357,14.8,315.9,55.9z"/>
</g>
</svg>
