<?xml version="1.0" encoding="utf-8"?>
<!-- Generator: Adobe Illustrator 23.0.1, SVG Export Plug-In . SVG Version: 6.00 Build 0)  -->
<svg version="1.1" id="Layer_1" xmlns="http://www.w3.org/2000/svg" xmlns:xlink="http://www.w3.org/1999/xlink" x="0px" y="0px"
	 viewBox="0 0 512 512" style="enable-background:new 0 0 512 512;" xml:space="preserve">
<style type="text/css">
	.st0{fill:#FFFFFF;}
	.st1{fill:#FFDD00;}
</style>
<g>
	<g>
		<path class="st0" d="M73.8,497.1c-3.2,0-5.8-2.6-5.8-5.8V351.6c0-8.2-3.2-15.8-8.9-21.6l-33.7-33.6l-0.3,4.1l0,0.1
			c-0.1,0.6-0.1,1.1-0.1,1.7v189c0,3.2-2.6,5.8-5.8,5.8s-5.8-2.6-5.8-5.8v-189c0-14.7,9.5-27.5,23.6-31.7l53.1-16l5.8-11.6
			c0.9-1.9,3-3.2,5.2-3.2c0.6,0,1,0.1,1.4,0.2l0.2,0l2.5,0.8v-5.4l-0.8-0.6c-21.1-15.3-34.3-38.8-36.1-64.6l-0.1-1.3l-1.2-0.3
			c-9.4-2.6-16.3-10.1-17.8-19.1c-0.9-5.5,0.2-11.3,3-16.2l1-1.7l-1.7-0.9c-9.5-5-15.4-14.6-15.4-25.3c0-9.7,5.2-18.9,13.5-24.2
			l1.2-0.7l-0.3-1.3c-0.5-1.9-0.7-3.8-0.7-5.7c0-13.2,10.8-24,24-24c3.2,0,6.2,0.6,9,1.8l1.1,0.4l0.9-0.8
			c14.4-13.1,33.1-20.3,52.7-20.3H174c19.6,0,38.3,7.2,52.7,20.3l0.9,0.8l1.2-0.5c2.7-1.1,5.7-1.7,8.9-1.7c13.2,0,24,10.8,24,24
			c0,1.9-0.2,3.8-0.7,5.7l-0.3,1.3l1.2,0.7c8.4,5.2,13.5,14.5,13.5,24.2c0,10.6-5.9,20.3-15.4,25.3l-1.7,0.9l1,1.7
			c2.9,4.9,4,10.6,3.2,16.2c-1.4,9-8.4,16.5-17.7,19.1l-1.2,0.3l-0.1,1.3c-1.9,25.8-15.1,49.3-36.2,64.6l-0.8,0.6v5.5l2.5-0.8
			l0.2-0.1c0.4-0.1,0.8-0.2,1.4-0.2c2.3,0,4.3,1.2,5.2,3.3l5.8,11.6l51.2,15.5c1.5,0.4,2.8,1.5,3.5,2.9c0.7,1.4,0.8,3,0.3,4.5
			c-0.7,2.4-3,4.1-5.5,4.1c-0.6,0-1-0.1-1.4-0.2l-0.3-0.1l-34.3-10.4l-0.6,1.7c-2,5.9-21.3,58.4-75.3,94.3c-0.9,0.6-2.1,0.9-3.2,0.9
			c-1.2,0-2.3-0.3-3.2-0.9c-51.4-34.3-71.6-84.6-75.2-94.4l-0.6-1.7l-36.4,10.9c-2.5,0.8-4.8,1.9-6.8,3.4l-1.7,1.3l35.4,35.4
			c8,8,12.4,18.6,12.4,29.8v139.7l0,0.1C79.4,494.7,76.9,497.1,73.8,497.1z M94,282c8.5,17.4,27.2,48.4,60.7,72.2l1,0.8l1-0.7
			c33.9-24.1,52.4-55,60.8-72.3l-3.5-2.2l-19.2,23.9c-2.9,3.6-7,5.5-11.7,5.5H183c-4.8-0.1-9-2.3-11.7-6l-9.8-13.1v37.2
			c0,3.2-2.6,5.8-5.8,5.8s-5.8-2.6-5.8-5.8v-37.2l-9.8,13.1c-2.8,3.7-7,5.9-11.7,6l-0.2,0c-4.5,0-8.7-2-11.6-5.5l-19.1-23.8L94,282z
			 M180.6,296.3c0.6,0.8,1.5,1.3,2.5,1.3c1.1,0,2-0.4,2.6-1.2l26.7-33.4l-4.8-9.7l-43.1,21.6L180.6,296.3z M125.7,296.3
			c0.6,0.8,1.5,1.3,2.5,1.3h0.2c1.1-0.1,1.9-0.5,2.4-1.2l16.1-21.4l-43.2-21.6l-3.5,6.9l0,0.2c-0.1,0.6-0.3,1.1-0.6,1.7l-0.6,1.1
			L125.7,296.3z M155.7,266.4l38.8-19.4v-4.6l-2.7,1.2c-11.3,5.2-23.5,7.8-36.2,7.8c-12.7,0-24.9-2.7-36.2-7.9l-2.7-1.2v4.5
			L155.7,266.4z M70.3,133.4c-6.5,1.5-10.5,7.6-9.4,14.2c0.9,5.8,6.6,10.2,13.2,10.2c3.2,0,5.8,2.6,5.8,5.8
			c0,42,34.1,76.1,76.1,76.1s76.1-34.1,76.1-76.1c0-3.2,2.6-5.8,5.8-5.8c6.6,0,12.3-4.4,13.2-10.2c1.2-7.4-3.6-12.4-8.6-13.9
			c-0.1,0-0.2-0.1-0.3-0.1l-0.9-0.2c-13.4-2.6-23.1-14.4-23.1-28.1c0-4.3,1-8.7,3-12.6l0.6-1.2l-1-1c-4.6-4.5-7.2-10.7-7.2-17
			c0-4.7,1.4-9.2,3.9-13.1l0.9-1.4l-1.2-1.1c-12.3-10.4-27.2-15.8-43.2-15.8h-36.7c-15.8,0-31.2,5.6-43.2,15.8L93,59l0.9,1.4
			c2.6,4,3.9,8.5,3.9,13.1c0,6.4-2.6,12.6-7.2,17l-0.9,0.9l0.6,1.2c2,4,3,8.3,3,12.6c0,13.2-9.4,24.9-22.3,27.9l-0.1,0l-0.2,0.1
			h-0.2C70.5,133.3,70.4,133.4,70.3,133.4z"/>
	</g>
	<path class="st1" d="M237.6,62.9c5.8,0,10.5,4.7,10.5,10.5c0,2.1-0.6,4.1-1.7,5.8c-1.4,2.1-1.7,4.6-0.8,6.9s2.8,4.1,5.1,4.7
		c6.5,1.8,11,7.7,11,14.4c0,8.3-6.8,15.1-15.1,15.1s-15.1-6.8-15.1-15.1c0-3.7,1.4-7.3,4-10.1c1.7-1.8,2.4-4.3,1.9-6.7
		c-0.5-2.4-2.1-4.4-4.3-5.5c-3.7-1.7-6.1-5.5-6.1-9.5C227.1,67.6,231.8,62.9,237.6,62.9z"/>
	<path class="st1" d="M49.6,105.3c0-6.7,4.5-12.6,11-14.4c2.4-0.7,4.3-2.4,5.1-4.7c0.9-2.3,0.6-4.9-0.8-6.9
		c-1.1-1.7-1.7-3.7-1.7-5.8c0-5.8,4.7-10.5,10.5-10.5s10.5,4.7,10.5,10.5c0,4.1-2.4,7.8-6.1,9.5c-2.2,1-3.8,3.1-4.3,5.5
		s0.2,4.9,1.9,6.7c2.6,2.8,4,6.4,4,10.1c0,8.3-6.8,15.1-15.1,15.1S49.6,113.6,49.6,105.3z"/>
	<g>
		<path class="st0" d="M155.7,203.9c-8,0-15.7-3.8-21.2-10.5c-0.6-0.8-0.9-1.8-0.8-2.8c0.1-1,0.6-1.9,1.4-2.6
			c0.9-0.7,1.8-0.9,2.4-0.9c1.2,0,2.2,0.5,3,1.4c4,5,9.4,7.7,15.2,7.7s11.2-2.7,15.2-7.7c0.7-0.9,1.8-1.4,3-1.4
			c0.6,0,1.5,0.1,2.4,0.9c0.8,0.6,1.3,1.6,1.4,2.6c0.1,1-0.2,2-0.8,2.8C171.4,200,163.7,203.9,155.7,203.9z"/>
	</g>
	<g>
		<g>
			<path class="st0" d="M119.3,137.8c-4.2,0-7.7,3.4-7.7,7.7v9.1c0,4.2,3.4,7.7,7.7,7.7c4.2,0,7.7-3.4,7.7-7.7v-9.1
				C127,141.2,123.5,137.8,119.3,137.8z"/>
		</g>
	</g>
	<g>
		<g>
			<path class="st0" d="M192.1,137.8c-4.2,0-7.7,3.4-7.7,7.7v9.1c0,4.2,3.4,7.7,7.7,7.7s7.7-3.4,7.7-7.7v-9.1
				C199.8,141.2,196.3,137.8,192.1,137.8z"/>
		</g>
	</g>
	<g>
		<path class="st0" d="M236.9,495.1c-1.7,0-3.1-1.6-3.1-3.6V360.6c0-10.1,3.4-19.5,9.6-26.7l13.5-15.6c0.6-0.7,1.4-1,2.2-1
			c0.8,0,1.6,0.4,2.2,1c0.6,0.7,0.9,1.6,0.9,2.5s-0.3,1.9-0.9,2.5L247.8,339c-5,5.8-7.8,13.4-7.8,21.6v130.9
			C240,493.5,238.6,495.1,236.9,495.1z"/>
	</g>
	<g>
		<path class="st0" d="M365.4,267.6c-8,0-15.7-3.8-21.2-10.5c-0.6-0.8-0.9-1.8-0.8-2.8s0.6-1.9,1.4-2.6c0.9-0.7,1.8-0.9,2.4-0.9
			c1.2,0,2.2,0.5,3,1.4c4,5,9.4,7.7,15.2,7.7c5.8,0,11.2-2.7,15.2-7.7c0.7-0.9,1.8-1.4,3-1.4c0.6,0,1.5,0.1,2.4,0.9
			c0.8,0.6,1.3,1.6,1.4,2.6s-0.2,2-0.8,2.8C381.1,263.8,373.4,267.6,365.4,267.6z"/>
	</g>
	<g>
		<path class="st0" d="M283.5,495.1c-2.1,0-3.8-1.7-3.8-3.8V391.2c0-2.1,1.7-3.8,3.8-3.8c2.1,0,3.8,1.7,3.8,3.8v100.1
			C287.3,493.4,285.6,495.1,283.5,495.1z"/>
	</g>
	<g>
		<path class="st0" d="M447.3,495.1c-2.1,0-3.8-1.7-3.8-3.8V391.2c0-2.1,1.7-3.8,3.8-3.8c2.1,0,3.8,1.7,3.8,3.8v100.1
			C451.1,493.4,449.4,495.1,447.3,495.1z"/>
	</g>
	<g>
		<g>
			<g>
				<path class="st0" d="M492.8,497.1c-3.2,0-5.8-2.6-5.8-5.8V376.5c0-16.3-9.8-30.7-24.9-36.8l-2.9-1.1l-0.9,1.2
					c-22.6,30.6-56.5,48.2-92.9,48.2c-35.9,0-70.6-18-93-48.2l-0.9-1.2l-2.9,1.1c-15.1,6.1-24.9,20.6-24.9,36.8v114.8
					c0.1,1.4-0.5,2.9-1.5,4c-1.1,1.1-2.6,1.8-4.2,1.8c-3.2,0-5.8-2.6-5.8-5.8V376.5c0-18.2,9.3-34.7,24.8-43.9l1.9-1.1l-1.3-1.7
					c-4.6-5.9-7.1-13.2-7.1-20.5c0-12.1,6.6-23.2,17.2-29l1-0.6l0-1.2l0-1.2c0-9.2,4.5-17.9,11.9-23.2l1.1-0.8l-0.4-1.3
					c-0.5-1.4-0.8-2.8-1.1-4c-0.1-0.4-0.2-0.8-0.3-1.2c-1.1-4.4-1.7-9-1.9-13.9l0-0.5l-0.3-0.5c-11.9-17.4-18.1-38-18.1-59.3
					c0-58.4,47.5-105.9,105.9-105.9s105.9,47.5,105.9,105.9c0,21.2-6.3,41.7-18.1,59.3l-0.3,0.5l-0.1,0.6c-0.3,4.8-0.9,9.4-1.8,13.7
					l0,0.1c-0.4,1.6-0.8,3.2-1.4,5.2l-0.4,1.2l1,0.8c7.5,5.3,11.9,14,11.9,23.2v1.1l-0.1,1.3l1,0.6c10.6,5.7,17.2,16.8,17.2,28.9
					c0,7.4-2.5,14.7-7.1,20.5l-1.3,1.8l1.9,1.2c15.5,9.4,24.8,25.8,24.8,43.9v114.8C498.6,494.5,496,497.1,492.8,497.1z
					 M284.3,336.1c20.3,25.6,49.8,40.2,81.1,40.2s60.8-14.7,81.1-40.2l1.6-2l-23.5-9.4l-0.9,1c-14.9,16.4-36.1,25.9-58.3,25.9
					c-22.1,0-43.4-9.4-58.3-25.9l-0.9-1l-23.5,9.4L284.3,336.1z M319.9,322c12.5,11.5,28.6,17.9,45.4,17.9c17,0,33.1-6.3,45.5-17.9
					l2.1-1.9l-2.6-1.2c-4.4-1.9-8-5-10.7-9.1l-0.8-1.3l-1.5,0.6c-10.4,4-21.2,6-32,6s-21.7-2-32-6l-1.4-0.6l-0.7,1.2
					c-2.5,4.1-6.2,7.2-10.7,9.2l-2.6,1.2L319.9,322z M410.6,305.1c1.3,1.5,3,2.7,4.7,3.3l44.9,18l0.9-0.7c4.8-4.1,7.6-10.1,7.6-16.4
					c0-9.4-6-17.6-15-20.4c-1.5-0.4-2.7-1.4-3.4-2.8c-0.7-1.3-0.9-2.9-0.4-4.3c0.4-1.6,0.7-3,0.7-4.3c0-4-1.3-7.7-3.8-10.7l-1.9-2.3
					l-1.3,2.5c-5.6,11-13.6,20.8-23.1,28.5c-3,2.4-6.2,4.6-9.4,6.6l-1.9,1.2L410.6,305.1z M284.1,266.7c-2.5,3.1-3.9,6.8-3.9,10.7
					c0,1.5,0.2,2.8,0.7,4.3l0,0.1c0.8,3-0.9,6.1-3.8,7c-9,2.8-15,11-15,20.4c0,6.4,2.8,12.4,7.6,16.4l0.9,0.7l44.9-18
					c1.8-0.7,3.4-1.8,4.7-3.4l1.5-1.7l-1.9-1.2c-3.8-2.4-6.8-4.5-9.4-6.7c-9.4-7.6-17.4-17.5-23.1-28.5l-1.3-2.6L284.1,266.7z
					 M287.8,226.3c1.1,1.1,1.7,2.5,1.7,4c0.2,5.1,0.8,9.7,1.8,14.1c3.8,16.6,13.2,31.6,26.4,42.3c13.7,11,30.2,16.9,47.8,16.9
					c17.5,0,34.1-5.8,47.8-16.9c13.3-10.8,22.7-25.8,26.4-42.3c1-4.3,1.6-9,1.8-14.1c0-0.3,0-0.7,0.2-1.3l0.1-0.4l-0.1-0.4
					c-2.4-13.7-8.5-22.9-19.6-29.5l-2.5,3.4c4.1,4.4,6.4,10.3,6.4,16.3c0,13.2-10.8,24-24,24c-12.2,0-22.5-9.2-23.9-21.4l0-0.6
					l-0.4-0.4c-3-3.1-7.4-4.9-12.1-4.9c-4.7,0-9.1,1.8-12,4.9l-0.4,0.4l0,0.6c-1.3,12.3-11.6,21.4-23.9,21.4c-13.2,0-24-10.8-24-24
					c0-13.2,10.8-24,24-24c8.5,0,16.1,4.3,20.5,11.6l0.9,1.5l1.5-0.8c4.1-2.1,8.8-3.2,13.4-3.2c4.8,0,9.4,1.1,13.4,3.2l1.5,0.8
					l0.9-1.5c4.2-6.9,11.3-11.1,19.2-11.5l0.7-4.2c-4.7-1.4-9.6-2.8-14.4-4.1c-16.4-4.4-36.8-9.8-54.7-21.9l-1.5-1l-1.1,1.5
					c-7.3,10.1-15.8,17.7-25.3,22.4c-0.7,0.4-1.6,0.6-2.7,0.6c-2.3,0-4.2-1.2-5.2-3.2c-0.7-1.3-0.8-2.8-0.3-4.4
					c0.4-1.4,1.4-2.6,2.8-3.4c14.5-7.3,22.6-20.7,24.7-24.6l0.1-0.1c0.8-1.5,2.3-2.7,3.9-3c0.5-0.2,1-0.2,1.3-0.2
					c1.3,0,2.5,0.4,3.6,1.2l0.1,0.1c17.7,14.1,38.7,19.8,57.3,24.7c23.4,6.3,47.7,12.8,58.5,36l1.8,3.8l1.7-3.8
					c5.3-11.9,7.9-24.7,7.9-38c-0.2-52-42.6-94.3-94.5-94.3c-52,0-94.3,42.3-94.3,94.3c0,19.1,5.7,37.5,16.4,53.2l0.1,0.2
					L287.8,226.3z M401.8,205.9c-6.8,0-12.4,5.6-12.4,12.4s5.6,12.4,12.4,12.4c6.8,0,12.4-5.6,12.4-12.4S408.6,205.9,401.8,205.9z
					 M329,205.9c-6.8,0-12.4,5.6-12.4,12.4s5.6,12.4,12.4,12.4s12.4-5.6,12.4-12.4S335.8,205.9,329,205.9z"/>
			</g>
		</g>
	</g>
	<g>
		<g>
			<g>
				<polygon class="st0" points="214.5,445 187.5,416.1 175.4,386.9 181.1,322.7 197.9,281.1 230.9,257.2 248.2,248.4 260.2,239.4 
					277.4,248.4 286.9,256.7 300.5,256.9 334,283 354.9,327.6 354.9,379.2 347.9,416 327.1,436.2 317.6,447.7 267.8,451.5 				"/>
			</g>
			<g>
				<circle class="st1" cx="218.8" cy="395.5" r="11"/>
			</g>
			<g>
				<circle class="st1" cx="316.6" cy="395.5" r="11"/>
			</g>
			<g>
				<path class="st1" d="M267.8,417c-5.1,0-9.9-2.3-13.2-6.3l-0.1-0.1c-1.8-2.5-1.3-6.1,1.1-8l0.1-0.1c1-0.7,2.2-1.1,3.4-1.1
					c1.8,0,3.4,0.8,4.6,2.2c1,1.3,2.4,2,3.9,2s3-0.7,3.9-1.9c1.1-1.5,2.8-2.3,4.6-2.3c1.3,0,2.5,0.4,3.5,1.3c1.2,0.9,2,2.3,2.2,3.9
					c0.2,1.5-0.2,3-1.2,4.2C277.7,414.7,273,417,267.8,417z"/>
			</g>
			<g>
				<path class="st1" d="M231.8,384.8c-3.2,0-5.8-2.6-5.8-5.8v-9.2c0-3.2,2.6-5.8,5.8-5.8s5.8,2.6,5.8,5.8v9.2
					C237.6,382.2,235,384.8,231.8,384.8z"/>
			</g>
			<g>
				<path class="st1" d="M303.5,384.8c-3.2,0-5.8-2.6-5.8-5.8v-9.2c0-3.2,2.6-5.8,5.8-5.8s5.8,2.6,5.8,5.8v9.2
					C309.3,382.2,306.7,384.8,303.5,384.8z"/>
			</g>
			<g>
				<path class="st1" d="M183.9,499.8c-1.9,0-3.6-0.9-4.6-2.4c-1.1-1.5-1.4-3.5-0.7-5.2c1.6-4.7,3.5-9.4,5.7-14.2
					c5.9-12.4,14.9-23.3,26-31.7c-3.1-1.8-6.2-3.8-9-6.1c-1.2-1-1.9-2.3-2.1-3.9c-0.2-1.6,0.3-3.1,1.2-4.3c1.1-1.4,2.8-2.2,4.5-2.2
					c1.3,0,2.6,0.4,3.6,1.3c10,8,22.1,12.3,34.9,12.4h49c15.1-0.1,29.2-6.1,39.9-16.8c10.6-10.7,16.4-24.9,16.4-40.1v-45
					c0-35.2-23-66.3-56.3-77c0.7,3.4,1,6.8,1.3,9.9c0.1,0.7,0.2,1.4,0.2,2.1c0.2,1.9,0.4,3.6,0.7,5.3c0.8,4.9,2.9,8.9,5.4,13.5
					c1.4,2.8,1.5,6,0.1,8.6c-1.4,2.6-3.9,4.4-6.8,4.9c-2.7,0.4-5.2,0.5-7.6,0.5c-11.2,0-23.7-3.5-33.4-9.3c-1.3-0.8-2.3-2.1-2.6-3.6
					c-0.4-1.5-0.1-3.1,0.7-4.4c1.1-1.8,2.9-2.8,5-2.8c1,0,2.1,0.3,3,0.8c7.8,4.7,18.4,7.6,27.6,7.6c0.9,0,1.7,0,2.5-0.1
					c-2.3-4.5-4.2-8.7-5.1-14.1c-0.4-2.7-0.7-5.5-0.9-8.4l-0.1-1.4c-0.3-3.2-0.6-6.2-1.3-8.8c-1.9-7.4-8.5-13-16.5-14
					c-0.7-0.1-1.4-0.1-2.1-0.1c-6.2,0-12.3,3.2-15.5,8c-1.3,1.9-2,3.8-2.4,5.9c-0.9,5.4,0.1,10.6,3.1,15.2c1.7,2.8,0.9,6.3-1.7,8
					c-1,0.6-2.1,0.9-3.1,0.9c-2,0-3.8-1-4.8-2.6c-3.5-5.5-5.2-11.4-5.2-17.7c-27.6,13.6-45.2,41.8-45.2,72.6v45
					c0,11.9,3.6,23.3,10.4,32.9c1.8,2.6,1.2,6.2-1.4,8c-1,0.7-2.1,1.1-3.3,1.1c-1.9,0-3.6-0.9-4.7-2.4
					c-7.9-11.1-12.2-24.2-12.5-37.8c-11.2-2.2-19.5-12.1-19.5-23.8c0-11.7,8.3-21.6,19.5-23.8c0.4-38.1,24.4-72.3,60-85.6
					c0.4-0.7,0.8-1.4,1.3-2.1c5.5-8.1,15.1-13.1,25-13.1c1.2,0,2.4,0.1,3.6,0.2c8,1,15.3,5,20.3,11.1c42.8,8.5,73.9,46,74.3,89.6
					c11.3,2.2,19.5,12.2,19.4,24c0,11.7-8.3,21.6-19.5,23.8c-0.4,17.6-7.4,34-19.8,46.5c-4.4,4.4-9.4,8.3-15,11.4
					c11.5,8.6,20.6,19.9,26.6,32.8c2,4.3,3.7,8.7,5.1,13c0.6,1.8,0.3,3.6-0.8,5.2l-0.1,0.1c-1.1,1.4-2.8,2.3-4.6,2.3H183.9z
					 M253.3,455.1c3.3,3.5,8,5.6,13,5.6h2.8c4.9,0,9.6-2.1,13-5.6H253.3z M360,376.3c4.8-1.9,8-6.6,8-11.8s-3.2-9.9-8-11.8V376.3z
					 M175.4,352.7c-4.8,1.9-8,6.6-8,11.8s3.2,9.9,8,11.8V352.7z"/>
			</g>
			<g>
				<path class="st0" d="M186.3,492.2l1.1-2.7c1-2.7,2.2-5.5,3.6-8.3c6.4-13.4,16.6-24.8,29.3-32.8c0.1-0.1,0.3-0.2,0.5-0.3l0.1,0
					l0.8-0.8l1.2,0.4c5.6,1.9,11.7,3.1,18.2,3.4l1.3,0.1l1.1,2.7c4,8.7,13,14.4,22.8,14.4h2.8c9.7,0,18.6-5.6,22.7-14.2
					c0.2-0.3,0.3-0.6,0.4-0.8c0.1-0.3,0.3-0.7,0.5-1l0.5-1l1.2-0.1c6.5-0.3,12.6-1.4,18.1-3.4l0.9-0.3l0.8,0.5
					c13.6,8.3,24.3,20.2,31,34.5c1.1,2.2,2.1,4.6,3.1,7.2l1,2.7H186.3z"/>
			</g>
		</g>
	</g>
</g>
</svg>
