<?xml version="1.0" encoding="utf-8"?>
<!-- Generator: Adobe Illustrator 23.0.1, SVG Export Plug-In . SVG Version: 6.00 Build 0)  -->
<svg version="1.1" id="Layer_1" xmlns="http://www.w3.org/2000/svg" xmlns:xlink="http://www.w3.org/1999/xlink" x="0px" y="0px"
	 viewBox="0 0 400 400" style="enable-background:new 0 0 400 400;" xml:space="preserve">
<style type="text/css">
	.st0{fill:#FFFFFF;}
	.st1{fill:#FFDD00;}
</style>
<g>
	<path class="st0" d="M315.6,190.5c-2.8-10.1-12-17.1-22.5-17.1h-17.5v-10.7l20.2-8.4c12-4.8,17.8-18.3,13-30.3
		c-4.8-11.9-18.3-17.8-30.3-13l-3,1.2v-61c0-12.8-10.4-23.3-23.3-23.3H147.6c-12.9,0-23.3,10.4-23.3,23.3v76.5
		c-1.7-0.5-3.4-0.8-5.2-0.9h-1c-8.8,0-16.1,6.6-17.1,15.4c-0.9,8-2.5,16-4.7,23.8c-1.3,4.2-2.9,8.4-4.8,12.4
		c-3.9,7.6-6.1,15.8-6.8,24.3c-0.2,5,0,10.3,0.2,15.4c0.2,4.8,0.4,9.7,0.3,14.2c-0.1,3.1-0.3,7.8-0.6,13.1
		c-0.6,11.6-1.4,26.1-0.9,33c0.1,10.5,3.8,20.6,10.4,28.8c1.9,2.6,4,5.7,6.5,9.8c1,1.6,2.1,3.3,3.2,5c4.8,5.8,7.8,12.8,8.8,20.3
		v17.2c0,9.6,7.8,17.5,17.5,17.5H200c9.6,0,17.5-7.8,17.5-17.5v-23.3c0-2.1,1.2-4.1,3.1-5.1c11.3-5.8,21.2-14,29.1-24h2.6
		c10.6,0,19.9-7.2,22.5-17.5c0.3,0,0.5,0.1,0.8,0.1h6c9.1,0,17.4-5.2,21.2-13.5c3.8-8.3,2.4-18-3.6-24.8c5.9-3.5,9.9-9.4,11-16.1
		c1.1-6.7-0.8-13.6-5.3-18.8C314,211.3,318.3,200.6,315.6,190.5z M275.6,124.8l7.3-2.9c3.9-1.5,8.3-0.9,11.5,1.7
		c3.3,2.6,4.9,6.7,4.3,10.8c-0.6,4.1-3.4,7.6-7.2,9.1l-15.9,6.6V124.8z M214.8,321.1c-5.5,3.1-9,8.9-9,15.3v23.3
		c0,3.2-2.6,5.8-5.8,5.8h-69.8c-3.2,0-5.8-2.6-5.8-5.8v-17.2c-0.8-9.8-4.6-19.1-10.7-26.7c-1-1.6-2.1-3.1-3-4.7
		c-2.7-4.3-5-7.6-6.9-10.4c-5.4-6.4-8.4-14.5-8.3-22.9c-0.5-6.2,0.3-20.2,0.9-31.5c0.3-5.5,0.6-10.3,0.6-13.5c0.1-4.9-0.1-10-0.3-15
		c-0.2-5.2-0.4-10-0.2-14.6c0.6-7,2.5-13.8,5.8-20c2.1-4.5,3.8-9.1,5.3-13.9c2.3-8.4,4-16.9,5-25.6c0.3-2.9,2.7-5.1,5.6-5.1h0.9
		c2.4,0.2,4.8,1,6.8,2.4c0.5,0.5,1,0.9,1.6,1.2c4.2,3.6,8.5,10.8,8.5,25.5c0,0.3,0,0.6,0.1,0.8c1,17.1-11.4,44.9-14.3,46.3
		c-2.4,1.2-3.7,3.9-3.1,6.5c0.6,2.6,3,4.5,5.7,4.4V284c0,12.9,10.4,23.3,23.3,23.3h86.5C228.3,312.6,221.8,317.3,214.8,321.1z
		 M281.6,278.2h-6c-6.4,0-11.6-5.2-11.6-11.6s5.2-11.6,11.6-11.6h6c6.4,0,11.6,5.2,11.6,11.6S288.1,278.2,281.6,278.2z M287.3,243.3
		h-11.6c-1.3,0-2.7-0.2-3.9-0.7c-4.6-1.6-7.7-6-7.7-10.9c0-6.4,5.2-11.6,11.6-11.6h11.6c6.4,0,11.6,5.2,11.6,11.6
		S293.7,243.3,287.3,243.3z M293.1,208.4h-17.5c-6.4,0-11.6-5.2-11.6-11.6c0-6.4,5.2-11.6,11.6-11.6h17.5c6.4,0,11.6,5.2,11.6,11.6
		C304.7,203.2,299.5,208.4,293.1,208.4z"/>
	<path class="st1" d="M229.1,39.6v5.8c0,3.2-2.6,5.8-5.8,5.8h-46.5c-3.2,0-5.8-2.6-5.8-5.8v-5.8H229.1z"/>
	<path class="st1" d="M252.4,295.6H147.6c-6.4,0-11.6-5.2-11.6-11.6v-69c6.9-14.9,10.8-31,11.6-47.3h0c0-17.8-5.5-27.8-11.6-33.4
		v-83c0-6.4,5.2-11.6,11.6-11.6h11.6v5.8c0,9.6,7.8,17.5,17.5,17.5h46.5c9.6,0,17.5-7.8,17.5-17.5v-5.8h11.6
		c6.4,0,11.6,5.2,11.6,11.6v125.4c-6.5,3.7-10.8,10.4-11.5,17.8s2.2,14.8,7.9,19.7c-5.1,4.4-8,10.8-8,17.5c0,6.7,2.9,13.1,8,17.5
		c-5.6,4.8-8.6,12.1-7.9,19.5c0.7,7.4,4.9,14,11.2,17.8C262.6,291.8,257.9,295.6,252.4,295.6z"/>
	<path class="st0" d="M223.3,272.4h-46.5c-3.2,0-5.8,2.6-5.8,5.8c0,3.2,2.6,5.8,5.8,5.8h46.5c3.2,0,5.8-2.6,5.8-5.8
		C229.1,275,226.5,272.4,223.3,272.4z"/>
	<path class="st0" d="M141.8,342.2c-3.2,0-5.8,2.6-5.8,5.8c0,3.2,2.6,5.8,5.8,5.8h5.8c3.2,0,5.8-2.6,5.8-5.8c0-3.2-2.6-5.8-5.8-5.8
		H141.8z"/>
	<path class="st0" d="M170.9,353.8h17.5c3.2,0,5.8-2.6,5.8-5.8c0-3.2-2.6-5.8-5.8-5.8h-17.5c-3.2,0-5.8,2.6-5.8,5.8
		C165.1,351.2,167.7,353.8,170.9,353.8z"/>
	<path class="st0" d="M153.5,68.7c-3.2,0-5.8,2.6-5.8,5.8v5.8c0,3.2,2.6,5.8,5.8,5.8c3.2,0,5.8-2.6,5.8-5.8v-5.8
		C159.3,71.3,156.7,68.7,153.5,68.7z"/>
	<path class="st0" d="M153.5,97.8c-3.2,0-5.8,2.6-5.8,5.8v29.1c0,3.2,2.6,5.8,5.8,5.8c3.2,0,5.8-2.6,5.8-5.8v-29.1
		C159.3,100.4,156.7,97.8,153.5,97.8z"/>
</g>
</svg>
