<?xml version="1.0" encoding="utf-8"?>
<!-- Generator: Adobe Illustrator 23.0.1, SVG Export Plug-In . SVG Version: 6.00 Build 0)  -->
<svg version="1.1" id="Layer_5" xmlns="http://www.w3.org/2000/svg" xmlns:xlink="http://www.w3.org/1999/xlink" x="0px" y="0px"
	 viewBox="0 0 512 512" style="enable-background:new 0 0 512 512;" xml:space="preserve">
<style type="text/css">
	.st0{fill:#FFDD00;}
	.st1{fill:#FFFFFF;}
</style>
<g>
	<g>
		<path class="st0" d="M168.3,310l54.1-54.1v-60.9c0-7.5-6.1-13.5-13.5-13.5H87c-7.5,0-13.5,6.1-13.5,13.5v121.8
			c0,7.5,6.1,13.5,13.5,13.5h81.2V310z"/>
	</g>
	<path class="st1" d="M439,197.7l29.9-29.9l-84-84L355,113.7l13.5,13.5L330.7,165L303.6,138l-29.9,29.9l13.5,13.5l-37.8,37.8v-61.7
		l-60.9-40.6v-16.7c11.2,0,20.3-9.1,20.3-20.3V66.3c0-11.2-9.1-20.3-20.3-20.3h-81.2C96.2,46,87,55.1,87,66.3v13.5
		c0,11.2,9.1,20.3,20.3,20.3v16.7l-60.9,40.6v166.1c0,18.7,15.2,33.8,33.8,33.8h81.2v4L124.9,398l10.2,10.2l-46,46l9.6,9.6l46-46
		l10.2,10.2l36.6-36.6h54.1l125.8-125.8l13.5,13.5l29.9-29.9L387.7,222l37.8-37.8L439,197.7z M384.9,102.9l64.9,64.9L439,178.6
		l-64.9-64.9L384.9,102.9z M179.8,127.2l40.6,27.1H75.6l40.6-27.1H179.8z M100.6,79.8V66.3c0-3.7,3-6.8,6.8-6.8h81.2
		c3.7,0,6.8,3,6.8,6.8v13.5c0,3.7-3,6.8-6.8,6.8h-81.2C103.6,86.6,100.6,83.6,100.6,79.8z M175,100.1v13.5h-54.1v-13.5H175z
		 M80.3,343.8c-11.2,0-20.3-9.1-20.3-20.3V167.8h176v64.9l-40.6,40.6v-37.8h-27.1v-27.1h-40.6v27.1h-27.1v40.6h27.1v27.1h37.8l-4,4
		v36.6H80.3z M175,361.3v-35l51.3,51.3h-35L175,361.3z M168.3,300.4v-24.3h24.3L168.3,300.4z M114.1,262.6v-13.5h27.1V222h13.5v27.1
		h27.1v13.5h-27.1v27.1h-13.5v-27.1H114.1z M144,398l24.3-24.3l10.7,10.7l-24.3,24.3L144,398z M344.2,273.3l-35.8-35.8l-9.6,9.6
		l35.8,35.8l-10.7,10.7l-22.3-22.3l-9.6,9.6l22.3,22.3l-10.7,10.7l-35.8-35.8l-9.6,9.6l35.8,35.8l-10.7,10.7L261,311.9l-9.6,9.6
		l22.3,22.3L263,354.5l-35.8-35.8l-9.6,9.6l35.8,35.8l-10.7,10.7L177.8,310l119-119l64.9,64.9L344.2,273.3z M384.9,259.8l-92-92
		l10.7-10.7l92,92L384.9,259.8z M378.1,212.4l-37.8-37.8l37.8-37.8l37.8,37.8L378.1,212.4z"/>
</g>
</svg>
