<?xml version="1.0" encoding="utf-8"?>
<!-- Generator: Adobe Illustrator 23.0.1, SVG Export Plug-In . SVG Version: 6.00 Build 0)  -->
<svg version="1.1" id="Capa_1" xmlns="http://www.w3.org/2000/svg" xmlns:xlink="http://www.w3.org/1999/xlink" x="0px" y="0px"
	 viewBox="0 0 512 512" style="enable-background:new 0 0 512 512;" xml:space="preserve">
<style type="text/css">
	.st0{fill:#FFDD00;}
	.st1{fill:#FFFFFF;}
</style>
<g>
	<g>
		<path class="st0" d="M256.1,429.5c-17.4,0-34.9-3.5-52.2-10.4c-8.9-3.5-17.3-8.2-25.5-12.7c-2.3-1.3-4.7-2.6-7-3.8
			c-5-2.7-8.9-7.4-11.4-13.9c-1-2.6-2-5.2-3.1-7.7c-1.4-3.4-2.9-6.9-4.1-10.5c-1-2.9,0-7,2.1-9c11.5-11.7,25.1-25.5,39.1-39.1
			c1.9-2,5.1-2.7,7.3-2.7c0.5,0,0.9,0,1.3,0.1c10.1,1.2,20.3,2.7,30.1,4.1c3.7,0.5,7.3,1,11,1.6c3.8,0.5,7.6,0.8,11.9,0.8
			c9.8,0,19.7-1.4,29.4-2.7l2-0.3c6.7-0.9,13.9-2.1,23.3-3.8c1.7-0.3,2.9-0.9,3.4-1.6c0.1-0.2,0.5-0.8,0.3-2.1
			c-0.2-1.2-0.6-2.2-3.2-2.2c-0.5,0-1.1,0-1.7,0.1c-4.4,0.6-8.8,1.3-13.1,2c-10.8,1.8-22.1,3.6-33.3,3.9c-1.2,0-2.4,0.1-3.6,0.1
			c-9.5,0-19-1.1-28.2-2.2c-4-0.5-8-0.9-12.1-1.3l-0.2,0c-1.4-0.2-2.8-0.5-4.2-0.8c-1.3-0.3-2.6-0.5-4-0.8l-7.7-1.3l5.6-5.5
			c2.3-2.2,4.4-4.4,6.5-6.5c2.8-2.9,5.5-5.6,8.4-8.3c1.1-1.1,2.9-1.8,4.9-1.8c0.6,0,1.2,0.1,1.8,0.2c7.7,1.4,15.5,2,24.1,2
			c18.8,0,37.8-3.3,56.3-6.6l0.2,0c1.7-0.3,2.9-0.9,3.4-1.6c0.1-0.2,0.5-0.8,0.3-2.1l0-0.1c-0.1-0.8-0.4-2.2-3.3-2.2
			c-0.5,0-1,0-1.6,0.1c-4,0.6-7.9,1.1-11.8,1.7c-10.4,1.5-21.1,3.1-31.6,4.2c-2.9,0.3-5.9,0.4-9.6,0.4c-2.6,0-5.3-0.1-8.1-0.1
			c-2.9-0.1-5.9-0.1-9-0.1h-8.9l6.7-7.5c1.4-1.6,2.2-2.4,3-3.3c3.6-3.6,7.3-7.3,10.9-10.9c10.7-10.7,21.7-21.7,32.4-32.6
			c1.5-1.5,3.8-3.4,7.2-3.4c1.2,0,2.5,0.2,3.9,0.7c5.5,2,11,4,16.4,5.9c11.7,4.2,23.8,8.5,35.6,13.4c5.4,2.2,11,6.8,15.4,12.6
			c13.9,18.2,18.2,38.4,12.7,60c-5.5,21.5-12.6,43.1-21.2,64.2c-3.6,8.6-8.9,14.8-16.2,19.1C310,421.3,282.7,429.5,256.1,429.5z
			 M200.9,345.8c-1.1,0-3.1,0.3-3.5,2.7c-0.1,0.7,0,1.4,0.5,2c0.3,0.5,1,1,2,1.2c13.8,2.2,27.9,4.2,41.5,6.1
			c4.9,0.7,9.7,1.4,14.6,2.1l9.8-1.4c15.9-2.3,30.9-4.4,46.3-6.7c1.2-0.2,1.9-0.8,2.3-1.3c0.4-0.6,0.6-1.4,0.4-2.2
			c-0.3-1.5-1.6-2.5-3.3-2.5c-0.3,0-0.5,0-0.8,0.1c-3.3,0.5-6.7,1.1-9.9,1.6c-4.3,0.7-8.8,1.5-13.2,2.1c-1.8,0.2-3.7,0.5-5.5,0.8
			c-8.3,1.2-17,2.4-25.7,2.4c-4,0-7.6-0.2-11.2-0.7c-14.5-1.9-29.1-4-43.2-6C201.5,345.8,201.2,345.8,200.9,345.8z"/>
	</g>
	<g>
		<path class="st0" d="M146,351.8c-1.4-5.5-2.9-11-4.3-16.5c-1.4-5.5-2.9-11-4.3-16.5c-4.8-19.5-1-38.2,11.5-55.5
			c5.5-7.8,12.8-13.3,21.7-16.3c7.9-2.7,15.9-5.6,23.6-8.4c10.7-3.9,21.7-7.8,32.6-11.5c9.5-3.1,19.1-4.7,28.6-4.7
			c5.1,0,10.3,0.5,15.3,1.4l0.1,0c0.7,0.1,1.3,0.3,1.9,0.5c0.5,0.1,0.9,0.3,1.5,0.4l6.5,1.6l-4.5,5c-0.4,0.5-0.8,0.9-1.2,1.3
			c-0.6,0.7-1.1,1.3-1.8,2c-14.8,14.8-30.1,30.1-45.3,45.4c-1.4,1.5-3.9,3.6-7.7,3.6c-0.9,0-1.9-0.1-2.9-0.4c-3.9-0.9-8-1.5-12-2.1
			c-1.1-0.2-2.2-0.3-3.3-0.5c-0.3,0-0.6-0.1-0.9-0.1c-1.7,0-2.8,0.8-3,2.5c-0.3,1.8,0.6,3,2.7,3.5l0.1,0c1.7,0.5,3.7,0.8,5.6,1.2
			c1,0.2,2,0.4,2.9,0.6l7.2,1.5l-5.2,5.2c-12.8,12.9-26,26-38.7,38.7c-6.6,6.6-13.2,13.2-19.9,19.9l-5,5L146,351.8z"/>
	</g>
	<path class="st1" d="M252.6,156.9c-22.2,0.1-38.8-20.8-33.2-42.3c1.2-4.9,3-10.1,5.8-14.2c6.7-10,14.1-19.5,21.6-28.8
		c3.1-3.9,7.3-4.2,10.4-0.9c12.5,12.7,23.6,26.3,28.3,44C291,136,274.7,156.8,252.6,156.9z M252.5,86c-7.5,8.9-14.1,17.5-18.2,27.7
		c-2.3,5.8-2.7,11.7,0,17.6c4.5,9.5,15.5,13.8,25.3,10.1c10-3.9,15.1-14.3,11.8-24.8C267.8,104.9,260.3,95.7,252.5,86z"/>
	<path class="st1" d="M162.4,190.8c-16.7-0.3-28.9-16.1-24.5-32.3c3.4-12.6,11.3-22.5,20.4-31.4c2.7-2.7,6.5-2.7,9.2,0
		c9.2,9.3,17.4,19.3,20.5,32.3C191.9,175.7,179.2,191.1,162.4,190.8z M163.8,142.7c-0.8,0-1.5,0-2.3,0c-3.4,6.4-7.3,12.6-10,19.3
		c-2.2,5.3,0.3,10.6,4.7,13.5c4,2.6,9.3,2.5,13.3-0.2c4.2-3.1,6.5-8.4,4.2-13.7C171.1,154.9,167.2,148.9,163.8,142.7z"/>
	<path class="st1" d="M256,363.9c-18.8-2.7-37.7-5.3-56.6-8.3c-4.1-0.7-6.6-4.3-5.9-7.9c0.7-4.1,4.4-6.5,9-5.8
		c14.4,2,28.8,4.1,43.2,6c14,1.9,27.6-0.6,41.3-2.4c7.7-1,15.4-2.5,23-3.6c4.3-0.7,7.9,1.7,8.6,5.6c0.8,3.9-1.7,7.6-6,8.3
		C293.8,358.6,275,361.2,256,363.9z"/>
	<path class="st0" d="M252.5,86c7.9,9.6,15.3,18.8,18.9,30.5c3.3,10.6-1.8,21-11.8,24.8c-9.8,3.7-20.8-0.6-25.3-10.1
		c-2.7-5.8-2.3-11.7,0-17.6C238.4,103.5,244.9,94.9,252.5,86z"/>
	<path class="st0" d="M163.8,142.7c3.4,6.2,7.1,12.4,10,18.8c2.3,5.2,0,10.7-4.2,13.7c-4,2.8-9.2,3-13.3,0.2
		c-4.4-2.8-6.8-8.2-4.7-13.5c2.7-6.7,6.6-12.9,10-19.3C162.4,142.7,163.2,142.7,163.8,142.7z"/>
	<path class="st1" d="M241.8,29.6c9.4,0,18.8,0,28.3,0c7.6,1,15.2,1.7,22.7,3c43,7.3,80.9,25.2,113.5,54.4
		c39,34.9,63.3,78.3,72.5,130c1.5,8.2,2.4,16.6,3.5,24.8c0,9.1,0,18.3,0,27.3c-0.2,1.5-0.6,2.8-0.8,4.3c-1.2,8.9-2,17.8-3.7,26.7
		c-17.6,91.1-91.2,163.1-182.8,178.6c-8.3,1.4-16.6,2.3-24.8,3.5c-9.4,0-18.8,0-28.3,0c-1-0.2-1.9-0.7-3-0.7
		c-19.1-1.4-37.6-5.3-55.6-11.3C95.4,440.8,33.2,358.5,29.9,266c-2.3-63.2,18-118.5,61.2-164.8c34.3-37,76.7-59.5,126.3-68.2
		C225.4,31.7,233.6,30.8,241.8,29.6z M400.5,101.2c-47.9-46.5-125.7-72.4-202.5-49C114.2,77.6,62.8,134.8,47.2,220.9
		c-12.4,68.1,7.9,128,53.3,179.5c12.9-12.9,25.4-25.3,38-37.8c-0.6-1-1.2-2.3-2-3.6c-8.1-14.8-16.6-29.2-24.1-44.1
		c-8.5-17.1-16.3-34.7-18.6-53.9c-1.8-15.2,0.1-30.2,10-42.8c11.5-14.5,30.5-16.3,43.7-3.4c5.9,5.8,9.9,13.4,14.8,20.2
		c0.7,1,1.2,2.2,2,3.5c1.8-0.7,3.3-1.1,4.9-1.7c16-5.9,31.9-12.1,48-17.6c20.7-6.9,41.9-9.6,63.4-3.6c3.7,1,5.9,0.2,8.4-2.4
		c36.2-36.3,72.4-72.5,108.7-108.8C398.6,103.4,399.5,102.3,400.5,101.2z M111.9,411c76.3,73.5,209.2,80.9,295.1-6.6
		c85.4-86.9,76-218.2,4.4-292.3c-36.5,36.5-73.2,73.1-109.8,109.7c14.9,5.6,30.3,11.3,45.2,16.9c4.5-6.9,8.4-13.4,12.9-19.3
		c4.5-6,10.4-10.3,17.9-12.3c14.2-3.5,28.6,4.1,35.5,19.1c5.9,12.8,7,26.4,4.2,40.2c-4,19.6-12.3,37.7-21.1,55.5
		c-11.7,23.3-26.3,44.9-34.5,69.9c-3.1,9.3-9.8,16-17.9,21.1c-25.5,16.3-53.6,25.4-83.6,26.4c-31.8,1.1-61.2-8.6-88.6-24.4
		c-10.8-6.1-18.6-14.6-22.6-26.7c-1.1-3.6-2.8-7-4.2-10.2C133.5,389.2,122.8,400.1,111.9,411z M211,310.6c3.3,0.6,5.8,1.2,8.2,1.5
		c14.5,1.2,29,3.9,43.5,3.4c15.3-0.5,30.6-3.7,46-5.9c5.2-0.8,8.6,1,9.4,5.3c0.8,4.3-1.7,7.5-6.9,8.4c-7.8,1.4-15.7,2.7-23.5,3.9
		c-14.8,2-29.5,4.3-44.4,2.3c-13.7-1.9-27.3-4-41.1-5.7c-1.7-0.2-4.2,0.3-5.3,1.5c-13.2,12.9-26.2,25.9-39,39c-1,1-1.6,3.5-1.1,4.9
		c2.2,6.1,4.8,12,7.1,18c1.9,5,4.9,9.3,9.5,11.8c10.6,5.7,21,11.9,32.1,16.3c45.5,18,88.5,10.8,129.6-13.7
		c6.8-4.1,11.5-9.8,14.5-17.1c8.4-20.8,15.5-41.9,21-63.7c5.3-21,0.8-39.7-12-56.6c-3.5-4.7-8.4-9.2-13.7-11.3
		c-17-6.9-34.5-12.7-51.7-19.2c-3-1.1-4.8-0.6-6.9,1.7c-14.4,14.5-28.9,29-43.3,43.5c-0.9,0.9-1.7,1.9-3.6,4
		c9.6,0,17.9,0.7,26.2-0.1c14.5-1.5,28.8-3.9,43.2-5.9c5.2-0.8,8.6,1.2,9.4,5.4c0.7,4.3-1.7,7.5-6.9,8.4c-27.1,4.9-54.2,9.5-82,4.5
		c-1-0.2-2.5,0-3.2,0.6C221.1,300.5,216.4,305.4,211,310.6z M208.4,292.2c-2.7-0.6-5.9-1-9-1.8c-4.2-1-6.4-4.2-5.7-8.1
		c0.7-4,4.1-6.4,8.5-5.7c5.2,0.8,10.6,1.5,15.7,2.6c3,0.7,4.9-0.1,6.9-2.2c15-15.2,30.2-30.3,45.3-45.4c0.9-0.9,1.7-1.9,2.8-3.2
		c-1.4-0.5-2.3-0.8-3.3-0.9c-14.2-2.6-28.3-1.2-41.9,3.2c-18.8,6.2-37.3,13.4-56.2,19.9c-8.3,2.8-14.8,7.8-19.7,14.9
		c-11.2,15.8-15.7,33.1-10.9,52.2c2.7,11,5.7,22,8.6,33C169.7,330.9,189.1,311.6,208.4,292.2z M387.1,307c0.3-0.2,0.7-0.3,0.8-0.5
		c7.1-14.9,14-30,16.2-46.4c1.5-10.8,0.5-21.6-5.7-31.1c-6.4-10-17.4-11.6-25.3-3c-5.2,5.7-9,12.5-13.3,18.6
		C378,262.5,386.9,282.8,387.1,307z M151.5,245.6c-3.3-7.6-7.1-14.9-13.5-20.4c-7.5-6.7-16.9-5.9-23.1,2.2c-1.5,1.9-2.8,4.2-3.7,6.5
		c-3.4,8.6-4.5,17.7-3.2,26.9c2.3,15.4,8.5,29.6,14.9,43.7c0.5,1.1,1.2,2.2,2.3,4C124.7,282.9,133.4,262.5,151.5,245.6z"/>
</g>
</svg>
